<svg xmlns="http://www.w3.org/2000/svg" viewBox="0 0 841.89 841.89"><defs><style>.cls-1{fill:#070808;}.cls-1,.cls-2{stroke:#a272b1;stroke-width:1.34px;}.cls-1,.cls-10,.cls-11,.cls-12,.cls-2,.cls-7,.cls-9{stroke-miterlimit:10;}.cls-2,.cls-7{fill:#fff0d9;}.cls-3{fill:#0f121d;}.cls-4{fill:#717cb5;}.cls-5{fill:#8a92c9;}.cls-6{fill:#acb3db;}.cls-10,.cls-11,.cls-12,.cls-7,.cls-9{stroke:#853694;stroke-width:0.61px;}.cls-8{fill:#e4effa;}.cls-9{fill:#f39184;}.cls-10{fill:#f1e787;}.cls-11{fill:#b8da91;}.cls-12{fill:#e6e74d;}.cls-13{fill:#091729;}</style></defs><title>Artboard 1</title><g id="hands"><path class="cls-1" d="M410.45,250.35c-6.67-16.58-13.09-11.89-17.45-8.71-2.42,1.77-8.12,20-8.39,23.83-.6,8.65,1.26,12.61-1.26,34.66S380,350.91,380,351.22a46.17,46.17,0,0,0,4.59,9.41,46.17,46.17,0,0,1-4.59-9.41v0a68.51,68.51,0,0,1-4.23-24c0-20.79-1.12-97.13-11.34-114.06-5.82-9.63,0-26.47-18.28-25.21s-12.6,57.35-14.49,76.25-2.28,75.61-2.28,75.61a9.76,9.76,0,0,0,3.15.47,9.76,9.76,0,0,1-3.15-.47h0a8.7,8.7,0,0,1-5.28-4.4c-9.07-17.52-1.26-112.8-3.78-131.07s-5.68-39.07-10.72-40.33-17-5.67-21.42,0-11.35,75-10.72,89.48c.62,14.1-2.5,72.33-11.36,81.9h0a5.42,5.42,0,0,1-.77.7,5.42,5.42,0,0,0,.77-.7c0-.14-.61-57.35,1.28-77.49s1.89-53.56,0-64.9-4.41-13.87-11.34-12-30.88,44.11-33.4,110.28S203.52,397.8,203.51,397.83a61.37,61.37,0,0,0,29.86,9.43,61.37,61.37,0,0,1-29.86-9.43h0l-1-.65c-15.13-10.08-65.81-62.5-83.19-65.54-16.14-2.82-46.65,7.14-41.59,11.35,7.94,6.59,64.2,67.8,71.21,89.48,2.38,7.36,41.31,68.56,56.72,82.55,37.79,34.32,34.1,69.84,40.33,111.54.54,3.61,17.64,27.1,78.14,24.58s70.58-23.32,70.58-23.32-.63-55.45,0-73.1,13.86-57.34,18.27-81.29c2.12-11.51,6.62-54.52,1.38-100.36C408.66,323.22,417.68,268.33,410.45,250.35ZM285,524.19s18.6,2.94,5.88-44-58.72-46.35-58.72-46.35,46-.62,58.72,46.35S285,524.19,285,524.19Zm43.38-74c-15.79,26.19,6.32,65.49,6.32,65.49s-22.11-39.3-6.32-65.49,47.83-31.81,47.83-31.81-18.71-4.68-30.87-6.55-29.94,0-50,0-26.53-14-26.53-14,6.46,14,26.53,14,37.84-1.87,50,0,30.87,6.55,30.87,6.55S344.2,424,328.4,450.17Z"/><path class="cls-2" d="M719.8,372.93c-10.72-3.78-31.91-2-48.29,8.1-13.82,8.5-25.57,16.6-38.74,19.69l0,0,0,0a48.66,48.66,0,0,1-7.5,1.2c-16.38,1.26-18.9.63-18.9.63s2.52.63,18.9-.63a48.66,48.66,0,0,0,7.5-1.2c-.22-.17-4.5-3.48-10-13.3-5.67-10.08,3.78-120.36,3.15-133.59s-11.34-55.46-15.75-63.76-10.71-7.45-17-7.39-7.56,13.17-9.45,54.76S578.76,315,578.76,315c-6.3-1.26-8.94-17.07-5.79-30.93s-1.89-78.78-1.89-91.38-2.81-21.26-6.33-26.71c-1.66-2.57-14.5-4.87-19.51,2.13-5.28,7.4-12,41-13.86,56.09-1.83,14.63,5.1,74.48-2.92,85.4h0a5.54,5.54,0,0,1-.86.93c-1.25,1-6.36,2.84-6.36,2.84s5.11-1.81,6.36-2.84a5.54,5.54,0,0,0,.86-.93c-5-8.83-4.65-26.17-6.07-41.92s-4-27.53-1.73-39.7c1.3-7,1.26-6.3,0-24.58s-1.26-22.68-4.41-25.83-7.56-3.78-13.23,0-12.6,37.18-16.38,57.34c-3.35,17.86-4.23,52.52-5.7,72.47h0c-.19,2.58-.39,4.92-.61,6.93-1.89,17.65-6.93,20.17-6.93,20.17s5-2.52,6.93-20.17c.22-2,.42-4.35.61-6.93-2.38-4-3.94-17.3-3.72-21.55s-.44-15.2-.89-21.68,2.68-21,3.58-27.06-3.13-12.74-5.59-18.56-10.37,0-10.37,0c-3.78,7.56-8.82,7.56-14.49,43.48s4.41,56.71,0,70.58-13.55,76.25-13.08,93.26,4.69,64.57,13.78,75c9.8,11.25,13.75,17.65,13.75,22.27,0,18.9-1.85,89.27,5.08,98.72s20.8,31.51,73.1,26.47,72.47-27.1,72.47-27.1-15.12-67.42,3.15-101.45,11.34-29.62,23.95-37.81,29.9-37.38,51.67-56.65c19-16.83,46.63-29.06,46.63-29.06S730.51,376.71,719.8,372.93Zm-211.54,127s10.84-16.87,6.62-41S483,408.32,483,408.32s27.72,26.5,31.93,50.6S508.26,499.89,508.26,499.89ZM536.57,383c-22.29-1.8-42.17,17-42.17,17s19.88-18.84,42.17-17,45.79,8.46,45.79,8.46S558.86,384.82,536.57,383ZM553.44,468c-13.85-34.94,34.72-50,34.72-50S539.59,433,553.44,468Z"/></g><g id="window"><rect class="cls-3" x="255.74" y="334.38" width="324.3" height="189.1"/><path class="cls-4" d="M327,375.89a1.69,1.69,0,0,0,0-3.38,1.69,1.69,0,0,0,0,3.38Z"/><path class="cls-4" d="M371.94,362.32a1.7,1.7,0,0,0,0-3.39,1.7,1.7,0,0,0,0,3.39Z"/><path class="cls-4" d="M347.34,403.88a1.69,1.69,0,0,0,0-3.38,1.69,1.69,0,0,0,0,3.38Z"/><path class="cls-4" d="M314.26,398.79a1.69,1.69,0,0,0,0-3.38,1.69,1.69,0,0,0,0,3.38Z"/><path class="cls-4" d="M426.23,445a1.7,1.7,0,0,0,0-3.39,1.7,1.7,0,0,0,0,3.39Z"/><path class="cls-4" d="M528.44,386.07a1.7,1.7,0,0,0,0-3.39,1.7,1.7,0,0,0,0,3.39Z"/><path class="cls-4" d="M372.79,437.39a1.7,1.7,0,0,0,0-3.39,1.7,1.7,0,0,0,0,3.39Z"/><path class="cls-4" d="M306.86,464.54l.43.85a1.69,1.69,0,0,0,2.31.6,1.73,1.73,0,0,0,.61-2.31l-.42-.85a1.72,1.72,0,0,0-2.32-.61,1.75,1.75,0,0,0-.61,2.32Z"/><path class="cls-4" d="M429.19,500.15a1.69,1.69,0,0,0,0-3.38,1.69,1.69,0,0,0,0,3.38Z"/><path class="cls-4" d="M522.5,469.19a1.69,1.69,0,0,0,0-3.38,1.69,1.69,0,0,0,0,3.38Z"/><path class="cls-4" d="M530.56,400.91a1.69,1.69,0,0,0,0-3.38,1.69,1.69,0,0,0,0,3.38Z"/><path class="cls-4" d="M412.23,406.85a1.69,1.69,0,0,0,0-3.38,1.69,1.69,0,0,0,0,3.38Z"/><path class="cls-4" d="M276.52,353h.42a1.7,1.7,0,0,0,0-3.39h-.42a1.7,1.7,0,0,0-1.69,1.7,1.72,1.72,0,0,0,1.69,1.69Z"/><path class="cls-4" d="M300.27,445.44a1.69,1.69,0,0,0,0-3.38,1.69,1.69,0,0,0,0,3.38Z"/><path class="cls-4" d="M397,397.94a1.69,1.69,0,0,0,0-3.38,1.69,1.69,0,0,0,0,3.38Z"/><path class="cls-4" d="M480.09,363.59a1.69,1.69,0,0,0,0-3.38,1.69,1.69,0,0,0,0,3.38Z"/><path class="cls-4" d="M358.37,490.4a1.7,1.7,0,0,0,0-3.39,1.7,1.7,0,0,0,0,3.39Z"/><path class="cls-4" d="M276.09,486.58a1.69,1.69,0,0,0,0-3.38,1.69,1.69,0,0,0,0,3.38Z"/><path class="cls-4" d="M489,499.73a1.7,1.7,0,0,0,0-3.39,1.7,1.7,0,0,0,0,3.39Z"/><path class="cls-4" d="M497.9,424.66a1.69,1.69,0,0,0,0-3.38,1.69,1.69,0,0,0,0,3.38Z"/><path class="cls-5" d="M454.64,434a.85.85,0,0,0,0-1.69.85.85,0,0,0,0,1.69Z"/><path class="cls-5" d="M355.4,420.85a.85.85,0,0,0,0-1.7.85.85,0,0,0,0,1.7Z"/><path class="cls-5" d="M364.31,459.44a.85.85,0,0,0,0-1.69.85.85,0,0,0,0,1.69Z"/><path class="cls-5" d="M404.6,459.86a.85.85,0,0,0,0-1.69.85.85,0,0,0,0,1.69Z"/><path class="cls-5" d="M459.31,397.1a.85.85,0,0,0,0-1.69.85.85,0,0,0,0,1.69Z"/><path class="cls-5" d="M301.12,414.49a.85.85,0,0,0,0-1.7.85.85,0,0,0,0,1.7Z"/><path class="cls-5" d="M286.27,390.31a.85.85,0,0,0,0-1.69.85.85,0,0,0,0,1.69Z"/><path class="cls-5" d="M352.86,439.08a.85.85,0,0,0,0-1.69.85.85,0,0,0,0,1.69Z"/><path class="cls-5" d="M472.45,381.41a.85.85,0,0,0,0-1.7.85.85,0,0,0,0,1.7Z"/><path class="cls-5" d="M427.07,353.84a.85.85,0,0,0,0-1.69.85.85,0,0,0,0,1.69Z"/><path class="cls-5" d="M423.68,413.21a.85.85,0,0,0,0-1.69.85.85,0,0,0,0,1.69Z"/><path class="cls-5" d="M510.62,422.54a.85.85,0,0,0,0-1.69.85.85,0,0,0,0,1.69Z"/><path class="cls-5" d="M527.16,461.56a.85.85,0,0,0,0-1.69.85.85,0,0,0,0,1.69Z"/><path class="cls-5" d="M489,466.65a.85.85,0,0,0,0-1.69.85.85,0,0,0,0,1.69Z"/><path class="cls-5" d="M438.1,474.28a.85.85,0,0,0,0-1.69.85.85,0,0,0,0,1.69Z"/><path class="cls-5" d="M496.2,491.25a.85.85,0,0,0,0-1.69.85.85,0,0,0,0,1.69Z"/><path class="cls-5" d="M563.64,426.36a.85.85,0,0,0,0-1.69.85.85,0,0,0,0,1.69Z"/><path class="cls-5" d="M560.67,344.93a.85.85,0,0,0,0-1.69.85.85,0,0,0,0,1.69Z"/><path class="cls-5" d="M496.2,382.25a.85.85,0,0,0,0-1.69.85.85,0,0,0,0,1.69Z"/><path class="cls-5" d="M310,497.19a.85.85,0,0,0,0-1.7.85.85,0,0,0,0,1.7Z"/><path class="cls-5" d="M279.91,445.45a.85.85,0,0,0,0-1.7.85.85,0,0,0,0,1.7Z"/><path class="cls-5" d="M560.67,500.58a.85.85,0,0,0,0-1.69.85.85,0,0,0,0,1.69Z"/><path class="cls-5" d="M574.24,389.89a.85.85,0,0,0,0-1.69.85.85,0,0,0,0,1.69Z"/><path class="cls-5" d="M543.28,495.91a.85.85,0,0,0,0-1.69.85.85,0,0,0,0,1.69Z"/><path class="cls-5" d="M345.22,509.06a.85.85,0,0,0,0-1.69.85.85,0,0,0,0,1.69Z"/><path class="cls-5" d="M260.83,524.33a.85.85,0,0,0,0-1.69.85.85,0,0,0,0,1.69Z"/><path class="cls-5" d="M255.74,348.75a.85.85,0,0,0,0-1.69.85.85,0,0,0,0,1.69Z"/><path class="cls-5" d="M256.16,408.55a.85.85,0,0,0,0-1.69.85.85,0,0,0,0,1.69Z"/><path class="cls-5" d="M407.14,392a.85.85,0,0,0,0-1.69.85.85,0,0,0,0,1.69Z"/><path class="cls-5" d="M399.08,363.17a.85.85,0,0,0,0-1.69.85.85,0,0,0,0,1.69Z"/><path class="cls-5" d="M388.06,483.19a.85.85,0,0,0,0-1.69.85.85,0,0,0,0,1.69Z"/><path class="cls-5" d="M338.44,453.08a.85.85,0,0,0,0-1.69.85.85,0,0,0,0,1.69Z"/><path class="cls-5" d="M323.59,426.36a.85.85,0,0,0,0-1.69.85.85,0,0,0,0,1.69Z"/><path class="cls-5" d="M551.34,353a.85.85,0,0,0,0-1.69.85.85,0,0,0,0,1.69Z"/><path class="cls-5" d="M533.52,509.06a.85.85,0,0,0,0-1.69.85.85,0,0,0,0,1.69Z"/><path class="cls-5" d="M446.16,522.21a.85.85,0,0,0,0-1.69.85.85,0,0,0,0,1.69Z"/><path class="cls-6" d="M370.67,385.65a.43.43,0,0,0,0-.85.43.43,0,0,0,0,.85Z"/><path class="cls-6" d="M411,448.84a.43.43,0,0,0,0-.85.43.43,0,0,0,0,.85Z"/><path class="cls-6" d="M516.56,377.59a.43.43,0,0,0,0-.85.43.43,0,0,0,0,.85Z"/><path class="cls-6" d="M397.81,413.64h-.42a.43.43,0,0,0,0,.85h.42a.43.43,0,0,0,0-.85Z"/><path class="cls-6" d="M294.33,390.74a.43.43,0,0,0,0-.85.43.43,0,0,0,0,.85Z"/><path class="cls-6" d="M331.23,358.93a.43.43,0,0,0,0-.85.43.43,0,0,0,0,.85Z"/><path class="cls-6" d="M323.17,459.87a.43.43,0,0,0,0-.85.43.43,0,0,0,0,.85Z"/><path class="cls-6" d="M472.88,475.13a.42.42,0,0,0,0-.84.42.42,0,0,0,0,.84Z"/><path class="cls-6" d="M421.14,358.08a.43.43,0,0,0,0-.85.43.43,0,0,0,0,.85Z"/><path class="cls-6" d="M446.16,376.32a.43.43,0,0,0,0-.85.43.43,0,0,0,0,.85Z"/><path class="cls-6" d="M548.37,399.64a.42.42,0,0,0,0-.84.42.42,0,0,0,0,.84Z"/><path class="cls-6" d="M570,458.17a.43.43,0,0,0,0-.85.43.43,0,0,0,0,.85Z"/><path class="cls-6" d="M512.74,451a.43.43,0,0,0,0-.85.43.43,0,0,0,0,.85Z"/><path class="cls-6" d="M546.67,504.82a.43.43,0,0,0,0-.85.43.43,0,0,0,0,.85Z"/><path class="cls-6" d="M460.15,434.84a.42.42,0,0,0,0-.84.42.42,0,0,0,0,.84Z"/><path class="cls-6" d="M446.16,460.71a.42.42,0,0,0,0-.84.42.42,0,0,0,0,.84Z"/><path class="cls-6" d="M438.1,419.15a.42.42,0,0,0,0-.84.42.42,0,0,0,0,.84Z"/><path class="cls-6" d="M488.15,407.7a.43.43,0,0,0,0-.85.43.43,0,0,0,0,.85Z"/><path class="cls-6" d="M478.81,444.6a.43.43,0,0,0,0-.85.43.43,0,0,0,0,.85Z"/><path class="cls-6" d="M440.65,417.46a.43.43,0,0,0,0-.85.43.43,0,0,0,0,.85Z"/><path class="cls-6" d="M439.37,388.19a.42.42,0,0,0,0-.84.42.42,0,0,0,0,.84Z"/><path class="cls-6" d="M418.17,395a.43.43,0,0,0,0-.85.43.43,0,0,0,0,.85Z"/><path class="cls-6" d="M382.12,437.39a.43.43,0,0,0,0-.85.43.43,0,0,0,0,.85Z"/><path class="cls-6" d="M269.73,417.46a.43.43,0,0,0,0-.85.43.43,0,0,0,0,.85Z"/><path class="cls-6" d="M339.71,373.77a.42.42,0,0,0,0-.84.42.42,0,0,0,0,.84Z"/><path class="cls-6" d="M332.5,392a.43.43,0,0,0,0-.85.43.43,0,0,0,0,.85Z"/><path class="cls-6" d="M318.5,389a.43.43,0,0,0,0-.85.43.43,0,0,0,0,.85Z"/><path class="cls-6" d="M321.47,403.46a.43.43,0,0,0,0-.85.43.43,0,0,0,0,.85Z"/><path class="cls-6" d="M402.48,397.52a.42.42,0,0,0,0-.84.42.42,0,0,0,0,.84Z"/><path class="cls-6" d="M489.84,384.8a.43.43,0,0,0,0-.85.43.43,0,0,0,0,.85Z"/><path class="cls-6" d="M475,420.42a.42.42,0,0,0,0-.84.42.42,0,0,0,0,.84Z"/><path class="cls-6" d="M426.65,442.9a.42.42,0,0,0,0-.84.42.42,0,0,0,0,.84Z"/><path class="cls-6" d="M397.39,437.81a.42.42,0,0,0,0-.84.42.42,0,0,0,0,.84Z"/><path class="cls-6" d="M388.9,404.73a.42.42,0,0,0,0-.84.42.42,0,0,0,0,.84Z"/><path class="cls-6" d="M532.25,483.62a.43.43,0,0,0,0-.85.43.43,0,0,0,0,.85Z"/><path class="cls-6" d="M364.31,487a.43.43,0,0,0,0-.85.43.43,0,0,0,0,.85Z"/><path class="cls-6" d="M344,466.65a.42.42,0,0,0,0-.84.42.42,0,0,0,0,.84Z"/><path class="cls-6" d="M293.48,371.65a.42.42,0,0,0,0-.84.42.42,0,0,0,0,.84Z"/><path class="cls-6" d="M332.07,353.84a.43.43,0,0,0,0-.85.43.43,0,0,0,0,.85Z"/><path class="cls-6" d="M306.63,392.43a.42.42,0,0,0,0-.84.42.42,0,0,0,0,.84Z"/><path class="cls-6" d="M260.83,367.41a.43.43,0,0,0,0-.85.43.43,0,0,0,0,.85Z"/><path class="cls-6" d="M288.82,393.28a.42.42,0,0,0,0-.84.42.42,0,0,0,0,.84Z"/><path class="cls-6" d="M262.52,380.13a.42.42,0,0,0,0-.84.42.42,0,0,0,0,.84Z"/><path class="cls-6" d="M305.78,350.87a.43.43,0,0,0,0-.85.43.43,0,0,0,0,.85Z"/><path class="cls-6" d="M398.66,350a.42.42,0,0,0,0-.84.42.42,0,0,0,0,.84Z"/><path class="cls-6" d="M573.81,375.47a.43.43,0,0,0,0-.85.43.43,0,0,0,0,.85Z"/><path class="cls-6" d="M506.38,348.75a.43.43,0,0,0,0-.85.43.43,0,0,0,0,.85Z"/><path class="cls-6" d="M524.62,347.05a.42.42,0,0,0,0-.84.42.42,0,0,0,0,.84Z"/><path class="cls-6" d="M560.67,409a.42.42,0,0,0,0-.84.42.42,0,0,0,0,.84Z"/><path class="cls-6" d="M573,479a.43.43,0,0,0,0-.85.43.43,0,0,0,0,.85Z"/><path class="cls-6" d="M524.19,428.91a.43.43,0,0,0,0-.85.43.43,0,0,0,0,.85Z"/><path class="cls-6" d="M542,428.06a.43.43,0,0,0,0-.85.43.43,0,0,0,0,.85Z"/><path class="cls-6" d="M549.22,463.68a.42.42,0,0,0,0-.84.42.42,0,0,0,0,.84Z"/><path class="cls-4" d="M582.91,346.8a1.69,1.69,0,0,0,0-3.38,1.69,1.69,0,0,0,0,3.38Z"/><path class="cls-4" d="M547.59,428.59a1.7,1.7,0,0,0,0-3.39,1.7,1.7,0,0,0,0,3.39Z"/><path class="cls-4" d="M552.8,497a1.69,1.69,0,0,0,0-3.38,1.69,1.69,0,0,0,0,3.38Z"/><path class="cls-4" d="M552.43,463.16a1.69,1.69,0,0,0,0-3.38,1.69,1.69,0,0,0,0,3.38Z"/><path class="cls-4" d="M258.36,442.34a1.69,1.69,0,0,0,0-3.38,1.69,1.69,0,0,0,0,3.38Z"/><path class="cls-4" d="M427.89,378.77a1.69,1.69,0,0,0,0-3.38,1.69,1.69,0,0,0,0,3.38Z"/><path class="cls-7" d="M574.93,307.42c-6-1.85-46-.28-49.83,0s-8.19.89-10.22,0c-1.23-.53-11.66-1.26-15.18-1.21-2.46,0-4.81.42-11.66.72-4,.17-8.44-1-11.81-.48-3.53.51-5.23-.81-8-.88s-11.12-1-15-1-10.83.43-16.36.43-12.25-.83-15.23-.83l-12,0c-3,0-10.22,1.16-12.77.74s-7.68.67-11.94-.18-15.85.39-23.09,0-12.62-.22-23.27-.22-21.18-1.06-27.57.22-7.4.95-12.94.95-41-3.87-46.87,9.77c-2.07,4.78-1.71,13.89-2.44,20.71s2.44,27.68.73,36.63,0,29.81.71,37.91,0,20.53.05,28.11,2.06,43.95.95,48.13c-.78,2.91.15,38.34,0,43.45-.37,12.51,21.29,11.07,26.83,12s22.15.34,26,0,60.49-.51,64.32-.06S405,540.56,408,540.56s28.66.12,37.61.54,20.24.24,25.77-.62,14.53.19,18.79,0,25.16-.59,32.4-1.44,15.63-.48,17.9-.61c5.68-.33,33.85-.64,42.79-2.34s7.21-7.08,8.32-10c1-2.56.65-17.82.74-23,.09-5.34.54-34.91.54-40.45s2-9.8,1.18-14.48.12-23.78,0-29,.81-12.69.85-18.31c0-5.13-.89-15.78,0-22.17s.83-18.85.4-21,.57-16.48,1-20.32-.66-19.21-2.79-23S580.9,309.27,574.93,307.42Zm-.37,24.41c-1-.07-2.17-.1-3.27-.12h-1.08c-2.62,0-5.69,0-8.35.19,2.66-.2,5.73-.2,8.35-.19h1.08C572.39,331.73,573.53,331.76,574.56,331.83Zm-2.08-3.1-1.06,0c-3.22-.06-6.28-.06-9.53.13,3.25-.19,6.31-.19,9.53-.13l1.06,0c.71,0,1.4.08,2.07.14C573.88,328.81,573.19,328.76,572.48,328.73Zm-10.61-3a77.35,77.35,0,0,1,9.3.09c.57.06,1.14.1,1.7.12a13.23,13.23,0,0,0,1.67,0,13.23,13.23,0,0,1-1.67,0c-.56,0-1.13-.06-1.7-.12A77.35,77.35,0,0,0,561.87,325.71Zm2.16-3.22-2.2,0c2.69,0,5.14,0,7.85,0l1.5,0,1.7,0,1.67.05-1.67-.05-1.7,0-1.5,0c-1.95,0-3.78,0-5.65,0m-26.28,1.57a1.11,1.11,0,0,1,.92-.78l3.84-.56a.47.47,0,0,0,.38-.27l1.72-3.49a1.15,1.15,0,0,1,2,0l1.72,3.49a.47.47,0,0,0,.38.27l3.84.56a1.11,1.11,0,0,1,.92.78,1.13,1.13,0,0,1-.28,1.17l-2.79,2.71a.5.5,0,0,0-.14.45l.65,3.83a1.11,1.11,0,0,1-.45,1.11,1.1,1.1,0,0,1-.67.22,1.12,1.12,0,0,1-.53-.13l-3.44-1.81a.49.49,0,0,0-.47,0L542,333.42a1.13,1.13,0,0,1-1.2-.09,1.11,1.11,0,0,1-.45-1.11l.65-3.83a.5.5,0,0,0-.14-.45L538,325.23A1.13,1.13,0,0,1,537.75,324.06Zm-22.78.35a6.88,6.88,0,0,1,.46-1.46c1.91-4.12,8-6,11.71-3.51a11.71,11.71,0,0,1,3,5,7.71,7.71,0,0,1,.15,1.53,7.62,7.62,0,0,1-.55,2.86,8.37,8.37,0,0,1-1,1.8,1,1,0,0,0,.08,1.3l.66.66a.64.64,0,0,1-.45,1.1h-4.51a.65.65,0,0,1-.45-.19.61.61,0,0,1-.19-.45v-3.8a3.34,3.34,0,0,0,.26-1.2c.61-.61,1.22.61,1.75,1a.61.61,0,0,0,.92-.08,5,5,0,0,0,.7-1.39,4.29,4.29,0,0,0-.92-5,5.21,5.21,0,0,0-8.62,5.7,5,5,0,0,0,1.48,1.8.32.32,0,0,1,.12.23.38.38,0,0,1-.09.25L518,331.86a.25.25,0,0,1-.2.09.32.32,0,0,1-.23-.07,7.61,7.61,0,0,1-2.06-2.65,7.66,7.66,0,0,1-.57-4.82Zm-159.43-6.19c1.19-2.72,19.73-.88,22.86-.81,3.65.09,15.5-1.36,18.05-.63s12.28.09,15.51,0,14.89.82,19.48.78,13.44.55,16.84,0,10-.12,11.9,0,11.22-.46,12.92,0,4.25-.63,8.33,0,8-.72,8.5,4.38.17,11.73-3.06,12.07-12.31.18-17.24.35-16.22-.35-20.3-.69-23.84.17-25.54.34-20.51.56-26.64.19-14.29-.75-16.72-.53c-3.3.31-12.18.92-15.85.53-2.73-.3-7.6.62-8.46-1.27C355.05,330.56,355.54,318.22,355.54,318.22Zm-49.09,1.12c2.37-.94,5.68-.94,7.16,1.73a7.65,7.65,0,0,1,1,1.33c1.34,1.2,1.34,3.09.87,5a7.48,7.48,0,0,1-5.2,4.73,6.84,6.84,0,0,1-6.62-2.84C300.78,325.49,302.2,320.29,306.45,319.34Zm-10.26,1.81a6.46,6.46,0,0,1,.83,1.27c2.34,4.57-1.44,9.77-6.64,9.77a7.56,7.56,0,0,1-6.15-7.09C284.71,319.9,292.74,316.11,296.19,321.15Zm-26.14-.76c3.31-2.37,8-1.89,10.09,1.75a6.74,6.74,0,0,1,.76,1.63,6.9,6.9,0,0,1-3.76,8c-3.31.95-6.14-.47-8.51-2.83A6.67,6.67,0,0,1,270.05,320.39Zm304.09,70.23c-1,3.92-2.61,34.23-1.31,43.38s.27,75.52-1.83,78.39-8,4.53-24,3.66c-16.71-.91-64.28,3.58-75.78,1.27s-51.48,2.41-57.49,1.71a75.74,75.74,0,0,0-18.29.09c-6.79.77-73.43,3.46-81.27,2.42s-21.32-.48-28.37-1-14.48,1.26-15.79-3.71c0,0,.26-36.06.26-42.59a145.47,145.47,0,0,0-2.09-22.47c-1-5.23-.26-18.29,0-21.69s-1.87-37.62-1.54-41.61c.35-4.22-.17-8.38.35-10.73s.15-20.57-.12-21.61.11-9.5,1.83-10.19c3.6-1.46,84.15-2.1,97.47,0s71.87-.69,75.26-.74,69.25.41,81.79-.74,46-2.25,49.65,0S575.19,386.7,574.14,390.62Z"/><path class="cls-8" d="M364.58,334.19c3.67.39,12.55-.22,15.85-.53,2.43-.22,10.6.15,16.72.53s24.94,0,26.64-.19,21.46-.68,25.54-.34,15.37.86,20.3.69,14,0,17.24-.35,3.57-7,3.06-12.07-4.42-3.74-8.5-4.38-6.63.47-8.33,0-11.05.13-12.92,0-8.5-.55-11.9,0-12.25,0-16.84,0-16.25-.87-19.48-.78-13,.73-15.51,0-14.4.72-18.05.63c-3.13-.07-21.67-1.91-22.86.81,0,0-.49,12.34.58,14.7C357,334.81,361.85,333.89,364.58,334.19Z"/><path class="cls-9" d="M277.14,331.73a6.9,6.9,0,0,0,3.76-8,6.74,6.74,0,0,0-.76-1.63c-2.05-3.64-6.78-4.12-10.09-1.75a6.67,6.67,0,0,0-1.42,8.51C271,331.26,273.83,332.68,277.14,331.73Z"/><path class="cls-10" d="M290.38,332.19c5.2,0,9-5.2,6.64-9.77a6.46,6.46,0,0,0-.83-1.27c-3.45-5-11.48-1.25-12,4A7.56,7.56,0,0,0,290.38,332.19Z"/><path class="cls-11" d="M310.24,332.11a7.48,7.48,0,0,0,5.2-4.73c.47-1.89.47-3.78-.87-5a7.65,7.65,0,0,0-1-1.33c-1.48-2.67-4.79-2.67-7.16-1.73-4.25,1-5.67,6.15-2.83,9.93A6.84,6.84,0,0,0,310.24,332.11Z"/><path class="cls-7" d="M517.6,331.88a.32.32,0,0,0,.23.07.25.25,0,0,0,.2-.09l1.39-1.38a.38.38,0,0,0,.09-.25.32.32,0,0,0-.12-.23,5,5,0,0,1-1.48-1.8,5.21,5.21,0,0,1,8.62-5.7,4.29,4.29,0,0,1,.92,5,5,5,0,0,1-.7,1.39.61.61,0,0,1-.92.08c-.53-.35-1.14-1.57-1.75-1a3.34,3.34,0,0,1-.26,1.2V333a.61.61,0,0,0,.19.45.65.65,0,0,0,.45.19H529a.64.64,0,0,0,.45-1.1l-.66-.66a1,1,0,0,1-.08-1.3,8.37,8.37,0,0,0,1-1.8,7.62,7.62,0,0,0,.55-2.86,7.71,7.71,0,0,0-.15-1.53,11.71,11.71,0,0,0-3-5c-3.67-2.45-9.8-.61-11.71,3.51a6.88,6.88,0,0,0-.46,1.46,7.66,7.66,0,0,0,.57,4.82A7.61,7.61,0,0,0,517.6,331.88Z"/><path class="cls-12" d="M540.82,327.94a.5.5,0,0,1,.14.45l-.65,3.83a1.11,1.11,0,0,0,.45,1.11,1.13,1.13,0,0,0,1.2.09l3.44-1.81a.49.49,0,0,1,.47,0l3.44,1.81a1.12,1.12,0,0,0,.53.13,1.1,1.1,0,0,0,.67-.22,1.11,1.11,0,0,0,.45-1.11l-.65-3.83a.5.5,0,0,1,.14-.45l2.79-2.71a1.13,1.13,0,0,0,.28-1.17,1.11,1.11,0,0,0-.92-.78l-3.84-.56a.47.47,0,0,1-.38-.27L546.66,319a1.15,1.15,0,0,0-2,0l-1.72,3.49a.47.47,0,0,1-.38.27l-3.84.56a1.11,1.11,0,0,0-.92.78,1.13,1.13,0,0,0,.28,1.17Z"/></g><g id="shadow"><ellipse class="cls-13" cx="422.49" cy="706.33" rx="258.66" ry="9.35"/></g></svg>