<?xml version="1.0" encoding="utf-8"?>
<!-- Generator: Adobe Illustrator 22.0.1, SVG Export Plug-In . SVG Version: 6.00 Build 0)  -->
<svg version="1.1" id="Layer_1" xmlns="http://www.w3.org/2000/svg" xmlns:xlink="http://www.w3.org/1999/xlink" x="0px" y="0px"
	 viewBox="0 0 512 512" style="enable-background:new 0 0 512 512;" xml:space="preserve">
<style type="text/css">
	.st0{fill:#FFFFFF;}
	.st1{enable-background:new    ;}
</style>
<g>
	<g>
		<path class="st0" d="M366.6,365.1H169.2c-6.8,0-12.4-5.6-12.4-12.4c0-6.7,5.5-12.4,12.4-12.4h184.2h0.7c12,0,21.8-9.8,21.8-21.8
			V59.9c0-12-9.8-21.8-21.8-21.8H169.5c-19.4,0-35.2,15.8-35.2,35.2C134,342.8,134,352.7,134,352.7c0,23.4,15.5,35.2,35.2,35.2
			h197.4c6.3,0,11.4-5.1,11.4-11.4C378,370.2,372.9,365.1,366.6,365.1z M157.1,73.3c0-6.8,5.6-12.4,12.4-12.4h183.6v256.7H169.2
			c-4,0-8.2,0.7-12.1,2.1L157.1,73.3L157.1,73.3z"/>
	</g>
</g>
<g>
	<g>
		<path class="st0" d="M280.8,118h-14.2V99.1c0-6.3-5.1-11.4-11.4-11.4c-6.3,0-11.4,5.1-11.4,11.4V118h-14.2
			c-6.3,0-11.4,5.1-11.4,11.4c0,6.3,5.1,11.4,11.4,11.4h14.2v60.8c0,6.3,5.1,11.4,11.4,11.4s11.4-5.1,11.4-11.4v-60.8h14.2
			c6.3,0,11.4-5.1,11.4-11.4C292.2,123.1,287.1,118,280.8,118z"/>
	</g>
</g>
<g class="st1">
	<path class="st0" d="M230.6,240.7c-4.6,0.6-5.4,2.5-5.4,9.5v40.4c-0.5,0-1.1,0-1.7,0c-0.6,0-1.3,0-2,0L190,250.9v27.8
		c0,8,0.6,9.8,7,10.4v1.4c-1.9-0.1-5.2-0.2-7.8-0.2c-2.3,0-4.8,0.1-6.3,0.2v-1.4c4.6-0.6,5.4-2.5,5.4-9.5v-32.6c0-5.3-0.8-6-5.4-6.2
		v-1.4c1.5,0.1,4,0.2,6.3,0.2c2.3,0,4.6-0.1,6.3-0.2l28,34.5v-22.7c0-8-0.6-9.8-7-10.4v-1.4c1.9,0.1,5.2,0.2,7.8,0.2
		c2.3,0,4.8-0.1,6.3-0.2V240.7z"/>
	<path class="st0" d="M260.9,263.6c13.5,1,18.2,7,18.2,12.9c0,9.1-7.6,14-20,14c-2.3,0-6.8-0.2-12.9-0.2c-4.3,0-8.7,0.1-11.1,0.2
		v-1.4c4.6-0.2,5.4-1,5.4-6.2v-35.9c0-5.3-0.8-6-5.4-6.2v-1.4c2.4,0.1,6.9,0.2,11,0.2c4.7,0,9.5-0.1,11.4-0.1
		c11.9,0,17.9,4.7,17.9,11.4c0,5.1-4.3,10.9-14.5,12.7V263.6z M252,246.9v16.4h3.1c6.8,0,8.5-5.5,8.5-11.8c0-7.1-2-10.8-7.1-10.8
		C252.8,240.7,252,241.9,252,246.9z M267.1,276.2c0-7.4-3.4-11.6-12-11.6h-3v18.3c0,5.1,0.8,6,5,6
		C264.1,288.9,267.1,284.3,267.1,276.2z"/>
	<path class="st0" d="M309.3,263.6c13.5,1,18.2,7,18.2,12.9c0,9.1-7.6,14-20,14c-2.3,0-6.8-0.2-12.9-0.2c-4.3,0-8.7,0.1-11.1,0.2
		v-1.4c4.6-0.2,5.4-1,5.4-6.2v-35.9c0-5.3-0.8-6-5.4-6.2v-1.4c2.4,0.1,6.9,0.2,11,0.2c4.7,0,9.5-0.1,11.4-0.1
		c11.9,0,17.9,4.7,17.9,11.4c0,5.1-4.3,10.9-14.5,12.7V263.6z M300.4,246.9v16.4h3.1c6.8,0,8.5-5.5,8.5-11.8c0-7.1-2-10.8-7.1-10.8
		C301.2,240.7,300.4,241.9,300.4,246.9z M315.5,276.2c0-7.4-3.4-11.6-12-11.6h-3v18.3c0,5.1,0.8,6,5,6
		C312.5,288.9,315.5,284.3,315.5,276.2z"/>
</g>
<g class="st1">
	<path class="st0" d="M160.6,424.7c-2.9,0.1-3.4,0.6-3.4,3.9V451c0,3.3,0.5,3.8,3.4,3.9v0.9c-1.7-0.1-4.5-0.1-7.1-0.1
		c-2.9,0-5.6,0-7.2,0.1v-0.9c3.1-0.1,3.7-0.6,3.7-3.9v-23.6l-10.9,28.4h-0.7l-12.2-29.2v21.7c0,5,0.4,6.1,4.4,6.5v0.9
		c-1.2-0.1-3.3-0.1-4.9-0.1c-1.4,0-3,0-3.9,0.1v-0.9c2.9-0.4,3.4-1.6,3.4-6v-20.4c0-3.3-0.5-3.8-3.4-3.9v-0.9c1,0.1,2.5,0.1,3.9,0.1
		c2.6,0,5.2,0,7.2-0.1l9.1,22l8.4-21.9h3.2c2.6,0,5.4,0,7.1-0.1V424.7z"/>
	<path class="st0" d="M184.2,424.7c-2.9,0.1-3.4,0.6-3.4,3.9V451c0,3.3,0.5,3.8,3.4,3.9v0.9c-1.6-0.1-4.3-0.1-6.9-0.1
		c-2.9,0-5.6,0-7.1,0.1v-0.9c2.9-0.1,3.4-0.6,3.4-3.9v-22.5c0-3.3-0.5-3.8-3.4-3.9v-0.9c1.5,0.1,4.2,0.1,7.1,0.1
		c2.5,0,5.2,0,6.9-0.1V424.7z"/>
	<path class="st0" d="M223.6,424.7c-2.9,0.4-3.4,1.6-3.4,6v25.3c-0.3,0-0.7,0-1.1,0c-0.4,0-0.8,0-1.2,0L198.2,431v17.4
		c0,5,0.4,6.1,4.4,6.5v0.9c-1.2-0.1-3.3-0.1-4.9-0.1c-1.4,0-3,0-3.9,0.1v-0.9c2.9-0.4,3.4-1.6,3.4-6v-20.4c0-3.3-0.5-3.8-3.4-3.9
		v-0.9c1,0.1,2.5,0.1,3.9,0.1c1.4,0,2.9,0,3.9-0.1l17.5,21.6v-14.2c0-5-0.4-6.1-4.4-6.5v-0.9c1.2,0.1,3.3,0.1,4.9,0.1
		c1.4,0,3,0,3.9-0.1V424.7z"/>
	<path class="st0" d="M246.9,424.7c-2.9,0.1-3.4,0.6-3.4,3.9V451c0,3.3,0.5,3.8,3.4,3.9v0.9c-1.6-0.1-4.3-0.1-6.9-0.1
		c-2.9,0-5.6,0-7.1,0.1v-0.9c2.9-0.1,3.4-0.6,3.4-3.9v-22.5c0-3.3-0.5-3.8-3.4-3.9v-0.9c1.5,0.1,4.2,0.1,7.1,0.1
		c2.5,0,5.2,0,6.9-0.1V424.7z"/>
	<path class="st0" d="M258.6,443.9c0.4,6,2.5,11.4,8.3,11.4c3.2,0,5.6-1.7,5.6-5.1c0-3.7-2.8-5.9-6.8-8.4c-4.3-2.7-8.1-5.3-8.1-10.3
		c0-5.7,4.8-8.3,10.2-8.3c3.5,0,5.2,0.9,6.6,1.7c0.7,0.4,1.1,0.6,1.5,0.6c0.6,0,0.8-0.7,1-2h1c-0.2,1.8-0.2,4-0.2,10.3h-1
		c-0.3-4.7-2.9-9.6-7.7-9.6c-2.9,0-5,1.7-5,4.6c0,3.7,2.8,5.1,7.8,8.5c4.3,2.9,7.7,5.3,7.7,10.2c0,6-5.2,8.8-11.2,8.8
		c-3.8,0-5.8-0.9-7.3-1.7c-0.7-0.5-1.2-0.6-1.5-0.6c-0.6,0-0.8,0.7-1,2h-1c0.1-2.1,0.2-5,0.2-12.2H258.6z"/>
	<path class="st0" d="M289.2,434.9c0.1-0.8,0.1-2.1,0.1-3.4c0-1.5-0.1-4.6-0.3-7.7c4.1,0.1,10,0.1,14,0.1s9.9,0,14-0.1
		c-0.2,3.1-0.3,6.2-0.3,7.7c0,1.3,0,2.6,0.1,3.4h-1c-1.5-7.6-3.9-10.1-8.1-10.1h-1v25.9c0,3.7,0.8,4.2,4.8,4.3v0.9
		c-1.9-0.1-5.3-0.1-8.6-0.1c-3.3,0-6.5,0.1-8.3,0.1v-0.9c4,0,4.8-0.6,4.8-4.3v-25.9h-1c-4.3,0-6.6,2.5-8.2,10.1H289.2z"/>
	<path class="st0" d="M356.8,453.9c-1.6,1.9-3.4,2.6-6,2.6c-3.3,0-5.4-1.1-6.1-4.9l-0.8-4.5c-0.7-3.8-1.4-6.4-4.2-6.4h-2.9V451
		c0,3.3,0.5,3.8,3.4,3.9v0.9c-1.6-0.1-4.3-0.1-6.9-0.1c-2.9,0-5.6,0-7.1,0.1v-0.9c2.9-0.1,3.4-0.6,3.4-3.9v-22.5
		c0-3.3-0.5-3.8-3.4-3.9v-0.9c1.5,0.1,4.3,0.1,6.9,0.1c3,0,6-0.1,7.1-0.1c8.4,0,12.5,2.9,12.5,7.9c0,3.7-2.2,7.9-10.2,8.8h0
		c5.5,0.5,7.9,2.2,8.7,6l1,4.7c0.5,2.4,1,3.3,2.1,3.3c0.8,0,1.3-0.4,1.8-1L356.8,453.9z M338.7,439.7c5.4,0,6.5-3.4,6.5-7.5
		c0-4.8-1.5-7.5-5.6-7.5c-2.3,0-2.8,0.8-2.8,3.9v11.2H338.7z"/>
	<path class="st0" d="M379.6,423.7c2.1,0.1,3.8,0.1,5.6,0.1c1.3,0,2.5,0,3.5-0.1v0.9c-1.3,0.5-2.7,1.9-4.3,5.2l-5.4,10.6V451
		c0,3.3,0.5,3.8,3.4,3.9v0.9c-1.6-0.1-4.4-0.1-7-0.1c-2.8,0-5.6,0-7,0.1v-0.9c2.9-0.1,3.4-0.6,3.4-3.9v-7.7l-8.7-16.1
		c-1.1-2-2-2.5-2.6-2.5v-1c1.6,0.1,3.3,0.2,5.4,0.2c2.7,0,5.9-0.1,8.5-0.2v1c-1.8,0-3.4,0.2-3.4,1.4c0,0.3,0.1,0.6,0.3,1l6.9,13.2
		l3.5-7c1.2-2.5,1.8-4.3,1.8-5.6c0-2.1-1.5-2.9-3.8-3V423.7z"/>
</g>
</svg>
