<?xml version="1.0" encoding="utf-8"?>
<!-- Generator: Adobe Illustrator 22.0.1, SVG Export Plug-In . SVG Version: 6.00 Build 0)  -->
<svg version="1.1" xmlns="http://www.w3.org/2000/svg" xmlns:xlink="http://www.w3.org/1999/xlink" x="0px" y="0px"
	 viewBox="0 0 545.6 478.8" style="enable-background:new 0 0 545.6 478.8;" xml:space="preserve">
<style type="text/css">
	.st0{fill:#1A1A1A;}
	.st1{fill:#090A0A;stroke:#895DA3;stroke-width:1.343;stroke-miterlimit:10;}
	.st2{fill:#FFECCF;stroke:#895DA3;stroke-width:1.343;stroke-miterlimit:10;}
	.st3{fill:#0C0F16;}
	.st4{fill:#5569A8;}
	.st5{fill:#6F80BE;}
	.st6{fill:#96A4D3;}
	.st7{fill:#FFECCF;stroke:#692683;stroke-width:0.613;stroke-miterlimit:10;}
	.st8{fill:#DCEBF8;}
	.st9{fill:#EE7B70;stroke:#692683;stroke-width:0.613;stroke-miterlimit:10;}
	.st10{fill:#F6E170;stroke:#692683;stroke-width:0.613;stroke-miterlimit:10;}
	.st11{fill:#B3D27C;stroke:#692683;stroke-width:0.613;stroke-miterlimit:10;}
	.st12{fill:#ECE034;stroke:#692683;stroke-width:0.613;stroke-miterlimit:10;}
</style>
<g id="shadow_1_">
	<ellipse id="shadow" class="st0" cx="273.1" cy="472.8" rx="152.4" ry="6.1"/>
</g>
<g id="hands_1_">
	<g id="hands" transform="translate(-0.913 6)">
		<g id="Group_53" transform="translate(353 168.378)">
			<path id="Path_147" class="st1" d="M-93.2-96.6c-5.8-14.4-11.4-10.3-15.1-7.6c-2.1,1.5-7,17.3-7.3,20.7
				c-0.5,7.5,1.1,10.9-1.1,30.1c-2.2,19-2.9,44-2.9,44.3c1,2.9,2.4,5.6,4,8.2c-1.6-2.6-3-5.3-4-8.2l0,0c-2.5-6.7-3.7-13.7-3.7-20.8
				c0-18-1-84.2-9.8-98.9c-5-8.4,0-23-15.9-21.9s-10.9,49.7-12.6,66.1s-2,65.6-2,65.6c0.9,0.3,1.8,0.4,2.7,0.4
				c-0.9,0-1.9-0.1-2.7-0.4l0,0c-2-0.6-3.6-2-4.6-3.8c-7.9-15.2-1.1-97.8-3.3-113.7s-4.9-33.9-9.3-35s-14.8-4.9-18.6,0
				s-9.8,65-9.3,77.6c0.5,12.2-2.2,62.7-9.9,71l0,0c-0.2,0.2-0.4,0.4-0.7,0.6c0.2-0.2,0.5-0.4,0.7-0.6c0-0.1-0.5-49.7,1.1-67.2
				c1.6-17.5,1.6-46.5,0-56.3s-3.8-12-9.8-10.4s-26.8,38.3-29,95.6c-1.6,41.9-3.4,75.2-0.6,92.4c-1.5,4.5-16,0-16,0
				c7.8,4.9,16.7,7.7,25.9,8.2c-9.2-0.4-18.1-3.3-25.9-8.2l0,0c-0.3-0.2-0.6-0.4-0.9-0.6c-13.1-8.7-37.1-38.4-52.2-41.1
				c-14-2.4-29.2,12.1-24.8,15.8c6.9,5.7,35.4,41.4,41.5,60.2c2.1,6.4,24.9,55.1,38.3,67.3c32.8,29.8,29.6,60.6,35,96.7
				c0.5,3.1,15.3,23.5,67.8,21.3s61.2-20.2,61.2-20.2s-0.5-48.1,0-63.4s12-49.7,15.9-70.5c1.8-10,5.7-47.3,1.2-87
				C-94.8-33.4-86.9-81-93.2-96.6z M-202,141c0,0,16.1,2.5,5.1-38.2s-50.9-40.2-50.9-40.2s39.9-0.5,50.9,40.2S-202,141-202,141z
				 M-164.4,76.7c-13.7,22.7,5.5,56.8,5.5,56.8S-178.1,99.5-164.4,76.7s41.5-27.6,41.5-27.6s-16.2-4.1-26.8-5.7s-26,0-43.4,0
				s-23-12.1-23-12.1s5.6,12.1,23,12.1s32.8-1.6,43.4,0s26.8,5.7,26.8,5.7S-150.7,54-164.4,76.7L-164.4,76.7z"/>
		</g>
		<g id="Group_54" transform="translate(664.545 170.351)">
			<path id="Path_148" class="st2" d="M-136.5,7.8c-9.3-3.3-27.7-1.7-41.9,7c-12,7.4-22.2,14.4-33.6,17.1l0,0l0,0
				c-2.1,0.5-4.3,0.9-6.5,1c-14.2,1.1-16.4,0.5-16.4,0.5s2.2,0.5,16.4-0.5c2.2-0.2,4.4-0.5,6.5-1c-0.2-0.1-3.9-3-8.7-11.5
				c-4.9-8.7,3.3-104.4,2.7-115.9s-9.8-48.1-13.7-55.3s-9.3-6.5-14.8-6.4s-6.6,11.4-8.2,47.5s-4.3,67.3-4.3,67.3
				c-5.5-1.1-7.8-14.8-5-26.8s-1.6-68.3-1.6-79.3s-2.4-18.4-5.5-23.2c-1.4-2.2-12.6-4.2-16.9,1.9c-4.6,6.4-10.4,35.5-12,48.6
				c-1.6,12.7,4.4,64.6-2.5,74.1l0,0c-0.2,0.3-0.5,0.6-0.7,0.8c-1.1,0.9-5.5,2.5-5.5,2.5s4.4-1.6,5.5-2.5c0.3-0.2,0.5-0.5,0.7-0.8
				c-4.4-7.7-4-22.7-5.3-36.4s-3.5-23.9-1.5-34.4c1.1-6.1,1.1-5.5,0-21.3s-1.1-19.7-3.8-22.4s-6.6-3.3-11.5,0s-10.9,32.2-14.2,49.7
				c-2.9,15.5-3.7,45.6-4.9,62.9l0,0c-0.2,2.2-0.3,4.3-0.5,6c-1.6,15.3-6,17.5-6,17.5s4.4-2.2,6-17.5c0.2-1.7,0.4-3.8,0.5-6
				c-2.1-3.5-3.4-15-3.2-18.7s-0.4-13.2-0.8-18.8s2.3-18.2,3.1-23.5s-2.7-11.1-4.8-16.1s-9,0-9,0c-3.3,6.6-7.7,6.6-12.6,37.7
				s3.8,49.2,0,61.2s-11.8,66.1-11.3,80.9s4.1,56,11.9,65c8.5,9.8,11.9,15.3,11.9,19.3c0,16.4-1.6,77.4,4.4,85.6s18,27.3,63.4,23
				s62.9-23.5,62.9-23.5s-13.1-58.5,2.7-88s9.8-25.7,20.8-32.8s25.9-32.4,44.8-49.1C-142.9,38.6-119,28-119,28
				S-127.2,11.1-136.5,7.8z M-319.9,117.9c0,0,9.4-14.6,5.7-35.5s-27.7-43.9-27.7-43.9s24,23,27.7,43.9S-319.9,117.9-319.9,117.9z
				 M-295.4,16.5C-314.7,15-332,31.3-332,31.3S-314.7,15-295.4,16.5c19.3,1.6,39.7,7.3,39.7,7.3S-276,18.1-295.4,16.5L-295.4,16.5z
				 M-280.7,90.2c-12-30.3,30.1-43.4,30.1-43.4S-292.8,59.9-280.7,90.2L-280.7,90.2z"/>
		</g>
	</g>
</g>
<g id="window">
	<g id="window_1_" transform="translate(276.334 13.172)">
		<rect id="Rectangle_2" x="-128.3" y="152.8" class="st3" width="242.2" height="141.2"/>
		<g id="Group_171" transform="translate(253.336 333.32)">
			<g id="Group_56" transform="translate(52.604 21.858)">
				<path id="Path_149" class="st4" d="M-381.1-171.4c0.7,0,1.2-0.6,1.2-1.3c0-0.7-0.6-1.2-1.2-1.2c-0.7,0-1.2,0.6-1.2,1.3
					C-382.3-171.9-381.7-171.4-381.1-171.4z"/>
			</g>
			<g id="Group_57" transform="translate(86.18 11.721)">
				<path id="Path_150" class="st4" d="M-381.1-171.4c0.7,0,1.2-0.6,1.2-1.3c0-0.7-0.6-1.2-1.2-1.2c-0.7,0-1.2,0.6-1.2,1.3
					C-382.3-171.9-381.7-171.4-381.1-171.4z"/>
			</g>
			<g id="Group_58" transform="translate(67.808 42.763)">
				<path id="Path_151" class="st4" d="M-381.1-171.4c0.7,0,1.2-0.6,1.2-1.3c0-0.7-0.6-1.2-1.2-1.2c-0.7,0-1.2,0.6-1.2,1.3
					C-382.3-171.9-381.7-171.4-381.1-171.4z"/>
			</g>
			<g id="Group_59" transform="translate(43.102 38.962)">
				<path id="Path_152" class="st4" d="M-381.1-171.4c0.7,0,1.2-0.6,1.2-1.3c0-0.7-0.6-1.2-1.2-1.2c-0.7,0-1.2,0.6-1.2,1.3
					C-382.3-171.9-381.7-171.4-381.1-171.4z"/>
			</g>
			<g id="Group_60" transform="translate(126.724 73.489)">
				<path id="Path_153" class="st4" d="M-381.1-171.4c0.7,0,1.2-0.6,1.2-1.3c0-0.7-0.6-1.2-1.2-1.2c-0.7,0-1.2,0.6-1.2,1.3
					C-382.3-171.9-381.7-171.4-381.1-171.4z"/>
			</g>
			<g id="Group_61" transform="translate(203.062 29.46)">
				<path id="Path_154" class="st4" d="M-381.1-171.4c0.7,0,1.2-0.6,1.2-1.3c0-0.7-0.6-1.2-1.2-1.2c-0.7,0-1.2,0.6-1.2,1.3
					C-382.3-171.9-381.7-171.4-381.1-171.4z"/>
			</g>
			<g id="Group_62" transform="translate(86.814 67.787)">
				<path id="Path_155" class="st4" d="M-381.1-171.4c0.7,0,1.2-0.6,1.2-1.3c0-0.7-0.6-1.2-1.2-1.2c-0.7,0-1.2,0.6-1.2,1.3
					C-382.3-171.9-381.7-171.4-381.1-171.4z"/>
			</g>
			<g id="Group_63" transform="translate(38.639 88.694)">
				<path id="Path_156" class="st4" d="M-382.1-172l0.3,0.6c0.4,0.6,1.1,0.8,1.7,0.5c0.6-0.4,0.8-1.1,0.5-1.7l-0.3-0.6
					c-0.4-0.6-1.1-0.8-1.7-0.5C-382.3-173.4-382.5-172.6-382.1-172z"/>
			</g>
			<g id="Group_64" transform="translate(128.942 114.666)">
				<path id="Path_157" class="st4" d="M-381.1-171.4c0.7,0,1.2-0.6,1.2-1.3c0-0.7-0.6-1.2-1.2-1.2c-0.7,0-1.2,0.6-1.2,1.3
					C-382.3-171.9-381.7-171.4-381.1-171.4z"/>
			</g>
			<g id="Group_65" transform="translate(198.627 91.543)">
				<path id="Path_158" class="st4" d="M-381.1-171.4c0.7,0,1.2-0.6,1.2-1.3c0-0.7-0.6-1.2-1.2-1.2c-0.7,0-1.2,0.6-1.2,1.3
					C-382.3-171.9-381.7-171.4-381.1-171.4z"/>
			</g>
			<g id="Group_66" transform="translate(204.646 40.546)">
				<path id="Path_159" class="st4" d="M-381.1-171.4c0.7,0,1.2-0.6,1.2-1.3c0-0.7-0.6-1.2-1.2-1.2c-0.7,0-1.2,0.6-1.2,1.3
					C-382.3-171.9-381.7-171.4-381.1-171.4z"/>
			</g>
			<g id="Group_67" transform="translate(116.272 44.981)">
				<path id="Path_160" class="st4" d="M-381.1-171.4c0.7,0,1.2-0.6,1.2-1.3c0-0.7-0.6-1.2-1.2-1.2c-0.7,0-1.2,0.6-1.2,1.3
					C-382.3-171.9-381.7-171.4-381.1-171.4z"/>
			</g>
			<g id="Group_68" transform="translate(14.866 4.753)">
				<path id="Path_161" class="st4" d="M-381-171.4h0.3c0.7,0,1.3-0.5,1.3-1.2s-0.5-1.3-1.2-1.3c0,0,0,0-0.1,0h-0.3
					c-0.7,0-1.2,0.6-1.2,1.3C-382.2-171.9-381.7-171.4-381-171.4z"/>
			</g>
			<g id="Group_69" transform="translate(32.649 73.806)">
				<path id="Path_162" class="st4" d="M-381.1-171.4c0.7,0,1.2-0.6,1.2-1.3c0-0.7-0.6-1.2-1.2-1.2c-0.7,0-1.2,0.6-1.2,1.3
					C-382.3-171.9-381.7-171.4-381.1-171.4z"/>
			</g>
			<g id="Group_70" transform="translate(104.869 38.329)">
				<path id="Path_163" class="st4" d="M-381.1-171.4c0.7,0,1.2-0.6,1.2-1.3c0-0.7-0.6-1.2-1.2-1.2c-0.7,0-1.2,0.6-1.2,1.3
					C-382.3-171.9-381.7-171.4-381.1-171.4z"/>
			</g>
			<g id="Group_71" transform="translate(166.952 12.672)">
				<path id="Path_164" class="st4" d="M-381.1-171.4c0.7,0,1.2-0.6,1.2-1.3c0-0.7-0.6-1.2-1.2-1.2c-0.7,0-1.2,0.6-1.2,1.3
					C-382.3-171.9-381.7-171.4-381.1-171.4z"/>
			</g>
			<g id="Group_72" transform="translate(76.044 107.381)">
				<path id="Path_165" class="st4" d="M-381.1-171.4c0.7,0,1.2-0.6,1.2-1.3c0-0.7-0.6-1.2-1.2-1.2c-0.7,0-1.2,0.6-1.2,1.3
					C-382.3-171.9-381.7-171.4-381.1-171.4z"/>
			</g>
			<g id="Group_73" transform="translate(14.594 104.531)">
				<path id="Path_166" class="st4" d="M-381.1-171.4c0.7,0,1.2-0.6,1.2-1.3c0-0.7-0.6-1.2-1.2-1.2c-0.7,0-1.2,0.6-1.2,1.3
					C-382.3-171.9-381.7-171.4-381.1-171.4z"/>
			</g>
			<g id="Group_74" transform="translate(173.604 114.35)">
				<path id="Path_167" class="st4" d="M-381.1-171.4c0.7,0,1.2-0.6,1.2-1.3c0-0.7-0.6-1.2-1.2-1.2c-0.7,0-1.2,0.6-1.2,1.3
					C-382.3-171.9-381.7-171.4-381.1-171.4z"/>
			</g>
			<g id="Group_75" transform="translate(180.256 58.285)">
				<path id="Path_168" class="st4" d="M-381.1-171.4c0.7,0,1.2-0.6,1.2-1.3c0-0.7-0.6-1.2-1.2-1.2c-0.7,0-1.2,0.6-1.2,1.3
					C-382.3-171.9-381.7-171.4-381.1-171.4z"/>
			</g>
			<g id="Group_76" transform="translate(148.557 66.518)">
				<path id="Path_169" class="st5" d="M-381.7-172.6c0.3,0,0.6-0.3,0.6-0.6c0-0.3-0.3-0.6-0.6-0.6s-0.6,0.3-0.6,0.6
					C-382.3-172.9-382-172.6-381.7-172.6z"/>
			</g>
			<g id="Group_77" transform="translate(74.437 56.699)">
				<path id="Path_170" class="st5" d="M-381.7-172.6c0.3,0,0.6-0.3,0.6-0.6c0-0.3-0.3-0.6-0.6-0.6s-0.6,0.3-0.6,0.6
					C-382.3-172.9-382-172.6-381.7-172.6z"/>
			</g>
			<g id="Group_78" transform="translate(81.089 85.523)">
				<path id="Path_171" class="st5" d="M-381.7-172.6c0.3,0,0.6-0.3,0.6-0.7c0-0.3-0.3-0.6-0.6-0.6c-0.3,0-0.6,0.3-0.6,0.7
					C-382.3-172.9-382-172.6-381.7-172.6z"/>
			</g>
			<g id="Group_79" transform="translate(111.181 85.84)">
				<path id="Path_172" class="st5" d="M-381.7-172.6c0.3,0,0.6-0.3,0.6-0.7c0-0.3-0.3-0.6-0.6-0.6c-0.3,0-0.6,0.3-0.6,0.7
					C-382.3-172.9-382-172.6-381.7-172.6z"/>
			</g>
			<g id="Group_80" transform="translate(152.042 38.961)">
				<path id="Path_173" class="st5" d="M-381.7-172.6c0.3,0,0.6-0.3,0.6-0.6c0-0.3-0.3-0.6-0.6-0.6s-0.6,0.3-0.6,0.6
					C-382.3-172.9-382-172.6-381.7-172.6z"/>
			</g>
			<g id="Group_81" transform="translate(33.893 51.948)">
				<path id="Path_174" class="st5" d="M-381.7-172.6c0.3,0,0.6-0.3,0.6-0.7c0-0.3-0.3-0.6-0.6-0.6c-0.3,0-0.6,0.3-0.6,0.7
					C-382.3-172.9-382-172.6-381.7-172.6z"/>
			</g>
			<g id="Group_82" transform="translate(22.806 33.893)">
				<path id="Path_175" class="st5" d="M-381.7-172.6c0.3,0,0.6-0.3,0.6-0.7c0-0.3-0.3-0.6-0.6-0.6c-0.3,0-0.6,0.3-0.6,0.7
					C-382.3-172.9-382-172.6-381.7-172.6z"/>
			</g>
			<g id="Group_83" transform="translate(72.536 70.319)">
				<path id="Path_176" class="st5" d="M-381.7-172.6c0.3,0,0.6-0.3,0.6-0.7c0-0.3-0.3-0.6-0.6-0.6c-0.3,0-0.6,0.3-0.6,0.7
					C-382.3-172.9-382-172.6-381.7-172.6z"/>
			</g>
			<g id="Group_84" transform="translate(161.861 27.241)">
				<path id="Path_177" class="st5" d="M-381.7-172.6c0.3,0,0.6-0.3,0.6-0.6c0-0.3-0.3-0.6-0.6-0.6s-0.6,0.3-0.6,0.6
					C-382.3-172.9-382-172.6-381.7-172.6z"/>
			</g>
			<g id="Group_85" transform="translate(127.968 6.652)">
				<path id="Path_178" class="st5" d="M-381.7-172.6c0.3,0,0.6-0.3,0.6-0.7c0-0.3-0.3-0.6-0.6-0.6c-0.3,0-0.6,0.3-0.6,0.7
					C-382.3-172.9-382-172.6-381.7-172.6z"/>
			</g>
			<g id="Group_86" transform="translate(125.434 50.997)">
				<path id="Path_179" class="st5" d="M-381.7-172.6c0.3,0,0.6-0.3,0.6-0.6c0-0.3-0.3-0.6-0.6-0.6s-0.6,0.3-0.6,0.6
					C-382.3-172.9-382-172.6-381.7-172.6z"/>
			</g>
			<g id="Group_87" transform="translate(190.369 57.966)">
				<path id="Path_180" class="st5" d="M-381.7-172.6c0.3,0,0.6-0.3,0.6-0.6c0-0.3-0.3-0.6-0.6-0.6s-0.6,0.3-0.6,0.6
					C-382.3-172.9-382-172.6-381.7-172.6z"/>
			</g>
			<g id="Group_88" transform="translate(202.722 87.107)">
				<path id="Path_181" class="st5" d="M-381.7-172.6c0.3,0,0.6-0.3,0.6-0.6c0-0.3-0.3-0.6-0.6-0.6s-0.6,0.3-0.6,0.6
					C-382.3-172.9-382-172.6-381.7-172.6z"/>
			</g>
			<g id="Group_89" transform="translate(174.215 90.908)">
				<path id="Path_182" class="st5" d="M-381.7-172.6c0.3,0,0.6-0.3,0.6-0.6c0-0.3-0.3-0.6-0.6-0.6s-0.6,0.3-0.6,0.6
					C-382.3-172.9-382-172.6-381.7-172.6z"/>
			</g>
			<g id="Group_90" transform="translate(136.204 96.61)">
				<path id="Path_183" class="st5" d="M-381.7-172.6c0.3,0,0.6-0.3,0.6-0.6c0-0.3-0.3-0.6-0.6-0.6s-0.6,0.3-0.6,0.6
					C-382.3-172.9-382-172.6-381.7-172.6z"/>
			</g>
			<g id="Group_91" transform="translate(179.599 109.28)">
				<path id="Path_184" class="st5" d="M-381.7-172.6c0.3,0,0.6-0.3,0.6-0.6c0-0.3-0.3-0.6-0.6-0.6s-0.6,0.3-0.6,0.6
					C-382.3-172.9-382-172.6-381.7-172.6z"/>
			</g>
			<g id="Group_92" transform="translate(229.963 60.817)">
				<path id="Path_185" class="st5" d="M-381.7-172.6c0.3,0,0.6-0.3,0.6-0.6c0-0.3-0.3-0.6-0.6-0.6s-0.6,0.3-0.6,0.6
					C-382.3-172.9-382-172.6-381.7-172.6z"/>
			</g>
			<g id="Group_93" transform="translate(227.746)">
				<path id="Path_186" class="st5" d="M-381.7-172.6c0.3,0,0.6-0.3,0.6-0.6c0-0.3-0.3-0.6-0.6-0.6s-0.6,0.3-0.6,0.6
					C-382.3-172.9-382-172.6-381.7-172.6z"/>
			</g>
			<g id="Group_94" transform="translate(179.599 27.874)">
				<path id="Path_187" class="st5" d="M-381.7-172.6c0.3,0,0.6-0.3,0.6-0.7c0-0.3-0.3-0.6-0.6-0.6c-0.3,0-0.6,0.3-0.6,0.7
					C-382.3-172.9-382-172.6-381.7-172.6z"/>
			</g>
			<g id="Group_95" transform="translate(40.545 113.715)">
				<path id="Path_188" class="st5" d="M-381.7-172.6c0.3,0,0.6-0.3,0.6-0.6c0-0.3-0.3-0.6-0.6-0.6s-0.6,0.3-0.6,0.6
					C-382.3-172.9-382-172.6-381.7-172.6z"/>
			</g>
			<g id="Group_96" transform="translate(18.055 75.071)">
				<path id="Path_189" class="st5" d="M-381.7-172.6c0.3,0,0.6-0.3,0.6-0.6c0-0.3-0.3-0.6-0.6-0.6s-0.6,0.3-0.6,0.6
					C-382.3-172.9-382-172.6-381.7-172.6z"/>
			</g>
			<g id="Group_97" transform="translate(227.746 116.248)">
				<path id="Path_190" class="st5" d="M-381.7-172.6c0.3,0,0.6-0.3,0.6-0.7c0-0.3-0.3-0.6-0.6-0.6c-0.3,0-0.6,0.3-0.6,0.7
					C-382.3-172.9-382-172.6-381.7-172.6z"/>
			</g>
			<g id="Group_98" transform="translate(237.882 33.576)">
				<path id="Path_191" class="st5" d="M-381.7-172.6c0.3,0,0.6-0.3,0.6-0.6c0-0.3-0.3-0.6-0.6-0.6s-0.6,0.3-0.6,0.6
					C-382.3-172.9-382-172.6-381.7-172.6z"/>
			</g>
			<g id="Group_99" transform="translate(214.759 112.764)">
				<path id="Path_192" class="st5" d="M-381.7-172.6c0.3,0,0.6-0.3,0.6-0.7c0-0.3-0.3-0.6-0.6-0.6c-0.3,0-0.6,0.3-0.6,0.7
					C-382.3-172.9-382-172.6-381.7-172.6z"/>
			</g>
			<g id="Group_100" transform="translate(66.835 122.584)">
				<path id="Path_193" class="st5" d="M-381.7-172.6c0.3,0,0.6-0.3,0.6-0.6c0-0.3-0.3-0.6-0.6-0.6l0,0c-0.3,0-0.6,0.3-0.6,0.6
					C-382.3-172.9-382-172.6-381.7-172.6z"/>
			</g>
			<g id="Group_101" transform="translate(3.801 133.987)">
				<path id="Path_194" class="st5" d="M-381.7-172.6c0.3,0,0.6-0.3,0.6-0.6c0-0.3-0.3-0.6-0.6-0.6c-0.3,0-0.6,0.3-0.6,0.6
					C-382.3-172.9-382-172.6-381.7-172.6z"/>
			</g>
			<g id="Group_102" transform="translate(0 2.851)">
				<path id="Path_195" class="st5" d="M-381.7-172.6c0.3,0,0.6-0.3,0.6-0.6c0-0.3-0.3-0.6-0.6-0.6c-0.3,0-0.6,0.3-0.6,0.6
					C-382.3-172.9-382-172.6-381.7-172.6z"/>
			</g>
			<g id="Group_103" transform="translate(0.317 47.513)">
				<path id="Path_196" class="st5" d="M-381.7-172.6c0.3,0,0.6-0.3,0.6-0.6c0-0.3-0.3-0.6-0.6-0.6c-0.3,0-0.6,0.3-0.6,0.6
					C-382.3-172.9-382-172.6-381.7-172.6L-381.7-172.6z"/>
			</g>
			<g id="Group_104" transform="translate(113.081 35.16)">
				<path id="Path_197" class="st5" d="M-381.7-172.6c0.3,0,0.6-0.3,0.6-0.6c0-0.3-0.3-0.6-0.6-0.6s-0.6,0.3-0.6,0.6
					C-382.3-172.9-382-172.6-381.7-172.6z"/>
			</g>
			<g id="Group_105" transform="translate(107.063 13.621)">
				<path id="Path_198" class="st5" d="M-381.7-172.6c0.3,0,0.6-0.3,0.6-0.6c0-0.3-0.3-0.6-0.6-0.6s-0.6,0.3-0.6,0.6
					C-382.3-172.9-382-172.6-381.7-172.6L-381.7-172.6z"/>
			</g>
			<g id="Group_106" transform="translate(98.827 103.262)">
				<path id="Path_199" class="st5" d="M-381.7-172.6c0.3,0,0.6-0.3,0.6-0.6c0-0.3-0.3-0.6-0.6-0.6s-0.6,0.3-0.6,0.6
					C-382.3-172.9-382-172.6-381.7-172.6z"/>
			</g>
			<g id="Group_107" transform="translate(61.767 80.772)">
				<path id="Path_200" class="st5" d="M-381.7-172.6c0.3,0,0.6-0.3,0.6-0.6c0-0.3-0.3-0.6-0.6-0.6s-0.6,0.3-0.6,0.6
					C-382.3-172.9-382-172.6-381.7-172.6z"/>
			</g>
			<g id="Group_108" transform="translate(50.681 60.817)">
				<path id="Path_201" class="st5" d="M-381.7-172.6c0.3,0,0.6-0.3,0.6-0.6c0-0.3-0.3-0.6-0.6-0.6s-0.6,0.3-0.6,0.6
					C-382.3-172.9-382-172.6-381.7-172.6z"/>
			</g>
			<g id="Group_109" transform="translate(220.777 6.018)">
				<path id="Path_202" class="st5" d="M-381.7-172.6c0.3,0,0.6-0.3,0.6-0.6c0-0.3-0.3-0.6-0.6-0.6s-0.6,0.3-0.6,0.6
					C-382.3-172.9-382-172.6-381.7-172.6L-381.7-172.6z"/>
			</g>
			<g id="Group_110" transform="translate(207.474 122.584)">
				<path id="Path_203" class="st5" d="M-381.7-172.6c0.3,0,0.6-0.3,0.6-0.6c0-0.3-0.3-0.6-0.6-0.6s-0.6,0.3-0.6,0.6
					C-382.3-172.9-382-172.6-381.7-172.6z"/>
			</g>
			<g id="Group_111" transform="translate(142.222 132.403)">
				<path id="Path_204" class="st5" d="M-381.7-172.6c0.3,0,0.6-0.3,0.6-0.6c0-0.3-0.3-0.6-0.6-0.6c-0.3,0-0.6,0.3-0.6,0.6
					C-382.3-172.9-382-172.6-381.7-172.6z"/>
			</g>
			<g id="Group_112" transform="translate(86.145 31.041)">
				<path id="Path_205" class="st6" d="M-382-173.3c0.2,0,0.3-0.1,0.3-0.3c0-0.2-0.1-0.3-0.3-0.3c-0.2,0-0.3,0.1-0.3,0.3
					C-382.3-173.4-382.2-173.3-382-173.3z"/>
			</g>
			<g id="Group_113" transform="translate(116.237 78.238)">
				<path id="Path_206" class="st6" d="M-382-173.3c0.2,0,0.3-0.1,0.3-0.3c0-0.2-0.1-0.3-0.3-0.3c-0.2,0-0.3,0.1-0.3,0.3
					C-382.3-173.4-382.2-173.3-382-173.3z"/>
			</g>
			<g id="Group_114" transform="translate(195.109 25.023)">
				<path id="Path_207" class="st6" d="M-382-173.3c0.2,0,0.3-0.1,0.3-0.3s-0.1-0.3-0.3-0.3s-0.3,0.1-0.3,0.3
					S-382.2-173.3-382-173.3z"/>
			</g>
			<g id="Group_115" transform="translate(106.101 52.58)">
				<path id="Path_208" class="st6" d="M-381.7-173.9h-0.3c-0.2,0-0.3,0.2-0.3,0.3c0,0.2,0.1,0.3,0.3,0.3h0.3c0.2,0,0.3-0.2,0.3-0.3
					C-381.4-173.8-381.5-173.9-381.7-173.9z"/>
			</g>
			<g id="Group_116" transform="translate(29.13 34.843)">
				<path id="Path_209" class="st6" d="M-382-173.3c0.2,0,0.3-0.1,0.3-0.3c0-0.2-0.1-0.3-0.3-0.3c-0.2,0-0.3,0.1-0.3,0.3
					C-382.3-173.4-382.2-173.3-382-173.3z"/>
			</g>
			<g id="Group_117" transform="translate(56.687 11.086)">
				<path id="Path_210" class="st6" d="M-382-173.3c0.2,0,0.3-0.1,0.3-0.3c0-0.2-0.1-0.3-0.3-0.3c-0.2,0-0.3,0.1-0.3,0.3
					C-382.3-173.4-382.2-173.3-382-173.3z"/>
			</g>
			<g id="Group_118" transform="translate(50.669 86.473)">
				<path id="Path_211" class="st6" d="M-382-173.3c0.2,0,0.3-0.1,0.3-0.3c0-0.2-0.1-0.3-0.3-0.3c-0.2,0-0.3,0.1-0.3,0.3
					C-382.3-173.4-382.2-173.3-382-173.3z"/>
			</g>
			<g id="Group_119" transform="translate(162.483 97.876)">
				<path id="Path_212" class="st6" d="M-382-173.3c0.2,0,0.3-0.1,0.3-0.3c0-0.2-0.1-0.3-0.3-0.3c-0.2,0-0.3,0.1-0.3,0.3
					C-382.3-173.4-382.2-173.3-382-173.3z"/>
			</g>
			<g id="Group_120" transform="translate(123.839 10.453)">
				<path id="Path_213" class="st6" d="M-382-173.3c0.2,0,0.3-0.1,0.3-0.3c0-0.2-0.1-0.3-0.3-0.3c-0.2,0-0.3,0.1-0.3,0.3
					C-382.3-173.4-382.2-173.3-382-173.3z"/>
			</g>
			<g id="Group_121" transform="translate(142.528 24.073)">
				<path id="Path_214" class="st6" d="M-382-173.3c0.2,0,0.3-0.1,0.3-0.3c0-0.2-0.1-0.3-0.3-0.3c-0.2,0-0.3,0.1-0.3,0.3
					C-382.3-173.4-382.2-173.3-382-173.3z"/>
			</g>
			<g id="Group_122" transform="translate(218.865 41.494)">
				<path id="Path_215" class="st6" d="M-382-173.3c0.2,0,0.3-0.1,0.3-0.3c0-0.2-0.1-0.3-0.3-0.3c-0.2,0-0.3,0.1-0.3,0.3
					C-382.3-173.4-382.2-173.3-382-173.3z"/>
			</g>
			<g id="Group_123" transform="translate(235.019 85.206)">
				<path id="Path_216" class="st6" d="M-382-173.3c0.2,0,0.3-0.1,0.3-0.3c0-0.2-0.1-0.3-0.3-0.3c-0.2,0-0.3,0.1-0.3,0.3
					C-382.3-173.4-382.2-173.3-382-173.3z"/>
			</g>
			<g id="Group_124" transform="translate(192.258 79.821)">
				<path id="Path_217" class="st6" d="M-382-173.3c0.2,0,0.3-0.1,0.3-0.3s-0.1-0.3-0.3-0.3l0,0c-0.2,0-0.3,0.1-0.3,0.3
					S-382.2-173.3-382-173.3z"/>
			</g>
			<g id="Group_125" transform="translate(217.598 120.049)">
				<path id="Path_218" class="st6" d="M-382-173.3c0.2,0,0.3-0.1,0.3-0.3c0-0.2-0.1-0.3-0.3-0.3c-0.2,0-0.3,0.1-0.3,0.3
					C-382.3-173.4-382.2-173.3-382-173.3z"/>
			</g>
			<g id="Group_126" transform="translate(152.98 67.784)">
				<path id="Path_219" class="st6" d="M-382-173.3c0.2,0,0.3-0.1,0.3-0.3s-0.1-0.3-0.3-0.3s-0.3,0.1-0.3,0.3
					S-382.2-173.3-382-173.3z"/>
			</g>
			<g id="Group_127" transform="translate(142.528 87.107)">
				<path id="Path_220" class="st6" d="M-382-173.3c0.2,0,0.3-0.1,0.3-0.3c0-0.2-0.1-0.3-0.3-0.3c-0.2,0-0.3,0.1-0.3,0.3
					C-382.3-173.4-382.2-173.3-382-173.3z"/>
			</g>
			<g id="Group_128" transform="translate(136.509 56.065)">
				<path id="Path_221" class="st6" d="M-382-173.3c0.2,0,0.3-0.1,0.3-0.3c0-0.2-0.1-0.3-0.3-0.3c-0.2,0-0.3,0.1-0.3,0.3
					C-382.3-173.4-382.2-173.3-382-173.3z"/>
			</g>
			<g id="Group_129" transform="translate(173.886 47.513)">
				<path id="Path_222" class="st6" d="M-382-173.3c0.2,0,0.3-0.1,0.3-0.3c0-0.2-0.1-0.3-0.3-0.3c-0.2,0-0.3,0.1-0.3,0.3
					C-382.3-173.4-382.2-173.3-382-173.3z"/>
			</g>
			<g id="Group_130" transform="translate(166.918 75.07)">
				<path id="Path_223" class="st6" d="M-382-173.3c0.2,0,0.3-0.1,0.3-0.3c0-0.2-0.1-0.3-0.3-0.3c-0.2,0-0.3,0.1-0.3,0.3
					C-382.3-173.4-382.2-173.3-382-173.3z"/>
			</g>
			<g id="Group_131" transform="translate(138.41 54.798)">
				<path id="Path_224" class="st6" d="M-382-173.3c0.2,0,0.3-0.1,0.3-0.3c0-0.2-0.1-0.3-0.3-0.3c-0.2,0-0.3,0.1-0.3,0.3
					C-382.3-173.4-382.2-173.3-382-173.3z"/>
			</g>
			<g id="Group_132" transform="translate(137.459 32.942)">
				<path id="Path_225" class="st6" d="M-382-173.3c0.2,0,0.3-0.1,0.3-0.3c0-0.2-0.1-0.3-0.3-0.3c-0.2,0-0.3,0.1-0.3,0.3
					C-382.3-173.4-382.2-173.3-382-173.3z"/>
			</g>
			<g id="Group_133" transform="translate(121.622 38.01)">
				<path id="Path_226" class="st6" d="M-382-173.3c0.2,0,0.3-0.1,0.3-0.3c0-0.2-0.1-0.3-0.3-0.3c-0.2,0-0.3,0.1-0.3,0.3
					C-382.3-173.4-382.2-173.3-382-173.3z"/>
			</g>
			<g id="Group_134" transform="translate(94.698 69.685)">
				<path id="Path_227" class="st6" d="M-382-173.3c0.2,0,0.3-0.1,0.3-0.3c0-0.2-0.1-0.3-0.3-0.3c-0.2,0-0.3,0.1-0.3,0.3
					C-382.3-173.4-382.2-173.3-382-173.3z"/>
			</g>
			<g id="Group_135" transform="translate(10.758 54.798)">
				<path id="Path_228" class="st6" d="M-382-173.3c0.2,0,0.3-0.1,0.3-0.3c0-0.2-0.1-0.3-0.3-0.3c-0.2,0-0.3,0.1-0.3,0.3
					C-382.3-173.4-382.2-173.3-382-173.3z"/>
			</g>
			<g id="Group_136" transform="translate(63.022 22.172)">
				<path id="Path_229" class="st6" d="M-382-173.3c0.2,0,0.3-0.2,0.3-0.3c0-0.2-0.1-0.3-0.3-0.3c-0.2,0-0.3,0.2-0.3,0.3
					C-382.3-173.4-382.1-173.3-382-173.3z"/>
			</g>
			<g id="Group_137" transform="translate(57.638 35.793)">
				<path id="Path_230" class="st6" d="M-382-173.3c0.2,0,0.3-0.1,0.3-0.3c0-0.2-0.1-0.3-0.3-0.3c-0.2,0-0.3,0.1-0.3,0.3
					C-382.3-173.4-382.2-173.3-382-173.3z"/>
			</g>
			<g id="Group_138" transform="translate(47.185 33.575)">
				<path id="Path_231" class="st6" d="M-382-173.3c0.2,0,0.3-0.1,0.3-0.3c0-0.2-0.1-0.3-0.3-0.3c-0.2,0-0.3,0.1-0.3,0.3
					C-382.3-173.4-382.2-173.3-382-173.3z"/>
			</g>
			<g id="Group_139" transform="translate(49.402 44.345)">
				<path id="Path_232" class="st6" d="M-382-173.3c0.2,0,0.3-0.1,0.3-0.3c0-0.2-0.1-0.3-0.3-0.3c-0.2,0-0.3,0.1-0.3,0.3
					C-382.3-173.4-382.2-173.3-382-173.3z"/>
			</g>
			<g id="Group_140" transform="translate(109.902 39.91)">
				<path id="Path_233" class="st6" d="M-382-173.3c0.2,0,0.3-0.1,0.3-0.3c0-0.2-0.1-0.3-0.3-0.3c-0.2,0-0.3,0.1-0.3,0.3
					C-382.3-173.4-382.2-173.3-382-173.3z"/>
			</g>
			<g id="Group_141" transform="translate(175.153 30.408)">
				<path id="Path_234" class="st6" d="M-382-173.3c0.2,0,0.3-0.1,0.3-0.3c0-0.2-0.1-0.3-0.3-0.3c-0.2,0-0.3,0.1-0.3,0.3
					C-382.3-173.4-382.2-173.3-382-173.3z"/>
			</g>
			<g id="Group_142" transform="translate(164.067 57.015)">
				<path id="Path_235" class="st6" d="M-382-173.3c0.2,0,0.3-0.1,0.3-0.3c0-0.2-0.1-0.3-0.3-0.3c-0.2,0-0.3,0.1-0.3,0.3
					C-382.3-173.4-382.2-173.3-382-173.3z"/>
			</g>
			<g id="Group_143" transform="translate(127.957 73.803)">
				<path id="Path_236" class="st6" d="M-382-173.3c0.2,0,0.3-0.2,0.3-0.3c0-0.2-0.1-0.3-0.3-0.3c-0.2,0-0.3,0.2-0.3,0.3
					C-382.3-173.4-382.1-173.3-382-173.3z"/>
			</g>
			<g id="Group_144" transform="translate(106.101 70.002)">
				<path id="Path_237" class="st6" d="M-382-173.3c0.2,0,0.3-0.1,0.3-0.3c0-0.2-0.1-0.3-0.3-0.3c-0.2,0-0.3,0.1-0.3,0.3
					C-382.3-173.4-382.2-173.3-382-173.3z"/>
			</g>
			<g id="Group_145" transform="translate(99.766 45.295)">
				<path id="Path_238" class="st6" d="M-382-173.3c0.2,0,0.3-0.1,0.3-0.3c0-0.2-0.1-0.3-0.3-0.3c-0.2,0-0.3,0.1-0.3,0.3
					C-382.3-173.4-382.2-173.3-382-173.3z"/>
			</g>
			<g id="Group_146" transform="translate(206.829 104.211)">
				<path id="Path_239" class="st6" d="M-382-173.3c0.2,0,0.3-0.2,0.3-0.3c0-0.2-0.1-0.3-0.3-0.3c-0.2,0-0.3,0.2-0.3,0.3
					C-382.3-173.4-382.1-173.3-382-173.3z"/>
			</g>
			<g id="Group_147" transform="translate(81.394 106.745)">
				<path id="Path_240" class="st6" d="M-382-173.3c0.2,0,0.3-0.1,0.3-0.3c0-0.2-0.1-0.3-0.3-0.3c-0.2,0-0.3,0.1-0.3,0.3
					C-382.3-173.4-382.2-173.3-382-173.3z"/>
			</g>
			<g id="Group_148" transform="translate(66.19 91.541)">
				<path id="Path_241" class="st6" d="M-382-173.3c0.2,0,0.3-0.1,0.3-0.3c0-0.2-0.1-0.3-0.3-0.3c-0.2,0-0.3,0.1-0.3,0.3
					C-382.3-173.4-382.2-173.3-382-173.3z"/>
			</g>
			<g id="Group_149" transform="translate(28.496 20.588)">
				<path id="Path_242" class="st6" d="M-382-173.3c0.2,0,0.3-0.1,0.3-0.3c0-0.2-0.1-0.3-0.3-0.3c-0.2,0-0.3,0.1-0.3,0.3
					C-382.3-173.4-382.2-173.3-382-173.3z"/>
			</g>
			<g id="Group_150" transform="translate(57.321 7.285)">
				<path id="Path_243" class="st6" d="M-382-173.3c0.2,0,0.3-0.1,0.3-0.3c0-0.2-0.1-0.3-0.3-0.3c-0.2,0-0.3,0.1-0.3,0.3
					C-382.3-173.4-382.2-173.3-382-173.3z"/>
			</g>
			<g id="Group_151" transform="translate(38.316 36.109)">
				<path id="Path_244" class="st6" d="M-382-173.3c0.2,0,0.3-0.1,0.3-0.3c0-0.2-0.1-0.3-0.3-0.3c-0.2,0-0.3,0.1-0.3,0.3
					C-382.3-173.4-382.2-173.3-382-173.3z"/>
			</g>
			<g id="Group_152" transform="translate(4.106 17.421)">
				<path id="Path_245" class="st6" d="M-382-173.3c0.2,0,0.3-0.1,0.3-0.3c0-0.2-0.1-0.3-0.3-0.3c-0.2,0-0.3,0.1-0.3,0.3
					C-382.3-173.4-382.2-173.3-382-173.3z"/>
			</g>
			<g id="Group_153" transform="translate(25.012 36.743)">
				<path id="Path_246" class="st6" d="M-382-173.3c0.2,0,0.3-0.1,0.3-0.3c0-0.2-0.1-0.3-0.3-0.3c-0.2,0-0.3,0.1-0.3,0.3
					C-382.3-173.4-382.2-173.3-382-173.3z"/>
			</g>
			<g id="Group_154" transform="translate(5.373 26.923)">
				<path id="Path_247" class="st6" d="M-382-173.3c0.2,0,0.3-0.1,0.3-0.3c0-0.2-0.1-0.3-0.3-0.3c-0.2,0-0.3,0.1-0.3,0.3
					C-382.3-173.4-382.2-173.3-382-173.3z"/>
			</g>
			<g id="Group_155" transform="translate(37.682 5.068)">
				<path id="Path_248" class="st6" d="M-382-173.3c0.2,0,0.3-0.1,0.3-0.3c0-0.2-0.1-0.3-0.3-0.3c-0.2,0-0.3,0.1-0.3,0.3
					C-382.3-173.4-382.2-173.3-382-173.3z"/>
			</g>
			<g id="Group_156" transform="translate(107.051 4.434)">
				<path id="Path_249" class="st6" d="M-382-173.3c0.2,0,0.3-0.1,0.3-0.3c0-0.2-0.1-0.3-0.3-0.3c-0.2,0-0.3,0.1-0.3,0.3
					C-382.3-173.4-382.2-173.3-382-173.3z"/>
			</g>
			<g id="Group_157" transform="translate(237.87 23.439)">
				<path id="Path_250" class="st6" d="M-382-173.3c0.2,0,0.3-0.1,0.3-0.3c0-0.2-0.1-0.3-0.3-0.3c-0.2,0-0.3,0.1-0.3,0.3
					C-382.3-173.4-382.2-173.3-382-173.3z"/>
			</g>
			<g id="Group_158" transform="translate(187.506 3.483)">
				<path id="Path_251" class="st6" d="M-382-173.3c0.2,0,0.3-0.1,0.3-0.3c0-0.2-0.1-0.3-0.3-0.3c-0.2,0-0.3,0.1-0.3,0.3
					C-382.3-173.4-382.2-173.3-382-173.3z"/>
			</g>
			<g id="Group_159" transform="translate(201.127 2.217)">
				<path id="Path_252" class="st6" d="M-382-173.3c0.2,0,0.3-0.1,0.3-0.3c0-0.2-0.1-0.3-0.3-0.3c-0.2,0-0.3,0.1-0.3,0.3
					C-382.3-173.4-382.2-173.3-382-173.3z"/>
			</g>
			<g id="Group_160" transform="translate(228.051 48.463)">
				<path id="Path_253" class="st6" d="M-382-173.3c0.2,0,0.3-0.1,0.3-0.3c0-0.2-0.1-0.3-0.3-0.3c-0.2,0-0.3,0.1-0.3,0.3
					C-382.3-173.4-382.2-173.3-382-173.3z"/>
			</g>
			<g id="Group_161" transform="translate(237.237 100.727)">
				<path id="Path_254" class="st6" d="M-382-173.3c0.2,0,0.3-0.1,0.3-0.3c0-0.2-0.1-0.3-0.3-0.3c-0.2,0-0.3,0.1-0.3,0.3
					C-382.3-173.4-382.2-173.3-382-173.3z"/>
			</g>
			<g id="Group_162" transform="translate(200.81 63.35)">
				<path id="Path_255" class="st6" d="M-382-173.3c0.2,0,0.3-0.1,0.3-0.3c0-0.2-0.1-0.3-0.3-0.3c-0.2,0-0.3,0.1-0.3,0.3
					C-382.3-173.4-382.2-173.3-382-173.3z"/>
			</g>
			<g id="Group_163" transform="translate(214.114 62.717)">
				<path id="Path_256" class="st6" d="M-382-173.3c0.2,0,0.3-0.1,0.3-0.3c0-0.2-0.1-0.3-0.3-0.3c-0.2,0-0.3,0.1-0.3,0.3
					C-382.3-173.4-382.2-173.3-382-173.3z"/>
			</g>
			<g id="Group_164" transform="translate(219.499 89.324)">
				<path id="Path_257" class="st6" d="M-382-173.3c0.2,0,0.3-0.1,0.3-0.3c0-0.2-0.1-0.3-0.3-0.3c-0.2,0-0.3,0.1-0.3,0.3
					C-382.3-173.4-382.2-173.3-382-173.3z"/>
			</g>
			<g id="Group_165" transform="translate(243.749 0.132)">
				<path id="Path_258" class="st4" d="M-381.1-171.4c0.7,0,1.2-0.6,1.2-1.3c0-0.7-0.6-1.2-1.2-1.2c-0.7,0-1.2,0.6-1.2,1.3
					C-382.3-171.9-381.7-171.4-381.1-171.4z"/>
			</g>
			<g id="Group_166" transform="translate(217.371 61.218)">
				<path id="Path_259" class="st4" d="M-381.1-171.4c0.7,0,1.2-0.6,1.2-1.3c0-0.7-0.6-1.2-1.2-1.2c-0.7,0-1.2,0.6-1.2,1.3
					C-382.3-171.9-381.7-171.4-381.1-171.4z"/>
			</g>
			<g id="Group_167" transform="translate(221.258 112.307)">
				<path id="Path_260" class="st4" d="M-381.1-171.4c0.7,0,1.2-0.6,1.2-1.3c0-0.7-0.6-1.2-1.2-1.2c-0.7,0-1.2,0.6-1.2,1.3
					C-382.3-171.9-381.7-171.4-381.1-171.4z"/>
			</g>
			<g id="Group_168" transform="translate(220.981 87.04)">
				<path id="Path_261" class="st4" d="M-381.1-171.4c0.7,0,1.2-0.6,1.2-1.3c0-0.7-0.6-1.2-1.2-1.2c-0.7,0-1.2,0.6-1.2,1.3
					C-382.3-171.9-381.7-171.4-381.1-171.4z"/>
			</g>
			<g id="Group_169" transform="translate(1.35 71.491)">
				<path id="Path_262" class="st4" d="M-381.1-171.4c0.7,0,1.2-0.6,1.2-1.3c0-0.7-0.6-1.2-1.2-1.2c-0.7,0-1.2,0.6-1.2,1.3
					C-382.3-171.9-381.7-171.4-381.1-171.4z"/>
			</g>
			<g id="Group_170" transform="translate(127.964 24.011)">
				<path id="Path_263" class="st4" d="M-381.1-171.4c0.7,0,1.2-0.6,1.2-1.3c0-0.7-0.6-1.2-1.2-1.2c-0.7,0-1.2,0.6-1.2,1.3
					C-382.3-171.9-381.7-171.4-381.1-171.4z"/>
			</g>
		</g>
		<g id="Group_172" transform="translate(248.666 304.05)">
			<path id="Path_264" class="st7" d="M-138.6-171.4c-4.5-1.4-34.4-0.2-37.2,0s-6.1,0.7-7.6,0c-0.9-0.4-8.7-0.9-11.3-0.9
				c-1.8,0-3.6,0.3-8.7,0.5c-3,0.1-6.3-0.7-8.8-0.4c-2.6,0.4-3.9-0.6-6-0.7c-2,0-8.3-0.7-11.2-0.7s-8.1,0.3-12.2,0.3
				s-9.1-0.6-11.4-0.6s-6.8,0-9,0s-7.6,0.9-9.5,0.6s-5.7,0.5-8.9-0.1s-11.8,0.3-17.2,0s-9.4-0.2-17.4-0.2s-15.8-0.8-20.6,0.2
				s-5.5,0.7-9.7,0.7s-30.6-2.9-35,7.3c-1.5,3.6-1.3,10.4-1.8,15.5c-0.5,5.1,1.8,20.7,0.5,27.4s0,22.3,0.5,28.3c0.5,6,0,15.3,0,21
				c0,5.7,1.5,32.8,0.7,35.9c-0.6,2.2,0.1,28.6,0,32.5c-0.3,9.3,15.9,8.3,20,9s16.5,0.3,19.4,0s45.2-0.4,48,0s27.4-1.3,29.6-1.3
				s21.4,0.1,28.1,0.4s15.1,0.2,19.3-0.5s10.8,0.1,14,0s18.8-0.4,24.2-1.1s11.7-0.4,13.4-0.5c4.2-0.2,25.3-0.5,32-1.7
				s5.4-5.3,6.2-7.5c0.7-1.9,0.5-13.3,0.5-17.2c0.1-4,0.4-26.1,0.4-30.2s1.5-7.3,0.9-10.8s0.1-17.8,0-21.6
				c-0.1-3.8,0.6-9.5,0.6-13.7c0-3.8-0.7-11.8,0-16.6c0.6-5.2,0.7-10.4,0.3-15.7c-0.3-1.6,0.4-12.3,0.7-15.2s-0.5-14.3-2.1-17.2
				S-134.2-170-138.6-171.4z M-138.9-153.1c-0.8-0.1-1.6-0.1-2.4-0.1c-0.3,0-0.5,0-0.8,0c-2,0-4.2,0-6.2,0.1c2-0.1,4.3-0.1,6.2-0.1
				c0.3,0,0.5,0,0.8,0C-140.5-153.2-139.7-153.2-138.9-153.1L-138.9-153.1z M-140.4-155.5c-0.3,0-0.5,0-0.8,0c-2.4,0-4.7,0-7.1,0.1
				c2.4-0.1,4.7-0.1,7.1-0.1C-141-155.5-140.7-155.5-140.4-155.5c0.5,0,1,0.1,1.5,0.1C-139.4-155.4-139.9-155.4-140.4-155.5
				L-140.4-155.5z M-148.4-157.7c2.3-0.1,4.6-0.1,6.9,0.1c0.4,0,0.8,0.1,1.3,0.1c0.4,0,0.8,0,1.2,0c-0.4,0-0.8,0-1.2,0
				c-0.4,0-0.8,0-1.3-0.1C-143.7-157.8-146-157.8-148.4-157.7L-148.4-157.7z M-146.8-160.1c-0.5,0-1.1,0-1.6,0c2,0,3.8,0,5.9,0
				l1.1,0c0.4,0,0.9,0,1.3,0s0.8,0,1.2,0c-0.4,0-0.8,0-1.2,0s-0.8,0-1.3,0l-1.1,0C-144-160.1-145.4-160.1-146.8-160.1 M-166.4-158.9
				c0.1-0.3,0.4-0.5,0.7-0.6l2.9-0.4c0.1,0,0.2-0.1,0.3-0.2l1.3-2.6c0.2-0.4,0.7-0.6,1.1-0.4c0.2,0.1,0.3,0.2,0.4,0.4l1.3,2.6
				c0.1,0.1,0.2,0.2,0.3,0.2l2.9,0.4c0.5,0.1,0.8,0.5,0.7,1c0,0.2-0.1,0.4-0.2,0.5l-2.1,2c-0.1,0.1-0.1,0.2-0.1,0.3l0.5,2.9
				c0.1,0.5-0.2,0.9-0.7,1c-0.2,0-0.4,0-0.5-0.1l-2.6-1.4c-0.1-0.1-0.2-0.1-0.4,0l-2.6,1.4c-0.4,0.2-0.9,0.1-1.1-0.4
				c-0.1-0.2-0.1-0.4-0.1-0.5l0.5-2.9c0-0.1,0-0.2-0.1-0.3l-2.1-2C-166.4-158.3-166.5-158.6-166.4-158.9L-166.4-158.9z
				 M-183.4-158.7c0.1-0.4,0.2-0.7,0.3-1.1c1.4-3.1,6-4.5,8.7-2.6c1,1,1.8,2.3,2.2,3.7c0.2,1.1,0.1,2.2-0.3,3.3
				c-0.2,0.5-0.4,0.9-0.8,1.3c-0.2,0.3-0.2,0.7,0.1,1l0.5,0.5c0.2,0.1,0.2,0.3,0.1,0.5c-0.1,0.2-0.2,0.3-0.4,0.3h-3.4
				c-0.3,0-0.5-0.2-0.5-0.5v-1.7c0-0.4,0-0.8,0-1.2c0.1-0.3,0.2-0.6,0.2-0.9c0.5-0.5,0.9,0.5,1.3,0.7c0.2,0.2,0.5,0.2,0.6,0
				c0,0,0,0,0-0.1c0.2-0.3,0.4-0.7,0.5-1c0.6-1.3,0.3-2.8-0.7-3.7c-1.5-1.6-4-1.6-5.6-0.1c-0.9,0.9-1.4,2.2-1.1,3.5
				c0.2,0.9,0.7,1.6,1.4,2.2c0.1,0,0.1,0.1,0.1,0.2c0,0.1,0,0.1-0.1,0.2l-1,1c0,0-0.1,0.1-0.2,0.1c-0.1,0-0.1,0-0.2-0.1
				c-0.7-0.5-1.2-1.2-1.5-2C-183.5-156.2-183.6-157.5-183.4-158.7L-183.4-158.7z M-302.5-163.3c0.9-2,14.7-0.7,17.1-0.6
				c2.7,0.1,11.6-1,13.5-0.5s9.2,0.1,11.6,0s11.1,0.6,14.6,0.6s10,0.4,12.6,0c3-0.3,5.9-0.3,8.9,0c1.4,0.1,8.4-0.3,9.7,0
				s3.2-0.5,6.2,0s6-0.5,6.4,3.3s0.1,8.8-2.3,9s-9.2,0.1-12.9,0.3s-12.1-0.3-15.2-0.5s-17.8,0.1-19.1,0.3s-15.3,0.4-19.9,0.1
				s-10.7-0.6-12.5-0.4c-3.9,0.4-7.9,0.5-11.8,0.4c-2-0.2-5.7,0.5-6.3-0.9C-302.8-154.1-302.5-163.3-302.5-163.3L-302.5-163.3z
				 M-339.1-162.5c1.8-0.7,4.2-0.7,5.3,1.3c0.3,0.3,0.5,0.6,0.7,1c1,0.9,1,2.3,0.6,3.7c-0.6,1.8-2.1,3.1-3.9,3.5
				c-1.9,0.3-3.8-0.5-4.9-2.1C-343.4-157.9-342.3-161.8-339.1-162.5L-339.1-162.5z M-346.8-161.1c0.2,0.3,0.5,0.6,0.6,0.9
				c1.7,3.4-1.1,7.3-5,7.3c-2.6-0.5-4.5-2.7-4.6-5.3C-355.4-162.1-349.4-164.9-346.8-161.1L-346.8-161.1z M-366.3-161.7
				c2.5-1.8,6-1.4,7.5,1.3c0.2,0.4,0.4,0.8,0.6,1.2c0.6,2.4-0.6,4.9-2.8,5.9c-2.5,0.7-4.6-0.4-6.4-2.1
				C-368.6-157.4-368.2-160.1-366.3-161.7L-366.3-161.7z M-139.2-109.2c-0.8,2.9-2,25.6-1,32.4s0.2,56.4-1.4,58.6s-6,3.4-18,2.7
				c-12.5-0.7-48,2.7-56.6,0.9s-38.4,1.8-42.9,1.3c-4.5-0.5-9.1-0.5-13.7,0.1c-5.1,0.6-54.8,2.6-60.7,1.8s-15.9-0.4-21.2-0.7
				s-10.8,0.9-11.8-2.8c0,0,0.2-26.9,0.2-31.8c-0.1-5.6-0.6-11.2-1.6-16.8c-0.8-3.9-0.2-13.7,0-16.2s-1.4-28.1-1.2-31.1
				c0.3-3.2-0.1-6.3,0.3-8s0.1-15.4-0.1-16.1s0.1-7.1,1.4-7.6c2.7-1.1,62.8-1.6,72.8,0s53.7-0.5,56.2-0.5s51.7,0.3,61.1-0.5
				s34.4-1.7,37.1,0S-138.4-112.2-139.2-109.2L-139.2-109.2z"/>
			<path id="Path_265" class="st8" d="M-295.7-151.4c4,0.1,7.9,0,11.8-0.4c1.8-0.2,7.9,0.1,12.5,0.4s18.6,0,19.9-0.1
				s16-0.5,19.1-0.3s11.5,0.6,15.2,0.5s10.5,0,12.9-0.3s2.7-5.2,2.3-9s-3.3-2.8-6.4-3.3s-5,0.3-6.2,0s-8.3,0.1-9.7,0
				c-3-0.3-5.9-0.3-8.9,0c-2.5,0.4-9.1,0-12.6,0s-12.1-0.7-14.6-0.6s-9.7,0.5-11.6,0s-10.8,0.5-13.5,0.5c-2.3-0.1-16.2-1.4-17.1,0.6
				c0,0-0.4,9.2,0.4,11C-301.4-150.9-297.8-151.6-295.7-151.4z"/>
			<path id="Path_266" class="st9" d="M-361-153.2c2.2-1.1,3.4-3.6,2.8-5.9c-0.1-0.4-0.3-0.8-0.6-1.2c-1.5-2.7-5.1-3.1-7.5-1.3
				c-1.9,1.6-2.3,4.3-1.1,6.4C-365.6-153.6-363.5-152.5-361-153.2z"/>
			<path id="Path_267" class="st10" d="M-351.1-152.9c3.9,0,6.7-3.9,5-7.3c-0.2-0.3-0.4-0.7-0.6-0.9c-2.6-3.8-8.6-0.9-8.9,2.9
				C-355.6-155.6-353.7-153.4-351.1-152.9z"/>
			<path id="Path_268" class="st11" d="M-336.3-152.9c1.8-0.5,3.3-1.8,3.9-3.5c0.4-1.4,0.4-2.8-0.6-3.7c-0.2-0.4-0.4-0.7-0.7-1
				c-1.1-2-3.6-2-5.3-1.3c-3.2,0.7-4.2,4.6-2.1,7.4C-340.1-153.5-338.2-152.6-336.3-152.9z"/>
			<path id="Path_269" class="st7" d="M-181.4-153.1c0,0,0.1,0.1,0.2,0.1c0.1,0,0.1,0,0.2-0.1l1-1c0-0.1,0.1-0.1,0.1-0.2
				c0-0.1,0-0.1-0.1-0.2c-0.7-0.5-1.2-1.3-1.4-2.2c-0.4-2.2,1.1-4.2,3.2-4.6c1.3-0.2,2.6,0.2,3.5,1.1c1,1,1.3,2.5,0.7,3.7
				c-0.1,0.4-0.3,0.7-0.5,1c-0.1,0.2-0.4,0.2-0.6,0.1c0,0,0,0-0.1,0c-0.4-0.3-0.9-1.2-1.3-0.7c0,0.3-0.1,0.6-0.2,0.9
				c0,0.3,0,0.7,0,1.2v1.7c0,0.3,0.2,0.5,0.5,0.5h3.4c0.2,0,0.4-0.1,0.4-0.3c0.1-0.2,0-0.4-0.1-0.5l-0.5-0.5c-0.3-0.3-0.3-0.7-0.1-1
				c0.3-0.4,0.6-0.9,0.8-1.3c0.4-1,0.5-2.2,0.3-3.3c-0.4-1.4-1.2-2.7-2.2-3.7c-2.7-1.8-7.3-0.5-8.7,2.6c-0.2,0.3-0.3,0.7-0.3,1.1
				c-0.2,1.2-0.1,2.5,0.4,3.6C-182.6-154.3-182.1-153.6-181.4-153.1z"/>
			<path id="Path_270" class="st12" d="M-164.1-156c0.1,0.1,0.1,0.2,0.1,0.3l-0.5,2.9c-0.1,0.5,0.2,0.9,0.7,1c0.2,0,0.4,0,0.5-0.1
				l2.6-1.4c0.1-0.1,0.2-0.1,0.3,0l2.6,1.4c0.4,0.2,0.9,0.1,1.2-0.4c0.1-0.2,0.1-0.4,0.1-0.5l-0.5-2.9c0-0.1,0-0.2,0.1-0.3l2.1-2
				c0.3-0.3,0.3-0.9,0-1.2c-0.1-0.1-0.3-0.2-0.5-0.2l-2.9-0.4c-0.1,0-0.2-0.1-0.3-0.2l-1.3-2.6c-0.2-0.4-0.7-0.6-1.1-0.4
				c-0.2,0.1-0.3,0.2-0.4,0.4l-1.3,2.6c-0.1,0.1-0.2,0.2-0.3,0.2l-2.9,0.4c-0.5,0.1-0.8,0.5-0.7,1c0,0.2,0.1,0.4,0.2,0.5L-164.1-156
				z"/>
		</g>
	</g>
</g>
</svg>
