<svg xmlns="http://www.w3.org/2000/svg" width="545.569" height="478.839" viewBox="0 0 545.569 478.839">
  <g id="Group_189" data-name="Group 189" transform="translate(-367.291 -167.888)">
    <g id="Group_188" data-name="Group 188" transform="translate(-15.913)">
      <g id="Group_53" data-name="Group 53" transform="translate(353 168.378)">
        <path id="Path_147" data-name="Path 147" d="M366.233,238.521c-5.785-14.38-11.354-10.313-15.132-7.555-2.1,1.535-7.042,17.336-7.277,20.673-.527,7.5,1.094,10.932-1.093,30.062-2.174,19.027-2.884,44.042-2.892,44.31a40.215,40.215,0,0,0,3.984,8.16,40.215,40.215,0,0,1-3.984-8.16v0a59.378,59.378,0,0,1-3.667-20.808c0-18.037-.972-84.243-9.838-98.928-5.043-8.352,0-22.956-15.85-21.863s-10.931,49.737-12.571,66.134-1.977,65.574-1.977,65.576a8.557,8.557,0,0,0,2.736.408,8.557,8.557,0,0,1-2.736-.408h0a7.567,7.567,0,0,1-4.582-3.815c-7.862-15.2-1.093-97.835-3.279-113.685s-4.919-33.887-9.292-34.979-14.757-4.92-18.583,0-9.838,65.04-9.292,77.611c.532,12.225-2.172,62.737-9.861,71.038v0a4.841,4.841,0,0,1-.664.607,4.841,4.841,0,0,0,.664-.607c0-.124-.522-49.743,1.115-67.212,1.64-17.49,1.64-46.458,0-56.3s-3.826-12.024-9.838-10.385-26.781,38.26-28.968,95.648c-1.6,41.934-3.429,75.186-.643,92.391-1.475,4.535-15.964-.009-15.968,0a53.322,53.322,0,0,0,25.9,8.177,53.322,53.322,0,0,1-25.9-8.177h0c-.293-.186-.586-.373-.879-.568-13.117-8.744-37.107-38.436-52.181-41.071-14-2.447-29.232,12.135-24.842,15.782,6.882,5.717,35.394,41.434,41.475,60.238,2.066,6.388,24.923,55.127,38.282,67.259,32.781,29.767,29.579,60.575,34.98,96.741.467,3.132,15.3,23.5,67.773,21.316s61.215-20.224,61.215-20.224-.546-48.1,0-63.4,12.025-49.737,15.85-70.506c1.839-9.983,5.739-47.289,1.2-87.048C364.683,301.722,372.505,254.115,366.233,238.521ZM257.448,476.034s16.128,2.547,5.093-38.2-50.931-40.2-50.931-40.2,39.9-.543,50.931,40.2S257.448,476.034,257.448,476.034Zm37.624-64.206c-13.7,22.721,5.482,56.8,5.482,56.8s-19.18-34.082-5.482-56.8,41.483-27.591,41.483-27.591-16.229-4.057-26.779-5.68-25.967,0-43.374,0-23.008-12.118-23.008-12.118,5.6,12.118,23.008,12.118,32.825-1.623,43.374,0,26.779,5.68,26.779,5.68S308.77,389.107,295.072,411.829Z" transform="translate(-77.162 -161.193)" fill="#090a0a" stroke="#895da3" stroke-miterlimit="10" stroke-width="1.343"/>
      </g>
      <g id="Group_54" data-name="Group 54" transform="translate(664.545 170.351)">
        <path id="Path_148" data-name="Path 148" d="M682.194,345.14c-9.292-3.279-27.671-1.72-41.882,7.025-11.984,7.376-22.175,14.4-33.6,17.082l.019.015-.019-.015a42.686,42.686,0,0,1-6.506,1.035c-14.21,1.094-16.4.546-16.4.546s2.186.547,16.4-.546a42.686,42.686,0,0,0,6.506-1.035c-.2-.147-3.9-3.024-8.693-11.536-4.919-8.744,3.279-104.393,2.733-115.867s-9.838-48.1-13.664-55.3-9.292-6.462-14.758-6.41-6.559,11.426-8.2,47.5-4.269,67.279-4.269,67.279c-5.466-1.094-7.756-14.809-5.023-26.833s-1.639-68.32-1.639-79.251-2.433-18.442-5.485-23.166c-1.441-2.229-12.582-4.223-16.924,1.85-4.585,6.413-10.385,35.527-12.025,48.644-1.586,12.691,4.429,64.6-2.533,74.068h0a4.544,4.544,0,0,1-.747.811c-1.08.9-5.515,2.459-5.515,2.459s4.435-1.563,5.515-2.459a4.544,4.544,0,0,0,.747-.811c-4.371-7.652-4.026-22.692-5.263-36.355s-3.458-23.876-1.5-34.434c1.127-6.064,1.094-5.465,0-21.316s-1.093-19.676-3.826-22.409-6.559-3.279-11.477,0-10.932,32.247-14.211,49.737c-2.9,15.491-3.665,45.551-4.941,62.855v0c-.164,2.233-.336,4.263-.524,6.011-1.64,15.3-6.012,17.49-6.012,17.49s4.372-2.186,6.012-17.49c.187-1.749.36-3.779.524-6.011-2.062-3.487-3.416-15.007-3.223-18.69s-.388-13.186-.775-18.81,2.327-18.227,3.1-23.463-2.715-11.052-4.847-16.1-8.992,0-8.992,0c-3.279,6.559-7.652,6.559-12.571,37.712s3.827,49.191,0,61.215-11.75,66.134-11.34,80.892,4.068,56,11.948,65.04c8.5,9.752,11.929,15.3,11.929,19.311,0,16.4-1.605,77.431,4.407,85.629s18.036,27.329,63.4,22.956,62.854-23.5,62.854-23.5-13.117-58.482,2.733-88,9.838-25.688,20.769-32.794,25.935-32.415,44.818-49.127c16.495-14.6,40.445-25.2,40.445-25.2S691.485,348.419,682.194,345.14ZM498.72,455.257s9.405-14.631,5.748-35.532-27.694-43.892-27.694-43.892,24.036,22.991,27.694,43.892S498.72,455.257,498.72,455.257Zm24.559-101.37c-19.334-1.568-36.577,14.778-36.577,14.778s17.243-16.346,36.577-14.778,39.712,7.336,39.712,7.336S542.612,355.454,523.278,353.887Zm14.631,73.676c-12.019-30.307,30.114-43.37,30.114-43.37S525.89,397.256,537.909,427.563Z" transform="translate(-436.362 -163.468)" fill="#ffeccf" stroke="#895da3" stroke-miterlimit="10" stroke-width="1.343"/>
      </g>
    </g>
    <ellipse id="Ellipse_1" data-name="Ellipse 1" cx="152.438" cy="6.067" rx="152.438" ry="6.067" transform="translate(488 634.592)" fill="#e67f7f"/>
    <g id="Group_173" data-name="Group 173" transform="translate(261.334 7.172)">
      <rect id="Rectangle_2" data-name="Rectangle 2" width="242.211" height="141.237" transform="translate(253.947 326.702)" fill="#0c0f16"/>
      <g id="Group_171" data-name="Group 171" transform="translate(253.336 333.32)">
        <g id="Group_56" data-name="Group 56" transform="translate(52.604 21.858)">
          <path id="Path_149" data-name="Path 149" d="M326.572,375.033a1.264,1.264,0,0,0,0-2.527,1.264,1.264,0,0,0,0,2.527Z" transform="translate(-325.351 -372.506)" fill="#5569a8"/>
        </g>
        <g id="Group_57" data-name="Group 57" transform="translate(86.18 11.721)">
          <path id="Path_150" data-name="Path 150" d="M371.527,361.462a1.265,1.265,0,0,0,0-2.528,1.265,1.265,0,0,0,0,2.528Z" transform="translate(-370.306 -358.934)" fill="#5569a8"/>
        </g>
        <g id="Group_58" data-name="Group 58" transform="translate(67.808 42.763)">
          <path id="Path_151" data-name="Path 151" d="M346.929,403.024a1.265,1.265,0,0,0,0-2.528,1.265,1.265,0,0,0,0,2.528Z" transform="translate(-345.708 -400.496)" fill="#5569a8"/>
        </g>
        <g id="Group_59" data-name="Group 59" transform="translate(43.102 38.962)">
          <path id="Path_152" data-name="Path 152" d="M313.849,397.935a1.265,1.265,0,0,0,0-2.528,1.265,1.265,0,0,0,0,2.528Z" transform="translate(-312.628 -395.407)" fill="#5569a8"/>
        </g>
        <g id="Group_60" data-name="Group 60" transform="translate(126.724 73.489)">
          <path id="Path_153" data-name="Path 153" d="M425.812,444.162a1.264,1.264,0,0,0,0-2.527,1.264,1.264,0,0,0,0,2.527Z" transform="translate(-424.591 -441.635)" fill="#5569a8"/>
        </g>
        <g id="Group_61" data-name="Group 61" transform="translate(203.062 29.46)">
          <path id="Path_154" data-name="Path 154" d="M528.021,385.211a1.264,1.264,0,0,0,0-2.527,1.264,1.264,0,0,0,0,2.527Z" transform="translate(-526.8 -382.684)" fill="#5569a8"/>
        </g>
        <g id="Group_62" data-name="Group 62" transform="translate(86.814 67.787)">
          <path id="Path_155" data-name="Path 155" d="M372.375,436.528a1.264,1.264,0,0,0,0-2.527,1.264,1.264,0,0,0,0,2.527Z" transform="translate(-371.154 -434.001)" fill="#5569a8"/>
        </g>
        <g id="Group_63" data-name="Group 63" transform="translate(38.639 88.694)">
          <path id="Path_156" data-name="Path 156" d="M306.811,463.894l.317.633a1.272,1.272,0,0,0,1.729.453,1.294,1.294,0,0,0,.453-1.729l-.317-.633a1.271,1.271,0,0,0-1.729-.453,1.3,1.3,0,0,0-.453,1.729Z" transform="translate(-306.653 -461.994)" fill="#5569a8"/>
        </g>
        <g id="Group_64" data-name="Group 64" transform="translate(128.942 114.666)">
          <path id="Path_157" data-name="Path 157" d="M428.781,499.3a1.264,1.264,0,0,0,0-2.527,1.264,1.264,0,0,0,0,2.527Z" transform="translate(-427.56 -496.768)" fill="#5569a8"/>
        </g>
        <g id="Group_65" data-name="Group 65" transform="translate(198.627 91.543)">
          <path id="Path_158" data-name="Path 158" d="M522.084,468.336a1.265,1.265,0,0,0,0-2.528,1.265,1.265,0,0,0,0,2.528Z" transform="translate(-520.863 -465.808)" fill="#5569a8"/>
        </g>
        <g id="Group_66" data-name="Group 66" transform="translate(204.646 40.546)">
          <path id="Path_159" data-name="Path 159" d="M530.142,400.055a1.264,1.264,0,0,0,0-2.527,1.264,1.264,0,0,0,0,2.527Z" transform="translate(-528.921 -397.528)" fill="#5569a8"/>
        </g>
        <g id="Group_67" data-name="Group 67" transform="translate(116.272 44.981)">
          <path id="Path_160" data-name="Path 160" d="M411.817,405.993a1.265,1.265,0,0,0,0-2.528,1.265,1.265,0,0,0,0,2.528Z" transform="translate(-410.596 -403.465)" fill="#5569a8"/>
        </g>
        <g id="Group_68" data-name="Group 68" transform="translate(14.866 4.753)">
          <path id="Path_161" data-name="Path 161" d="M276.088,352.131h.317a1.264,1.264,0,1,0,0-2.527h-.317a1.264,1.264,0,0,0,0,2.527Z" transform="translate(-274.824 -349.604)" fill="#5569a8"/>
        </g>
        <g id="Group_69" data-name="Group 69" transform="translate(32.649 73.806)">
          <path id="Path_162" data-name="Path 162" d="M299.853,444.586a1.264,1.264,0,0,0,0-2.527,1.264,1.264,0,0,0,0,2.527Z" transform="translate(-298.632 -442.059)" fill="#5569a8"/>
        </g>
        <g id="Group_70" data-name="Group 70" transform="translate(104.869 38.329)">
          <path id="Path_163" data-name="Path 163" d="M396.549,397.086a1.264,1.264,0,0,0,0-2.527,1.264,1.264,0,0,0,0,2.527Z" transform="translate(-395.328 -394.559)" fill="#5569a8"/>
        </g>
        <g id="Group_71" data-name="Group 71" transform="translate(166.952 12.672)">
          <path id="Path_164" data-name="Path 164" d="M479.673,362.734a1.264,1.264,0,0,0,0-2.527,1.264,1.264,0,0,0,0,2.527Z" transform="translate(-478.453 -360.207)" fill="#5569a8"/>
        </g>
        <g id="Group_72" data-name="Group 72" transform="translate(76.044 107.381)">
          <path id="Path_165" data-name="Path 165" d="M357.955,489.541a1.264,1.264,0,0,0,0-2.527,1.264,1.264,0,0,0,0,2.527Z" transform="translate(-356.735 -487.014)" fill="#5569a8"/>
        </g>
        <g id="Group_73" data-name="Group 73" transform="translate(14.594 104.531)">
          <path id="Path_166" data-name="Path 166" d="M275.679,485.724a1.264,1.264,0,0,0,0-2.527,1.264,1.264,0,0,0,0,2.527Z" transform="translate(-274.459 -483.197)" fill="#5569a8"/>
        </g>
        <g id="Group_74" data-name="Group 74" transform="translate(173.604 114.35)">
          <path id="Path_167" data-name="Path 167" d="M488.579,498.871a1.264,1.264,0,0,0,0-2.527,1.264,1.264,0,0,0,0,2.527Z" transform="translate(-487.359 -496.344)" fill="#5569a8"/>
        </g>
        <g id="Group_75" data-name="Group 75" transform="translate(180.256 58.285)">
          <path id="Path_168" data-name="Path 168" d="M497.486,423.805a1.264,1.264,0,0,0,0-2.527,1.264,1.264,0,0,0,0,2.527Z" transform="translate(-496.265 -421.278)" fill="#5569a8"/>
        </g>
        <g id="Group_76" data-name="Group 76" transform="translate(148.557 66.518)">
          <path id="Path_169" data-name="Path 169" d="M454.434,433.566a.632.632,0,0,0,0-1.264.632.632,0,0,0,0,1.264Z" transform="translate(-453.823 -432.302)" fill="#6f80be"/>
        </g>
        <g id="Group_77" data-name="Group 77" transform="translate(74.437 56.699)">
          <path id="Path_170" data-name="Path 170" d="M355.194,420.419a.632.632,0,0,0,0-1.264.632.632,0,0,0,0,1.264Z" transform="translate(-354.583 -419.155)" fill="#6f80be"/>
        </g>
        <g id="Group_78" data-name="Group 78" transform="translate(81.089 85.523)">
          <path id="Path_171" data-name="Path 171" d="M364.1,459.012a.633.633,0,0,0,0-1.264.633.633,0,0,0,0,1.264Z" transform="translate(-363.49 -457.748)" fill="#6f80be"/>
        </g>
        <g id="Group_79" data-name="Group 79" transform="translate(111.181 85.84)">
          <path id="Path_172" data-name="Path 172" d="M404.39,459.436a.633.633,0,0,0,0-1.264.633.633,0,0,0,0,1.264Z" transform="translate(-403.779 -458.172)" fill="#6f80be"/>
        </g>
        <g id="Group_80" data-name="Group 80" transform="translate(152.042 38.961)">
          <path id="Path_173" data-name="Path 173" d="M459.1,396.669a.632.632,0,0,0,0-1.264.632.632,0,0,0,0,1.264Z" transform="translate(-458.489 -395.405)" fill="#6f80be"/>
        </g>
        <g id="Group_81" data-name="Group 81" transform="translate(33.893 51.948)">
          <path id="Path_174" data-name="Path 174" d="M300.908,414.057a.633.633,0,0,0,0-1.264.633.633,0,0,0,0,1.264Z" transform="translate(-300.298 -412.793)" fill="#6f80be"/>
        </g>
        <g id="Group_82" data-name="Group 82" transform="translate(22.806 33.893)">
          <path id="Path_175" data-name="Path 175" d="M286.065,389.883a.633.633,0,0,0,0-1.264.633.633,0,0,0,0,1.264Z" transform="translate(-285.454 -388.619)" fill="#6f80be"/>
        </g>
        <g id="Group_83" data-name="Group 83" transform="translate(72.536 70.319)">
          <path id="Path_176" data-name="Path 176" d="M352.649,438.655a.633.633,0,0,0,0-1.264.633.633,0,0,0,0,1.264Z" transform="translate(-352.038 -437.391)" fill="#6f80be"/>
        </g>
        <g id="Group_84" data-name="Group 84" transform="translate(161.861 27.241)">
          <path id="Path_177" data-name="Path 177" d="M472.246,380.977a.632.632,0,0,0,0-1.264.632.632,0,0,0,0,1.264Z" transform="translate(-471.636 -379.713)" fill="#6f80be"/>
        </g>
        <g id="Group_85" data-name="Group 85" transform="translate(127.968 6.652)">
          <path id="Path_178" data-name="Path 178" d="M426.867,353.41a.633.633,0,0,0,0-1.264.633.633,0,0,0,0,1.264Z" transform="translate(-426.257 -352.146)" fill="#6f80be"/>
        </g>
        <g id="Group_86" data-name="Group 86" transform="translate(125.434 50.997)">
          <path id="Path_179" data-name="Path 179" d="M423.474,412.785a.632.632,0,0,0,0-1.264.632.632,0,0,0,0,1.264Z" transform="translate(-422.864 -411.521)" fill="#6f80be"/>
        </g>
        <g id="Group_87" data-name="Group 87" transform="translate(190.369 57.966)">
          <path id="Path_180" data-name="Path 180" d="M510.416,422.115a.632.632,0,0,0,0-1.264.632.632,0,0,0,0,1.264Z" transform="translate(-509.805 -420.851)" fill="#6f80be"/>
        </g>
        <g id="Group_88" data-name="Group 88" transform="translate(202.722 87.107)">
          <path id="Path_181" data-name="Path 181" d="M526.956,461.133a.632.632,0,0,0,0-1.264.632.632,0,0,0,0,1.264Z" transform="translate(-526.345 -459.869)" fill="#6f80be"/>
        </g>
        <g id="Group_89" data-name="Group 89" transform="translate(174.215 90.908)">
          <path id="Path_182" data-name="Path 182" d="M488.786,466.222a.632.632,0,0,0,0-1.264.632.632,0,0,0,0,1.264Z" transform="translate(-488.176 -464.958)" fill="#6f80be"/>
        </g>
        <g id="Group_90" data-name="Group 90" transform="translate(136.204 96.61)">
          <path id="Path_183" data-name="Path 183" d="M437.894,473.856a.632.632,0,0,0,0-1.264.632.632,0,0,0,0,1.264Z" transform="translate(-437.284 -472.592)" fill="#6f80be"/>
        </g>
        <g id="Group_91" data-name="Group 91" transform="translate(179.599 109.28)">
          <path id="Path_184" data-name="Path 184" d="M496,490.82a.632.632,0,0,0,0-1.264.632.632,0,0,0,0,1.264Z" transform="translate(-495.386 -489.556)" fill="#6f80be"/>
        </g>
        <g id="Group_92" data-name="Group 92" transform="translate(229.963 60.817)">
          <path id="Path_185" data-name="Path 185" d="M563.429,425.932a.632.632,0,0,0,0-1.264.632.632,0,0,0,0,1.264Z" transform="translate(-562.818 -424.668)" fill="#6f80be"/>
        </g>
        <g id="Group_93" data-name="Group 93" transform="translate(227.746)">
          <path id="Path_186" data-name="Path 186" d="M560.46,344.5a.632.632,0,0,0,0-1.264.632.632,0,0,0,0,1.264Z" transform="translate(-559.849 -343.24)" fill="#6f80be"/>
        </g>
        <g id="Group_94" data-name="Group 94" transform="translate(179.599 27.874)">
          <path id="Path_187" data-name="Path 187" d="M496,381.825a.633.633,0,0,0,0-1.264.633.633,0,0,0,0,1.264Z" transform="translate(-495.386 -380.561)" fill="#6f80be"/>
        </g>
        <g id="Group_95" data-name="Group 95" transform="translate(40.545 113.715)">
          <path id="Path_188" data-name="Path 188" d="M309.815,496.758a.632.632,0,0,0,0-1.264.632.632,0,0,0,0,1.264Z" transform="translate(-309.204 -495.494)" fill="#6f80be"/>
        </g>
        <g id="Group_96" data-name="Group 96" transform="translate(18.055 75.071)">
          <path id="Path_189" data-name="Path 189" d="M279.7,445.017a.632.632,0,0,0,0-1.264.632.632,0,0,0,0,1.264Z" transform="translate(-279.092 -443.753)" fill="#6f80be"/>
        </g>
        <g id="Group_97" data-name="Group 97" transform="translate(227.746 116.248)">
          <path id="Path_190" data-name="Path 190" d="M560.46,500.15a.633.633,0,0,0,0-1.264.633.633,0,0,0,0,1.264Z" transform="translate(-559.849 -498.886)" fill="#6f80be"/>
        </g>
        <g id="Group_98" data-name="Group 98" transform="translate(237.882 33.576)">
          <path id="Path_191" data-name="Path 191" d="M574.031,389.459a.632.632,0,0,0,0-1.264.632.632,0,0,0,0,1.264Z" transform="translate(-573.421 -388.195)" fill="#6f80be"/>
        </g>
        <g id="Group_99" data-name="Group 99" transform="translate(214.759 112.764)">
          <path id="Path_192" data-name="Path 192" d="M543.072,495.485a.633.633,0,0,0,0-1.264.633.633,0,0,0,0,1.264Z" transform="translate(-542.461 -494.221)" fill="#6f80be"/>
        </g>
        <g id="Group_100" data-name="Group 100" transform="translate(66.835 122.584)">
          <path id="Path_193" data-name="Path 193" d="M345.015,508.633a.632.632,0,0,0,0-1.264.632.632,0,0,0,0,1.264Z" transform="translate(-344.405 -507.369)" fill="#6f80be"/>
        </g>
        <g id="Group_101" data-name="Group 101" transform="translate(3.801 133.987)">
          <path id="Path_194" data-name="Path 194" d="M260.618,523.9a.632.632,0,0,0,0-1.264.632.632,0,0,0,0,1.264Z" transform="translate(-260.008 -522.636)" fill="#6f80be"/>
        </g>
        <g id="Group_102" data-name="Group 102" transform="translate(0 2.851)">
          <path id="Path_195" data-name="Path 195" d="M255.529,348.321a.632.632,0,0,0,0-1.264.632.632,0,0,0,0,1.264Z" transform="translate(-254.919 -347.057)" fill="#6f80be"/>
        </g>
        <g id="Group_103" data-name="Group 103" transform="translate(0.317 47.513)">
          <path id="Path_196" data-name="Path 196" d="M255.953,408.12a.632.632,0,0,0,0-1.264.632.632,0,0,0,0,1.264Z" transform="translate(-255.343 -406.856)" fill="#6f80be"/>
        </g>
        <g id="Group_104" data-name="Group 104" transform="translate(113.081 35.16)">
          <path id="Path_197" data-name="Path 197" d="M406.934,391.58a.632.632,0,0,0,0-1.264.632.632,0,0,0,0,1.264Z" transform="translate(-406.324 -390.316)" fill="#6f80be"/>
        </g>
        <g id="Group_105" data-name="Group 105" transform="translate(107.063 13.621)">
          <path id="Path_198" data-name="Path 198" d="M398.876,362.741a.632.632,0,0,0,0-1.264.632.632,0,0,0,0,1.264Z" transform="translate(-398.266 -361.477)" fill="#6f80be"/>
        </g>
        <g id="Group_106" data-name="Group 106" transform="translate(98.827 103.262)">
          <path id="Path_199" data-name="Path 199" d="M387.85,482.762a.632.632,0,0,0,0-1.264.632.632,0,0,0,0,1.264Z" transform="translate(-387.24 -481.498)" fill="#6f80be"/>
        </g>
        <g id="Group_107" data-name="Group 107" transform="translate(61.767 80.772)">
          <path id="Path_200" data-name="Path 200" d="M338.229,452.651a.632.632,0,0,0,0-1.264.632.632,0,0,0,0,1.264Z" transform="translate(-337.619 -451.387)" fill="#6f80be"/>
        </g>
        <g id="Group_108" data-name="Group 108" transform="translate(50.681 60.817)">
          <path id="Path_201" data-name="Path 201" d="M323.386,425.932a.632.632,0,0,0,0-1.264.632.632,0,0,0,0,1.264Z" transform="translate(-322.775 -424.668)" fill="#6f80be"/>
        </g>
        <g id="Group_109" data-name="Group 109" transform="translate(220.777 6.018)">
          <path id="Path_202" data-name="Path 202" d="M551.13,352.562a.632.632,0,0,0,0-1.264.632.632,0,0,0,0,1.264Z" transform="translate(-550.519 -351.298)" fill="#6f80be"/>
        </g>
        <g id="Group_110" data-name="Group 110" transform="translate(207.474 122.584)">
          <path id="Path_203" data-name="Path 203" d="M533.317,508.633a.632.632,0,0,0,0-1.264.632.632,0,0,0,0,1.264Z" transform="translate(-532.707 -507.369)" fill="#6f80be"/>
        </g>
        <g id="Group_111" data-name="Group 111" transform="translate(142.222 132.403)">
          <path id="Path_204" data-name="Path 204" d="M445.952,521.78a.632.632,0,0,0,0-1.264.632.632,0,0,0,0,1.264Z" transform="translate(-445.341 -520.516)" fill="#6f80be"/>
        </g>
        <g id="Group_112" data-name="Group 112" transform="translate(86.145 31.041)">
          <path id="Path_205" data-name="Path 205" d="M370.565,385.433a.316.316,0,0,0,0-.632.316.316,0,0,0,0,.632Z" transform="translate(-370.26 -384.801)" fill="#96a4d3"/>
        </g>
        <g id="Group_113" data-name="Group 113" transform="translate(116.237 78.238)">
          <path id="Path_206" data-name="Path 206" d="M410.855,448.625a.316.316,0,0,0,0-.632.316.316,0,0,0,0,.632Z" transform="translate(-410.55 -447.993)" fill="#96a4d3"/>
        </g>
        <g id="Group_114" data-name="Group 114" transform="translate(195.109 25.023)">
          <path id="Path_207" data-name="Path 207" d="M516.457,377.376a.316.316,0,0,0,0-.633.316.316,0,0,0,0,.633Z" transform="translate(-516.152 -376.743)" fill="#96a4d3"/>
        </g>
        <g id="Group_115" data-name="Group 115" transform="translate(106.101 52.58)">
          <path id="Path_208" data-name="Path 208" d="M397.6,413.64h-.317a.317.317,0,0,0,0,.633h.317a.317.317,0,0,0,0-.633Z" transform="translate(-396.979 -413.64)" fill="#96a4d3"/>
        </g>
        <g id="Group_116" data-name="Group 116" transform="translate(29.13 34.843)">
          <path id="Path_209" data-name="Path 209" d="M294.226,390.523a.316.316,0,0,0,0-.632.316.316,0,0,0,0,.632Z" transform="translate(-293.921 -389.891)" fill="#96a4d3"/>
        </g>
        <g id="Group_117" data-name="Group 117" transform="translate(56.687 11.086)">
          <path id="Path_210" data-name="Path 210" d="M331.123,358.715a.316.316,0,0,0,0-.632.316.316,0,0,0,0,.632Z" transform="translate(-330.818 -358.083)" fill="#96a4d3"/>
        </g>
        <g id="Group_118" data-name="Group 118" transform="translate(50.669 86.473)">
          <path id="Path_211" data-name="Path 211" d="M323.065,459.652a.316.316,0,0,0,0-.632.316.316,0,0,0,0,.632Z" transform="translate(-322.76 -459.02)" fill="#96a4d3"/>
        </g>
        <g id="Group_119" data-name="Group 119" transform="translate(162.483 97.876)">
          <path id="Path_212" data-name="Path 212" d="M472.774,474.919a.316.316,0,0,0,0-.632.316.316,0,0,0,0,.632Z" transform="translate(-472.469 -474.287)" fill="#96a4d3"/>
        </g>
        <g id="Group_120" data-name="Group 120" transform="translate(123.839 10.453)">
          <path id="Path_213" data-name="Path 213" d="M421.033,357.867a.316.316,0,0,0,0-.632.316.316,0,0,0,0,.632Z" transform="translate(-420.728 -357.235)" fill="#96a4d3"/>
        </g>
        <g id="Group_121" data-name="Group 121" transform="translate(142.528 24.073)">
          <path id="Path_214" data-name="Path 214" d="M446.056,376.1a.316.316,0,0,0,0-.632.316.316,0,0,0,0,.632Z" transform="translate(-445.751 -375.471)" fill="#96a4d3"/>
        </g>
        <g id="Group_122" data-name="Group 122" transform="translate(218.865 41.494)">
          <path id="Path_215" data-name="Path 215" d="M548.265,399.429a.316.316,0,0,0,0-.632.316.316,0,0,0,0,.632Z" transform="translate(-547.96 -398.797)" fill="#96a4d3"/>
        </g>
        <g id="Group_123" data-name="Group 123" transform="translate(235.019 85.206)">
          <path id="Path_216" data-name="Path 216" d="M569.894,457.955a.316.316,0,0,0,0-.632.316.316,0,0,0,0,.632Z" transform="translate(-569.589 -457.323)" fill="#96a4d3"/>
        </g>
        <g id="Group_124" data-name="Group 124" transform="translate(192.258 79.821)">
          <path id="Path_217" data-name="Path 217" d="M512.64,450.746a.316.316,0,0,0,0-.633.316.316,0,0,0,0,.633Z" transform="translate(-512.335 -450.113)" fill="#96a4d3"/>
        </g>
        <g id="Group_125" data-name="Group 125" transform="translate(217.598 120.049)">
          <path id="Path_218" data-name="Path 218" d="M546.568,504.607a.316.316,0,0,0,0-.632.316.316,0,0,0,0,.632Z" transform="translate(-546.263 -503.975)" fill="#96a4d3"/>
        </g>
        <g id="Group_126" data-name="Group 126" transform="translate(152.98 67.784)">
          <path id="Path_219" data-name="Path 219" d="M460.051,434.63a.316.316,0,0,0,0-.633.316.316,0,0,0,0,.633Z" transform="translate(-459.746 -433.997)" fill="#96a4d3"/>
        </g>
        <g id="Group_127" data-name="Group 127" transform="translate(142.528 87.107)">
          <path id="Path_220" data-name="Path 220" d="M446.056,460.5a.316.316,0,0,0,0-.632.316.316,0,0,0,0,.632Z" transform="translate(-445.751 -459.868)" fill="#96a4d3"/>
        </g>
        <g id="Group_128" data-name="Group 128" transform="translate(136.509 56.065)">
          <path id="Path_221" data-name="Path 221" d="M438,418.938a.316.316,0,0,0,0-.632.316.316,0,0,0,0,.632Z" transform="translate(-437.693 -418.306)" fill="#96a4d3"/>
        </g>
        <g id="Group_129" data-name="Group 129" transform="translate(173.886 47.513)">
          <path id="Path_222" data-name="Path 222" d="M488.042,407.487a.316.316,0,0,0,0-.632.316.316,0,0,0,0,.632Z" transform="translate(-487.737 -406.855)" fill="#96a4d3"/>
        </g>
        <g id="Group_130" data-name="Group 130" transform="translate(166.918 75.07)">
          <path id="Path_223" data-name="Path 223" d="M478.712,444.384a.316.316,0,0,0,0-.632.316.316,0,0,0,0,.632Z" transform="translate(-478.407 -443.752)" fill="#96a4d3"/>
        </g>
        <g id="Group_131" data-name="Group 131" transform="translate(138.41 54.798)">
          <path id="Path_224" data-name="Path 224" d="M440.542,417.241a.316.316,0,0,0,0-.632.316.316,0,0,0,0,.632Z" transform="translate(-440.237 -416.609)" fill="#96a4d3"/>
        </g>
        <g id="Group_132" data-name="Group 132" transform="translate(137.459 32.942)">
          <path id="Path_225" data-name="Path 225" d="M439.27,387.978a.316.316,0,0,0,0-.632.316.316,0,0,0,0,.632Z" transform="translate(-438.965 -387.346)" fill="#96a4d3"/>
        </g>
        <g id="Group_133" data-name="Group 133" transform="translate(121.622 38.01)">
          <path id="Path_226" data-name="Path 226" d="M418.065,394.764a.316.316,0,0,0,0-.632.316.316,0,0,0,0,.632Z" transform="translate(-417.76 -394.132)" fill="#96a4d3"/>
        </g>
        <g id="Group_134" data-name="Group 134" transform="translate(94.698 69.685)">
          <path id="Path_227" data-name="Path 227" d="M382.016,437.174a.316.316,0,0,0,0-.632.316.316,0,0,0,0,.632Z" transform="translate(-381.711 -436.542)" fill="#96a4d3"/>
        </g>
        <g id="Group_135" data-name="Group 135" transform="translate(10.758 54.798)">
          <path id="Path_228" data-name="Path 228" d="M269.628,417.241a.316.316,0,0,0,0-.632.316.316,0,0,0,0,.632Z" transform="translate(-269.323 -416.609)" fill="#96a4d3"/>
        </g>
        <g id="Group_136" data-name="Group 136" transform="translate(63.022 22.172)">
          <path id="Path_229" data-name="Path 229" d="M339.605,373.559a.317.317,0,0,0,0-.633.317.317,0,0,0,0,.633Z" transform="translate(-339.3 -372.926)" fill="#96a4d3"/>
        </g>
        <g id="Group_137" data-name="Group 137" transform="translate(57.638 35.793)">
          <path id="Path_230" data-name="Path 230" d="M332.4,391.795a.316.316,0,0,0,0-.632.316.316,0,0,0,0,.632Z" transform="translate(-332.091 -391.163)" fill="#96a4d3"/>
        </g>
        <g id="Group_138" data-name="Group 138" transform="translate(47.185 33.575)">
          <path id="Path_231" data-name="Path 231" d="M318.4,388.826a.316.316,0,0,0,0-.632.316.316,0,0,0,0,.632Z" transform="translate(-318.095 -388.194)" fill="#96a4d3"/>
        </g>
        <g id="Group_139" data-name="Group 139" transform="translate(49.402 44.345)">
          <path id="Path_232" data-name="Path 232" d="M321.369,403.246a.316.316,0,0,0,0-.632.316.316,0,0,0,0,.632Z" transform="translate(-321.064 -402.614)" fill="#96a4d3"/>
        </g>
        <g id="Group_140" data-name="Group 140" transform="translate(109.902 39.91)">
          <path id="Path_233" data-name="Path 233" d="M402.373,397.308a.316.316,0,0,0,0-.632.316.316,0,0,0,0,.632Z" transform="translate(-402.068 -396.676)" fill="#96a4d3"/>
        </g>
        <g id="Group_141" data-name="Group 141" transform="translate(175.153 30.408)">
          <path id="Path_234" data-name="Path 234" d="M489.738,384.585a.316.316,0,0,0,0-.632.316.316,0,0,0,0,.632Z" transform="translate(-489.433 -383.953)" fill="#96a4d3"/>
        </g>
        <g id="Group_142" data-name="Group 142" transform="translate(164.067 57.015)">
          <path id="Path_235" data-name="Path 235" d="M474.895,420.21a.316.316,0,0,0,0-.632.316.316,0,0,0,0,.632Z" transform="translate(-474.59 -419.578)" fill="#96a4d3"/>
        </g>
        <g id="Group_143" data-name="Group 143" transform="translate(127.957 73.803)">
          <path id="Path_236" data-name="Path 236" d="M426.547,442.688a.317.317,0,0,0,0-.633.317.317,0,0,0,0,.633Z" transform="translate(-426.242 -442.055)" fill="#96a4d3"/>
        </g>
        <g id="Group_144" data-name="Group 144" transform="translate(106.101 70.002)">
          <path id="Path_237" data-name="Path 237" d="M397.284,437.6a.316.316,0,0,0,0-.632.316.316,0,0,0,0,.632Z" transform="translate(-396.979 -436.966)" fill="#96a4d3"/>
        </g>
        <g id="Group_145" data-name="Group 145" transform="translate(99.766 45.295)">
          <path id="Path_238" data-name="Path 238" d="M388.8,404.518a.316.316,0,0,0,0-.632.316.316,0,0,0,0,.632Z" transform="translate(-388.496 -403.886)" fill="#96a4d3"/>
        </g>
        <g id="Group_146" data-name="Group 146" transform="translate(206.829 104.211)">
          <path id="Path_239" data-name="Path 239" d="M532.149,483.4a.317.317,0,0,0,0-.633.317.317,0,0,0,0,.633Z" transform="translate(-531.844 -482.769)" fill="#96a4d3"/>
        </g>
        <g id="Group_147" data-name="Group 147" transform="translate(81.394 106.745)">
          <path id="Path_240" data-name="Path 240" d="M364.2,486.794a.316.316,0,0,0,0-.632.316.316,0,0,0,0,.632Z" transform="translate(-363.898 -486.162)" fill="#96a4d3"/>
        </g>
        <g id="Group_148" data-name="Group 148" transform="translate(66.19 91.541)">
          <path id="Path_241" data-name="Path 241" d="M343.847,466.437a.316.316,0,0,0,0-.632.316.316,0,0,0,0,.632Z" transform="translate(-343.541 -465.805)" fill="#96a4d3"/>
        </g>
        <g id="Group_149" data-name="Group 149" transform="translate(28.496 20.588)">
          <path id="Path_242" data-name="Path 242" d="M293.378,371.438a.316.316,0,0,0,0-.632.316.316,0,0,0,0,.632Z" transform="translate(-293.073 -370.806)" fill="#96a4d3"/>
        </g>
        <g id="Group_150" data-name="Group 150" transform="translate(57.321 7.285)">
          <path id="Path_243" data-name="Path 243" d="M331.972,353.626a.316.316,0,0,0,0-.632.316.316,0,0,0,0,.632Z" transform="translate(-331.667 -352.994)" fill="#96a4d3"/>
        </g>
        <g id="Group_151" data-name="Group 151" transform="translate(38.316 36.109)">
          <path id="Path_244" data-name="Path 244" d="M306.525,392.219a.316.316,0,0,0,0-.632.316.316,0,0,0,0,.632Z" transform="translate(-306.22 -391.587)" fill="#96a4d3"/>
        </g>
        <g id="Group_152" data-name="Group 152" transform="translate(4.106 17.421)">
          <path id="Path_245" data-name="Path 245" d="M260.722,367.2a.316.316,0,0,0,0-.632.316.316,0,0,0,0,.632Z" transform="translate(-260.417 -366.565)" fill="#96a4d3"/>
        </g>
        <g id="Group_153" data-name="Group 153" transform="translate(25.012 36.743)">
          <path id="Path_246" data-name="Path 246" d="M288.713,393.067a.316.316,0,0,0,0-.632.316.316,0,0,0,0,.632Z" transform="translate(-288.408 -392.435)" fill="#96a4d3"/>
        </g>
        <g id="Group_154" data-name="Group 154" transform="translate(5.373 26.923)">
          <path id="Path_247" data-name="Path 247" d="M262.419,379.92a.316.316,0,0,0,0-.632.316.316,0,0,0,0,.632Z" transform="translate(-262.113 -379.288)" fill="#96a4d3"/>
        </g>
        <g id="Group_155" data-name="Group 155" transform="translate(37.682 5.068)">
          <path id="Path_248" data-name="Path 248" d="M305.677,350.657a.316.316,0,0,0,0-.632.316.316,0,0,0,0,.632Z" transform="translate(-305.372 -350.025)" fill="#96a4d3"/>
        </g>
        <g id="Group_156" data-name="Group 156" transform="translate(107.051 4.434)">
          <path id="Path_249" data-name="Path 249" d="M398.556,349.809a.316.316,0,0,0,0-.632.316.316,0,0,0,0,.632Z" transform="translate(-398.251 -349.177)" fill="#96a4d3"/>
        </g>
        <g id="Group_157" data-name="Group 157" transform="translate(237.87 23.439)">
          <path id="Path_250" data-name="Path 250" d="M573.711,375.255a.316.316,0,0,0,0-.632.316.316,0,0,0,0,.632Z" transform="translate(-573.406 -374.623)" fill="#96a4d3"/>
        </g>
        <g id="Group_158" data-name="Group 158" transform="translate(187.506 3.483)">
          <path id="Path_251" data-name="Path 251" d="M506.278,348.536a.316.316,0,0,0,0-.632.316.316,0,0,0,0,.632Z" transform="translate(-505.973 -347.904)" fill="#96a4d3"/>
        </g>
        <g id="Group_159" data-name="Group 159" transform="translate(201.127 2.217)">
          <path id="Path_252" data-name="Path 252" d="M524.515,346.84a.316.316,0,0,0,0-.632.316.316,0,0,0,0,.632Z" transform="translate(-524.21 -346.208)" fill="#96a4d3"/>
        </g>
        <g id="Group_160" data-name="Group 160" transform="translate(228.051 48.463)">
          <path id="Path_253" data-name="Path 253" d="M560.564,408.759a.316.316,0,0,0,0-.632.316.316,0,0,0,0,.632Z" transform="translate(-560.259 -408.127)" fill="#96a4d3"/>
        </g>
        <g id="Group_161" data-name="Group 161" transform="translate(237.237 100.727)">
          <path id="Path_254" data-name="Path 254" d="M572.863,478.736a.316.316,0,0,0,0-.632.316.316,0,0,0,0,.632Z" transform="translate(-572.558 -478.104)" fill="#96a4d3"/>
        </g>
        <g id="Group_162" data-name="Group 162" transform="translate(200.81 63.35)">
          <path id="Path_255" data-name="Path 255" d="M524.091,428.692a.316.316,0,0,0,0-.632.316.316,0,0,0,0,.632Z" transform="translate(-523.786 -428.06)" fill="#96a4d3"/>
        </g>
        <g id="Group_163" data-name="Group 163" transform="translate(214.114 62.717)">
          <path id="Path_256" data-name="Path 256" d="M541.9,427.844a.316.316,0,0,0,0-.632.316.316,0,0,0,0,.632Z" transform="translate(-541.598 -427.212)" fill="#96a4d3"/>
        </g>
        <g id="Group_164" data-name="Group 164" transform="translate(219.499 89.324)">
          <path id="Path_257" data-name="Path 257" d="M549.113,463.469a.316.316,0,0,0,0-.632.316.316,0,0,0,0,.632Z" transform="translate(-548.808 -462.837)" fill="#96a4d3"/>
        </g>
        <g id="Group_165" data-name="Group 165" transform="translate(243.749 0.132)">
          <path id="Path_258" data-name="Path 258" d="M582.5,345.944a1.264,1.264,0,0,0,0-2.527,1.264,1.264,0,0,0,0,2.527Z" transform="translate(-581.277 -343.417)" fill="#5569a8"/>
        </g>
        <g id="Group_166" data-name="Group 166" transform="translate(217.371 61.218)">
          <path id="Path_259" data-name="Path 259" d="M547.18,427.732a1.264,1.264,0,0,0,0-2.527,1.264,1.264,0,0,0,0,2.527Z" transform="translate(-545.959 -425.205)" fill="#5569a8"/>
        </g>
        <g id="Group_167" data-name="Group 167" transform="translate(221.258 112.307)">
          <path id="Path_260" data-name="Path 260" d="M552.384,496.136a1.264,1.264,0,0,0,0-2.527,1.264,1.264,0,0,0,0,2.527Z" transform="translate(-551.164 -493.609)" fill="#5569a8"/>
        </g>
        <g id="Group_168" data-name="Group 168" transform="translate(220.981 87.04)">
          <path id="Path_261" data-name="Path 261" d="M552.013,462.306a1.264,1.264,0,0,0,0-2.527,1.264,1.264,0,0,0,0,2.527Z" transform="translate(-550.792 -459.779)" fill="#5569a8"/>
        </g>
        <g id="Group_169" data-name="Group 169" transform="translate(1.35 71.491)">
          <path id="Path_262" data-name="Path 262" d="M257.948,441.487a1.264,1.264,0,0,0,0-2.527,1.264,1.264,0,0,0,0,2.527Z" transform="translate(-256.727 -438.96)" fill="#5569a8"/>
        </g>
        <g id="Group_170" data-name="Group 170" transform="translate(127.964 24.011)">
          <path id="Path_263" data-name="Path 263" d="M427.472,377.916a1.265,1.265,0,0,0,0-2.528,1.265,1.265,0,0,0,0,2.528Z" transform="translate(-426.251 -375.388)" fill="#5569a8"/>
        </g>
      </g>
      <g id="Group_172" data-name="Group 172" transform="translate(248.666 304.05)">
        <path id="Path_264" data-name="Path 264" d="M492.348,306.568c-4.454-1.382-34.358-.209-37.221,0s-6.114.662-7.635,0c-.918-.4-8.709-.94-11.332-.907-1.841.024-3.6.313-8.709.538-3.009.132-6.308-.717-8.826-.353-2.633.381-3.9-.609-5.956-.659-1.955-.048-8.307-.739-11.17-.739s-8.089.32-12.224.32-9.145-.623-11.372-.623-6.761-.013-8.989-.013-7.63.87-9.539.552-5.731.5-8.912-.134-11.84.288-17.248-.03-9.427-.161-17.381-.161-15.821-.794-20.593.161-5.528.711-9.663.711-30.609-2.893-35.008,7.294c-1.544,3.574-1.273,10.376-1.82,15.466s1.82,20.678.547,27.359,0,22.269.527,28.313.023,15.334.039,21c.016,5.74,1.54,32.83.707,35.949-.58,2.173.112,28.634,0,32.45-.273,9.344,15.907,8.271,20.042,8.969s16.543.256,19.406,0,45.174-.38,48.037-.046,27.36-1.288,29.586-1.288,21.4.088,28.086.406,15.117.173,19.253-.464,10.847.143,14.028,0,18.8-.441,24.2-1.077,11.671-.359,13.368-.456c4.237-.243,25.279-.476,31.96-1.748s5.38-5.288,6.213-7.491c.723-1.914.482-13.307.548-17.177.068-3.987.409-26.075.409-30.211s1.512-7.316.876-10.816.092-17.764,0-21.633c-.09-3.8.606-9.485.636-13.68.028-3.831-.662-11.786-.009-16.558a88.2,88.2,0,0,0,.3-15.666c-.318-1.591.42-12.314.739-15.177s-.491-14.346-2.082-17.21S496.8,307.95,492.348,306.568Zm-.279,18.231c-.774-.051-1.618-.075-2.44-.087-.275,0-.546-.006-.812-.005-1.957-.009-4.245-.009-6.236.14,1.99-.149,4.279-.149,6.236-.14.266,0,.537,0,.812.005C490.452,324.724,491.3,324.748,492.069,324.8Zm-1.552-2.315c-.263-.012-.529-.022-.8-.031-2.4-.043-4.692-.043-7.116.1,2.424-.138,4.713-.138,7.116-.1.267.009.533.019.8.031.527.025,1.043.058,1.542.1C491.561,322.542,491.044,322.509,490.517,322.484Zm-7.924-2.26a58.416,58.416,0,0,1,6.947.069c.424.044.848.079,1.268.094a9.827,9.827,0,0,0,1.244-.026,9.827,9.827,0,0,1-1.244.026c-.42-.015-.844-.05-1.268-.094A58.416,58.416,0,0,0,482.594,320.224Zm1.61-2.4c-.539,0-1.084-.008-1.642-.014,2.01.023,3.841.023,5.862.037l1.117.011c.425.006.85.015,1.27.025s.838.022,1.247.037c-.409-.014-.825-.027-1.247-.037s-.845-.019-1.27-.025l-1.117-.011c-1.46-.01-2.82-.013-4.221-.022m-19.632,1.17a.847.847,0,0,1,.687-.58l2.874-.417a.376.376,0,0,0,.283-.206l1.285-2.6a.851.851,0,0,1,1.527,0l1.285,2.6a.374.374,0,0,0,.282.206l2.874.417a.851.851,0,0,1,.472,1.452l-2.079,2.027a.376.376,0,0,0-.108.333l.491,2.862a.85.85,0,0,1-1.235.9l-2.571-1.351a.376.376,0,0,0-.35,0l-2.571,1.351a.851.851,0,0,1-1.235-.9l.491-2.863a.376.376,0,0,0-.108-.332l-2.079-2.027A.846.846,0,0,1,464.572,318.994Zm-17.012.26a5.38,5.38,0,0,1,.346-1.089c1.423-3.078,6-4.451,8.747-2.62a8.765,8.765,0,0,1,2.21,3.709,5.717,5.717,0,0,1-.3,3.28,5.846,5.846,0,0,1-.76,1.347.741.741,0,0,0,.063.97l.491.5a.433.433,0,0,1,.105.525.449.449,0,0,1-.444.293h-3.363a.486.486,0,0,1-.48-.48V324c0-.421,0-.841,0-1.155a2.513,2.513,0,0,0,.191-.895c.458-.458.916.458,1.311.716a.452.452,0,0,0,.685-.057,3.677,3.677,0,0,0,.521-1.039,3.187,3.187,0,0,0-.686-3.739,3.954,3.954,0,0,0-6.729,3.435,3.806,3.806,0,0,0,1.4,2.164.235.235,0,0,1,.09.173.285.285,0,0,1-.068.187l-1.036,1.028a.21.21,0,0,1-.154.072.246.246,0,0,1-.169-.057,5.624,5.624,0,0,1-1.535-1.981,5.8,5.8,0,0,1-.43-3.6Zm-119.075-4.621c.889-2.032,14.734-.659,17.076-.6,2.727.067,11.575-1.021,13.48-.473s9.172.069,11.585,0,11.122.615,14.551.58,10.033.413,12.573,0a51.487,51.487,0,0,1,8.89,0c1.4.093,8.381-.347,9.651,0s3.175-.474,6.223,0,5.969-.541,6.35,3.268.127,8.763-2.286,9.017-9.2.129-12.878.256-12.117-.26-15.165-.514-17.8.131-19.072.258-15.322.42-19.894.137-10.68-.561-12.49-.391a87.558,87.558,0,0,1-11.838.391c-2.04-.22-5.68.468-6.319-.944C328.125,323.85,328.486,314.633,328.486,314.633Zm-36.66.838c1.766-.706,4.237-.706,5.348,1.294a5.547,5.547,0,0,1,.712.993c1,.892,1,2.3.649,3.716A5.554,5.554,0,0,1,294.651,325a5.1,5.1,0,0,1-4.944-2.119C287.589,320.061,288.649,316.177,291.827,315.471Zm-7.668,1.35a4.962,4.962,0,0,1,.623.946c1.748,3.414-1.076,7.3-4.96,7.3a5.64,5.64,0,0,1-4.59-5.3C275.584,315.884,281.587,313.06,284.158,316.821Zm-19.52-.568c2.471-1.766,6-1.413,7.532,1.3a5.055,5.055,0,0,1,.569,1.22,5.164,5.164,0,0,1-2.8,5.949c-2.471.707-4.59-.353-6.355-2.119A4.988,4.988,0,0,1,264.638,316.253Zm227.117,52.454c-.781,2.927-1.952,25.567-.975,32.4s.195,56.4-1.366,58.551-5.991,3.386-17.956,2.733c-12.48-.681-48.012,2.677-56.6.948s-38.448,1.8-42.937,1.274a56.935,56.935,0,0,0-13.662.072c-5.074.573-54.842,2.586-60.7,1.8s-15.925-.358-21.195-.748-10.813.944-11.789-2.764c0,0,.2-26.934.2-31.813a109.186,109.186,0,0,0-1.562-16.785c-.78-3.9-.195-13.662,0-16.2s-1.4-28.1-1.151-31.072c.263-3.156-.128-6.264.263-8.021s.108-15.359-.087-16.14.081-7.092,1.366-7.611c2.684-1.085,62.844-1.561,72.8,0s53.672-.514,56.209-.55,51.72.3,61.088-.55,34.35-1.684,37.082,0S492.536,365.779,491.755,368.707Z" transform="translate(-248.666 -304.05)" fill="#ffeccf" stroke="#692683" stroke-miterlimit="10" stroke-width="0.613"/>
        <path id="Path_265" data-name="Path 265" d="M362.265,329.728a87.558,87.558,0,0,0,11.838-.391c1.81-.169,7.918.108,12.49.391s18.624-.01,19.894-.137,16.024-.512,19.072-.258,11.483.641,15.165.514,10.465,0,12.878-.256,2.667-5.207,2.286-9.017-3.3-2.794-6.35-3.268-4.953.347-6.223,0-8.254.093-9.651,0a51.49,51.49,0,0,0-8.89,0c-2.54.415-9.144-.034-12.573,0s-12.137-.651-14.551-.58-9.68.547-11.585,0-10.753.54-13.48.473c-2.341-.057-16.187-1.43-17.076.6,0,0-.361,9.217.436,10.982C356.585,330.2,360.225,329.508,362.265,329.728Z" transform="translate(-275.69 -307.22)" fill="#dcebf8"/>
        <path id="Path_266" data-name="Path 266" d="M274.752,328.495a5.164,5.164,0,0,0,2.8-5.949,5.053,5.053,0,0,0-.569-1.22c-1.529-2.718-5.06-3.07-7.531-1.3a4.988,4.988,0,0,0-1.059,6.355C270.162,328.142,272.281,329.2,274.752,328.495Z" transform="translate(-253.484 -307.818)" fill="#ee7b70" stroke="#692683" stroke-miterlimit="10" stroke-width="0.613"/>
        <path id="Path_267" data-name="Path 267" d="M288.824,328.793c3.884,0,6.708-3.884,4.96-7.3a4.963,4.963,0,0,0-.623-.946c-2.572-3.761-8.574-.937-8.927,2.948A5.64,5.64,0,0,0,288.824,328.793Z" transform="translate(-257.669 -307.778)" fill="#f6e170" stroke="#692683" stroke-miterlimit="10" stroke-width="0.613"/>
        <path id="Path_268" data-name="Path 268" d="M308.187,328.73a5.554,5.554,0,0,0,3.885-3.531c.353-1.412.353-2.825-.649-3.716a5.547,5.547,0,0,0-.712-.993c-1.111-2-3.582-2-5.348-1.294-3.178.707-4.237,4.59-2.119,7.415A5.1,5.1,0,0,0,308.187,328.73Z" transform="translate(-262.202 -307.776)" fill="#b3d27c" stroke="#692683" stroke-miterlimit="10" stroke-width="0.613"/>
        <path id="Path_269" data-name="Path 269" d="M516.894,328.451a.246.246,0,0,0,.169.057.21.21,0,0,0,.154-.072l1.036-1.028a.285.285,0,0,0,.068-.187.235.235,0,0,0-.09-.173,3.806,3.806,0,0,1-1.4-2.164,3.954,3.954,0,0,1,6.729-3.435,3.187,3.187,0,0,1,.686,3.739,3.677,3.677,0,0,1-.521,1.039.452.452,0,0,1-.685.057c-.4-.258-.853-1.173-1.311-.715a2.513,2.513,0,0,1-.191.895c0,.314,0,.735,0,1.155V329.3a.486.486,0,0,0,.48.48h3.363a.449.449,0,0,0,.444-.293.433.433,0,0,0-.105-.525l-.491-.5a.741.741,0,0,1-.063-.97,5.847,5.847,0,0,0,.76-1.347,5.716,5.716,0,0,0,.3-3.28,8.765,8.765,0,0,0-2.21-3.709c-2.746-1.831-7.323-.458-8.747,2.62a5.383,5.383,0,0,0-.346,1.089,5.8,5.8,0,0,0,.43,3.6A5.623,5.623,0,0,0,516.894,328.451Z" transform="translate(-316.034 -307.667)" fill="#ffeccf" stroke="#692683" stroke-miterlimit="10" stroke-width="0.613"/>
        <path id="Path_270" data-name="Path 270" d="M540.026,325.506a.376.376,0,0,1,.108.332l-.491,2.863a.851.851,0,0,0,1.235.9l2.571-1.351a.376.376,0,0,1,.35,0l2.571,1.351a.852.852,0,0,0,1.235-.9l-.492-2.862a.377.377,0,0,1,.108-.333l2.079-2.027a.851.851,0,0,0-.472-1.452l-2.874-.418a.374.374,0,0,1-.282-.206l-1.285-2.6a.851.851,0,0,0-1.527,0l-1.285,2.6a.376.376,0,0,1-.283.206l-2.874.418a.851.851,0,0,0-.471,1.452Z" transform="translate(-321.824 -307.664)" fill="#ece034" stroke="#692683" stroke-miterlimit="10" stroke-width="0.613"/>
      </g>
    </g>
  </g>
</svg>
