<svg xmlns="http://www.w3.org/2000/svg" width="76.478" height="83.522" viewBox="0 0 76.478 83.522"><g transform="translate(-120.962 -72.87)"><g transform="translate(120.962 72.87)"><path d="M159.2,156.392a14.458,14.458,0,0,1-7.07-1.688l-24.1-13.914a15.649,15.649,0,0,1-7.07-12.245V100.717a15.649,15.649,0,0,1,7.07-12.245l24.1-13.914a15.649,15.649,0,0,1,14.139,0l24.1,13.914a15.649,15.649,0,0,1,7.07,12.245v27.828a15.649,15.649,0,0,1-7.07,12.245l-24.1,13.914A14.458,14.458,0,0,1,159.2,156.392Zm-30.277-17.148,24.1,13.914a13.885,13.885,0,0,0,12.355,0l24.1-13.914a13.884,13.884,0,0,0,6.177-10.7V100.717a13.885,13.885,0,0,0-6.177-10.7L165.378,76.1a13.884,13.884,0,0,0-12.355,0l-24.1,13.914a13.885,13.885,0,0,0-6.177,10.7v27.828A13.884,13.884,0,0,0,128.924,139.244Z" transform="translate(-120.962 -72.87)" fill="#fff4e5"/></g><g transform="translate(124.404 76.457)"><path d="M153.877,115.677a13.123,13.123,0,0,0-5.915,10.245v26.52a13.123,13.123,0,0,0,5.915,10.245l22.967,13.26a13.123,13.123,0,0,0,11.83,0l22.967-13.26a13.123,13.123,0,0,0,5.915-10.245v-26.52a13.123,13.123,0,0,0-5.915-10.245l-22.967-13.26a13.123,13.123,0,0,0-11.83,0Z" transform="translate(-147.962 -101.008)" fill="#ffeccf"/></g><g transform="translate(139.616 107.534)"><g transform="translate(0 0)"><g transform="translate(0 2.549)"><path d="M269.558,424.674l-2.256-20.5,4.119-1.027,1.177,13,1.177-13.584,3.923-.978,1.128,13.009,1.128-13.572,4.169-1.039-2.3,21.638-5.051,1.259-1.054-9.889-1.005,10.4Z" transform="translate(-267.302 -395.495)" fill="#70112f"/><path d="M409.073,404.2V383.138l8.435-2.1v4.071l-4.144,1.033v4.1l3.972-.99v3.972l-3.972.99v4.831l4.414-1.1v4.1Z" transform="translate(-391.001 -378.966)" fill="#70112f"/><path d="M488.326,366.457l5.714-1.424q2.3-.575,3.347.293t1.042,3.418v.932q0,3.016-2.158,4.143a1.928,1.928,0,0,1,1.864,1.129,7.487,7.487,0,0,1,.539,3.176,11.889,11.889,0,0,1-1.005,5.339,5.207,5.207,0,0,1-3.629,2.633l-5.714,1.425Zm4.978,6.679a1.014,1.014,0,0,0,.736-.588,3.034,3.034,0,0,0,.2-1.189v-2.109q0-1.03-.907-.8l-.883.22v4.684Zm1.2,7.572v-2.624a2.556,2.556,0,0,0-.282-1.376q-.282-.42-.993-.243l-.785.2v6.106l.417-.079A1.9,1.9,0,0,0,494.505,380.708Z" transform="translate(-460.152 -364.804)" fill="#70112f"/></g><g transform="translate(0.127 2.422)"><path d="M270.558,423.674l-2.256-20.5,4.119-1.027,1.177,13,1.177-13.584,3.923-.978,1.128,13.009,1.128-13.572,4.169-1.039-2.3,21.638-5.051,1.259-1.054-9.889-1.005,10.4Z" transform="translate(-268.302 -394.495)" fill="#70112f"/><path d="M410.073,403.2V382.138l8.435-2.1v4.071l-4.144,1.033v4.1l3.972-.99v3.972l-3.972.99v4.831l4.414-1.1v4.1Z" transform="translate(-392.001 -377.966)" fill="#70112f"/><path d="M489.326,365.457l5.714-1.424q2.3-.575,3.347.293t1.042,3.418v.932q0,3.016-2.158,4.143a1.928,1.928,0,0,1,1.864,1.129,7.487,7.487,0,0,1,.539,3.176,11.889,11.889,0,0,1-1.005,5.339,5.207,5.207,0,0,1-3.629,2.633l-5.714,1.425Zm4.978,6.679a1.014,1.014,0,0,0,.736-.588,3.034,3.034,0,0,0,.2-1.189v-2.109q0-1.03-.907-.8l-.883.22v4.684Zm1.2,7.572v-2.624a2.556,2.556,0,0,0-.282-1.376q-.282-.42-.993-.243l-.785.2v6.106l.417-.079A1.9,1.9,0,0,0,495.505,379.708Z" transform="translate(-461.152 -363.804)" fill="#70112f"/></g><g transform="translate(0.255 2.294)"><path d="M271.558,422.674l-2.256-20.5,4.119-1.027,1.177,13,1.177-13.584,3.923-.978,1.128,13.009,1.128-13.572,4.169-1.039-2.3,21.638-5.051,1.259-1.054-9.889-1.005,10.4Z" transform="translate(-269.302 -393.495)" fill="#70112f"/><path d="M411.073,402.2V381.138l8.435-2.1v4.071l-4.144,1.033v4.1l3.972-.99v3.972l-3.972.99v4.831l4.414-1.1v4.1Z" transform="translate(-393.001 -376.966)" fill="#70112f"/><path d="M490.326,364.457l5.714-1.424q2.3-.575,3.347.293t1.042,3.418v.932q0,3.016-2.158,4.143a1.928,1.928,0,0,1,1.864,1.129,7.488,7.488,0,0,1,.539,3.176,11.889,11.889,0,0,1-1.005,5.339,5.207,5.207,0,0,1-3.629,2.633l-5.714,1.425Zm4.978,6.679a1.014,1.014,0,0,0,.736-.588,3.035,3.035,0,0,0,.2-1.189v-2.109q0-1.03-.907-.8l-.883.22v4.684Zm1.2,7.572v-2.624a2.556,2.556,0,0,0-.282-1.376q-.282-.42-.993-.243l-.785.2v6.106l.417-.079A1.9,1.9,0,0,0,496.505,378.708Z" transform="translate(-462.152 -362.804)" fill="#70112f"/></g><g transform="translate(0.382 2.167)"><path d="M272.558,421.674l-2.256-20.5,4.119-1.027,1.177,13,1.177-13.584,3.923-.978,1.128,13.009,1.128-13.572,4.169-1.039-2.3,21.638-5.051,1.259-1.054-9.889-1.005,10.4Z" transform="translate(-270.302 -392.495)" fill="#70112f"/><path d="M412.073,401.2V380.138l8.435-2.1v4.071l-4.144,1.033v4.1l3.972-.99v3.972l-3.972.99v4.831l4.414-1.1v4.095Z" transform="translate(-394.001 -375.966)" fill="#70112f"/><path d="M491.326,363.457l5.714-1.424q2.3-.575,3.347.293t1.042,3.418v.932q0,3.016-2.158,4.143a1.928,1.928,0,0,1,1.864,1.129,7.488,7.488,0,0,1,.539,3.176,11.889,11.889,0,0,1-1.005,5.339,5.207,5.207,0,0,1-3.629,2.633l-5.714,1.425Zm4.978,6.679a1.014,1.014,0,0,0,.736-.588,3.035,3.035,0,0,0,.2-1.189v-2.109q0-1.03-.907-.8l-.883.22v4.684Zm1.2,7.572v-2.624a2.556,2.556,0,0,0-.282-1.376q-.282-.42-.993-.243l-.785.2v6.106l.417-.079A1.9,1.9,0,0,0,497.505,377.708Z" transform="translate(-463.152 -361.804)" fill="#70112f"/></g><g transform="translate(0.51 2.04)"><path d="M273.558,420.674l-2.256-20.5,4.119-1.027,1.177,13,1.177-13.584,3.923-.978,1.128,13.009,1.128-13.572,4.169-1.039-2.3,21.638-5.051,1.259-1.054-9.889-1.005,10.4Z" transform="translate(-271.302 -391.495)" fill="#70112f"/><path d="M413.073,400.2V379.138l8.435-2.1v4.071l-4.144,1.033v4.1l3.972-.99v3.972l-3.972.99v4.831l4.414-1.1v4.095Z" transform="translate(-395.001 -374.966)" fill="#70112f"/><path d="M492.326,362.457l5.714-1.424q2.3-.575,3.347.293t1.042,3.418v.932q0,3.016-2.158,4.143a1.928,1.928,0,0,1,1.864,1.129,7.488,7.488,0,0,1,.539,3.176,11.889,11.889,0,0,1-1.005,5.339,5.207,5.207,0,0,1-3.629,2.633l-5.714,1.425Zm4.978,6.679a1.014,1.014,0,0,0,.736-.588,3.035,3.035,0,0,0,.2-1.189v-2.109q0-1.03-.907-.8l-.883.22v4.684Zm1.2,7.572v-2.624a2.556,2.556,0,0,0-.282-1.376q-.282-.42-.993-.243l-.785.2v6.106l.417-.079A1.9,1.9,0,0,0,498.505,376.708Z" transform="translate(-464.152 -360.804)" fill="#70112f"/></g><g transform="translate(0.637 1.912)"><path d="M274.558,419.674l-2.256-20.5,4.119-1.027,1.177,13,1.177-13.584,3.923-.978,1.128,13.009,1.128-13.572,4.169-1.039-2.3,21.638-5.051,1.259-1.054-9.889-1.005,10.4Z" transform="translate(-272.302 -390.495)" fill="#70112f"/><path d="M414.073,399.2V378.138l8.435-2.1v4.07l-4.144,1.033v4.1l3.972-.99v3.972l-3.972.99v4.831l4.414-1.1v4.095Z" transform="translate(-396.001 -373.966)" fill="#70112f"/><path d="M493.326,361.457l5.714-1.424q2.3-.575,3.347.293t1.042,3.418v.932q0,3.016-2.158,4.143a1.928,1.928,0,0,1,1.864,1.129,7.488,7.488,0,0,1,.539,3.176,11.889,11.889,0,0,1-1.005,5.339,5.207,5.207,0,0,1-3.629,2.633l-5.714,1.425Zm4.978,6.679a1.014,1.014,0,0,0,.736-.588,3.035,3.035,0,0,0,.2-1.189v-2.109q0-1.03-.907-.8l-.883.22v4.684Zm1.2,7.572v-2.624a2.556,2.556,0,0,0-.282-1.376q-.282-.42-.993-.243l-.785.2v6.106l.417-.079A1.9,1.9,0,0,0,499.505,375.708Z" transform="translate(-465.152 -359.804)" fill="#70112f"/></g><g transform="translate(0.765 1.785)"><path d="M275.558,418.674l-2.256-20.5,4.119-1.027,1.177,13,1.177-13.584,3.923-.978,1.128,13.009,1.128-13.572,4.169-1.039-2.3,21.638-5.051,1.259-1.054-9.889-1.005,10.4Z" transform="translate(-273.302 -389.495)" fill="#70112f"/><path d="M415.073,398.2V377.138l8.435-2.1v4.071l-4.144,1.033v4.095l3.972-.99v3.972l-3.972.99v4.831l4.414-1.1v4.1Z" transform="translate(-397.001 -372.966)" fill="#70112f"/><path d="M494.326,360.457l5.714-1.424q2.3-.575,3.347.293t1.042,3.418v.932q0,3.016-2.158,4.143a1.928,1.928,0,0,1,1.864,1.129,7.488,7.488,0,0,1,.539,3.176,11.89,11.89,0,0,1-1.005,5.339,5.207,5.207,0,0,1-3.629,2.633l-5.714,1.425Zm4.978,6.679a1.014,1.014,0,0,0,.736-.588,3.035,3.035,0,0,0,.2-1.189v-2.109q0-1.03-.907-.8l-.883.22v4.684Zm1.2,7.572v-2.624a2.556,2.556,0,0,0-.282-1.376q-.282-.42-.993-.243l-.785.2v6.106l.417-.079A1.9,1.9,0,0,0,500.505,374.708Z" transform="translate(-466.152 -358.804)" fill="#70112f"/></g><g transform="translate(0.892 1.657)"><path d="M276.558,417.674l-2.256-20.5,4.119-1.027,1.177,13,1.177-13.584,3.923-.978,1.128,13.009,1.128-13.572,4.169-1.039-2.3,21.638-5.051,1.259-1.054-9.889-1.005,10.4Z" transform="translate(-274.302 -388.495)" fill="#70112f"/><path d="M416.073,397.2V376.138l8.435-2.1v4.07l-4.144,1.033v4.095l3.972-.99v3.972l-3.972.99v4.831l4.414-1.1v4.1Z" transform="translate(-398.001 -371.966)" fill="#70112f"/><path d="M495.326,359.457l5.713-1.424q2.3-.575,3.347.293t1.042,3.418v.932q0,3.016-2.158,4.143a1.928,1.928,0,0,1,1.864,1.129,7.488,7.488,0,0,1,.539,3.176,11.89,11.89,0,0,1-1.005,5.339,5.207,5.207,0,0,1-3.629,2.633l-5.713,1.425Zm4.978,6.679a1.014,1.014,0,0,0,.736-.588,3.034,3.034,0,0,0,.2-1.189v-2.109q0-1.03-.907-.8l-.883.22v4.684Zm1.2,7.572v-2.624a2.556,2.556,0,0,0-.282-1.376q-.282-.42-.993-.243l-.785.2v6.106l.417-.079A1.9,1.9,0,0,0,501.505,373.708Z" transform="translate(-467.152 -357.804)" fill="#70112f"/></g><g transform="translate(1.02 1.53)"><path d="M277.558,416.674l-2.256-20.5,4.119-1.027,1.177,13,1.177-13.584,3.923-.978,1.128,13.009,1.128-13.572,4.169-1.039-2.3,21.638-5.051,1.259-1.054-9.889-1.005,10.4Z" transform="translate(-275.302 -387.495)" fill="#70112f"/><path d="M417.073,396.2V375.138l8.435-2.1v4.07l-4.144,1.033v4.095l3.972-.99v3.972l-3.972.99v4.831l4.414-1.1v4.095Z" transform="translate(-399.001 -370.966)" fill="#70112f"/><path d="M496.326,358.457l5.713-1.424q2.3-.575,3.347.293t1.042,3.418v.932q0,3.016-2.158,4.143a1.928,1.928,0,0,1,1.864,1.129,7.488,7.488,0,0,1,.539,3.176,11.89,11.89,0,0,1-1.005,5.339,5.207,5.207,0,0,1-3.629,2.633l-5.713,1.425Zm4.978,6.679a1.015,1.015,0,0,0,.736-.588,3.034,3.034,0,0,0,.2-1.189v-2.109q0-1.03-.907-.8l-.883.22v4.684Zm1.2,7.572v-2.624a2.555,2.555,0,0,0-.282-1.376q-.282-.42-.993-.243l-.785.2v6.106l.417-.079A1.9,1.9,0,0,0,502.505,372.708Z" transform="translate(-468.152 -356.804)" fill="#70112f"/></g><g transform="translate(1.147 1.402)"><path d="M278.558,415.674l-2.256-20.5,4.119-1.027,1.177,13,1.177-13.584,3.923-.978,1.128,13.009,1.128-13.572,4.169-1.039-2.3,21.638-5.051,1.259-1.054-9.889-1.005,10.4Z" transform="translate(-276.302 -386.495)" fill="#70112f"/><path d="M418.073,395.2V374.138l8.435-2.1v4.07l-4.144,1.033v4.095l3.972-.99v3.972l-3.972.99v4.831l4.414-1.1v4.095Z" transform="translate(-400.001 -369.966)" fill="#70112f"/><path d="M497.326,357.457l5.713-1.424q2.3-.575,3.347.293t1.042,3.418v.932q0,3.016-2.158,4.143a1.928,1.928,0,0,1,1.864,1.129,7.488,7.488,0,0,1,.539,3.176,11.89,11.89,0,0,1-1.005,5.339,5.207,5.207,0,0,1-3.629,2.633l-5.713,1.425Zm4.978,6.679a1.014,1.014,0,0,0,.736-.588,3.034,3.034,0,0,0,.2-1.189v-2.109q0-1.03-.907-.8l-.883.22v4.684Zm1.2,7.572v-2.624a2.555,2.555,0,0,0-.282-1.376q-.282-.42-.993-.243l-.785.2v6.106l.417-.079A1.9,1.9,0,0,0,503.505,371.708Z" transform="translate(-469.152 -355.804)" fill="#70112f"/></g><g transform="translate(1.275 1.275)"><path d="M279.558,414.674l-2.256-20.5,4.119-1.027,1.177,13,1.177-13.584,3.923-.978,1.128,13.009,1.128-13.572,4.169-1.039-2.3,21.638-5.051,1.259-1.054-9.889-1.005,10.4Z" transform="translate(-277.302 -385.495)" fill="#70112f"/><path d="M419.073,394.2V373.138l8.435-2.1v4.07l-4.144,1.033v4.095l3.972-.99v3.972l-3.972.99v4.831l4.414-1.1v4.095Z" transform="translate(-401.001 -368.966)" fill="#70112f"/><path d="M498.326,356.457l5.713-1.424q2.3-.575,3.347.293t1.042,3.418v.932q0,3.016-2.158,4.143a1.928,1.928,0,0,1,1.864,1.129,7.488,7.488,0,0,1,.539,3.176,11.89,11.89,0,0,1-1.005,5.339,5.207,5.207,0,0,1-3.629,2.633l-5.713,1.425Zm4.978,6.679a1.014,1.014,0,0,0,.736-.588,3.034,3.034,0,0,0,.2-1.189v-2.109q0-1.03-.907-.8l-.883.22v4.684Zm1.2,7.572v-2.624a2.555,2.555,0,0,0-.282-1.376q-.282-.42-.993-.243l-.785.2v6.106l.417-.079A1.9,1.9,0,0,0,504.505,370.708Z" transform="translate(-470.152 -354.804)" fill="#70112f"/></g><g transform="translate(1.402 1.147)"><path d="M280.558,413.674l-2.256-20.5,4.119-1.027,1.177,13,1.177-13.584,3.923-.978,1.128,13.009,1.128-13.572,4.169-1.039-2.3,21.638-5.051,1.259-1.054-9.889-1.005,10.4Z" transform="translate(-278.302 -384.495)" fill="#70112f"/><path d="M420.073,393.2V372.138l8.435-2.1v4.07l-4.144,1.033v4.095l3.972-.99v3.972l-3.972.99v4.831l4.414-1.1v4.095Z" transform="translate(-402.001 -367.966)" fill="#70112f"/><path d="M499.326,355.457l5.713-1.424q2.3-.575,3.347.293t1.042,3.418v.932q0,3.016-2.158,4.143a1.928,1.928,0,0,1,1.864,1.129,7.488,7.488,0,0,1,.539,3.176,11.89,11.89,0,0,1-1.005,5.339,5.207,5.207,0,0,1-3.629,2.633l-5.713,1.425Zm4.978,6.679a1.014,1.014,0,0,0,.736-.588,3.034,3.034,0,0,0,.2-1.189v-2.109q0-1.03-.907-.8l-.883.22v4.684Zm1.2,7.572v-2.624a2.555,2.555,0,0,0-.282-1.376q-.282-.42-.993-.243l-.785.2v6.106l.417-.079A1.9,1.9,0,0,0,505.505,369.708Z" transform="translate(-471.152 -353.804)" fill="#70112f"/></g><g transform="translate(1.53 1.02)"><path d="M281.558,412.674l-2.256-20.5,4.119-1.027,1.177,13,1.177-13.584,3.923-.978,1.128,13.009,1.128-13.572,4.169-1.039-2.3,21.638-5.051,1.259-1.054-9.889-1.005,10.4Z" transform="translate(-279.302 -383.495)" fill="#70112f"/><path d="M421.073,392.2V371.138l8.435-2.1v4.07l-4.144,1.033v4.095l3.972-.99v3.972l-3.972.99v4.831l4.414-1.1v4.095Z" transform="translate(-403.001 -366.966)" fill="#70112f"/><path d="M500.326,354.457l5.713-1.424q2.3-.575,3.347.293t1.042,3.418v.932q0,3.016-2.158,4.143a1.928,1.928,0,0,1,1.864,1.129,7.488,7.488,0,0,1,.539,3.176,11.89,11.89,0,0,1-1.005,5.339,5.207,5.207,0,0,1-3.629,2.633l-5.713,1.425Zm4.978,6.679a1.014,1.014,0,0,0,.736-.588,3.034,3.034,0,0,0,.2-1.189v-2.109q0-1.03-.907-.8l-.883.22v4.684Zm1.2,7.572v-2.624a2.555,2.555,0,0,0-.282-1.376q-.282-.42-.993-.243l-.785.2v6.106l.417-.079A1.9,1.9,0,0,0,506.505,368.708Z" transform="translate(-472.152 -352.804)" fill="#70112f"/></g><g transform="translate(1.657 0.892)"><path d="M282.558,411.674l-2.256-20.5,4.119-1.027,1.177,13,1.177-13.584,3.923-.978,1.128,13.009,1.128-13.572,4.169-1.039-2.3,21.638-5.051,1.259-1.054-9.889-1.005,10.4Z" transform="translate(-280.302 -382.495)" fill="#70112f"/><path d="M422.073,391.2V370.138l8.435-2.1v4.07l-4.144,1.033v4.095l3.972-.99v3.972l-3.972.99v4.831l4.414-1.1v4.095Z" transform="translate(-404.001 -365.966)" fill="#70112f"/><path d="M501.326,353.457l5.713-1.424q2.3-.575,3.347.293t1.042,3.418v.932q0,3.016-2.158,4.143a1.928,1.928,0,0,1,1.864,1.129,7.488,7.488,0,0,1,.539,3.176,11.889,11.889,0,0,1-1.005,5.339,5.207,5.207,0,0,1-3.629,2.633l-5.713,1.425Zm4.978,6.679a1.014,1.014,0,0,0,.736-.588,3.035,3.035,0,0,0,.2-1.189v-2.109q0-1.03-.907-.8l-.883.22v4.684Zm1.2,7.572v-2.624a2.555,2.555,0,0,0-.282-1.376q-.282-.42-.993-.243l-.785.2v6.106l.417-.079A1.9,1.9,0,0,0,507.505,367.708Z" transform="translate(-473.152 -351.804)" fill="#70112f"/></g><g transform="translate(1.785 0.765)"><path d="M283.558,410.674l-2.256-20.5,4.119-1.027,1.177,13,1.177-13.584,3.923-.978,1.128,13.009,1.128-13.572,4.169-1.039-2.3,21.638-5.051,1.259-1.054-9.889-1.005,10.4Z" transform="translate(-281.302 -381.495)" fill="#70112f"/><path d="M423.073,390.2V369.138l8.435-2.1v4.07l-4.144,1.033v4.095l3.972-.99v3.972l-3.972.99v4.831l4.414-1.1v4.095Z" transform="translate(-405.001 -364.966)" fill="#70112f"/><path d="M502.326,352.457l5.713-1.424q2.3-.575,3.347.293t1.042,3.418v.932q0,3.016-2.158,4.143a1.928,1.928,0,0,1,1.864,1.129,7.488,7.488,0,0,1,.539,3.176,11.89,11.89,0,0,1-1.005,5.339,5.206,5.206,0,0,1-3.629,2.633l-5.713,1.425Zm4.978,6.679a1.014,1.014,0,0,0,.736-.588,3.035,3.035,0,0,0,.2-1.189v-2.109q0-1.03-.907-.8l-.883.22v4.684Zm1.2,7.572v-2.624a2.555,2.555,0,0,0-.282-1.376q-.282-.42-.993-.243l-.785.2v6.106l.417-.079A1.9,1.9,0,0,0,508.505,366.708Z" transform="translate(-474.152 -350.804)" fill="#70112f"/></g><g transform="translate(1.912 0.637)"><path d="M284.558,409.674l-2.256-20.5,4.119-1.027,1.177,13,1.177-13.584,3.923-.978,1.128,13.009,1.128-13.572,4.169-1.039-2.3,21.638-5.051,1.259-1.054-9.889-1.005,10.4Z" transform="translate(-282.302 -380.495)" fill="#70112f"/><path d="M424.073,389.2V368.138l8.435-2.1v4.071l-4.144,1.033v4.095l3.972-.99v3.972l-3.972.99v4.831l4.414-1.1v4.1Z" transform="translate(-406.001 -363.966)" fill="#70112f"/><path d="M503.326,351.457l5.713-1.424q2.3-.575,3.347.293t1.042,3.418v.932q0,3.016-2.158,4.143a1.928,1.928,0,0,1,1.864,1.129,7.488,7.488,0,0,1,.539,3.176,11.89,11.89,0,0,1-1.005,5.339,5.206,5.206,0,0,1-3.629,2.633l-5.713,1.425Zm4.978,6.679a1.014,1.014,0,0,0,.736-.588,3.035,3.035,0,0,0,.2-1.189v-2.109q0-1.03-.907-.8l-.883.22v4.684Zm1.2,7.572v-2.624a2.555,2.555,0,0,0-.282-1.376q-.282-.42-.993-.243l-.785.2v6.106l.417-.079A1.9,1.9,0,0,0,509.505,365.708Z" transform="translate(-475.152 -349.804)" fill="#70112f"/></g><g transform="translate(2.04 0.51)"><path d="M285.558,408.674l-2.256-20.5,4.119-1.027,1.177,13,1.177-13.584,3.923-.978,1.128,13.009,1.128-13.572,4.169-1.039-2.3,21.638-5.051,1.259-1.054-9.889-1.005,10.4Z" transform="translate(-283.302 -379.495)" fill="#70112f"/><path d="M425.073,388.2V367.138l8.435-2.1v4.071l-4.144,1.033v4.095l3.972-.99v3.972l-3.972.99v4.831l4.414-1.1v4.1Z" transform="translate(-407.001 -362.966)" fill="#70112f"/><path d="M504.326,350.457l5.713-1.424q2.3-.575,3.347.293t1.042,3.418v.932q0,3.016-2.158,4.143a1.928,1.928,0,0,1,1.864,1.129,7.488,7.488,0,0,1,.539,3.176,11.89,11.89,0,0,1-1.005,5.339,5.206,5.206,0,0,1-3.629,2.633l-5.713,1.425Zm4.978,6.679a1.014,1.014,0,0,0,.736-.588,3.035,3.035,0,0,0,.2-1.189v-2.109q0-1.03-.907-.8l-.883.22v4.684Zm1.2,7.572v-2.624a2.555,2.555,0,0,0-.282-1.376q-.282-.42-.993-.243l-.785.2v6.106l.417-.079A1.9,1.9,0,0,0,510.505,364.708Z" transform="translate(-476.152 -348.804)" fill="#70112f"/></g><g transform="translate(2.167 0.382)"><path d="M286.558,407.674l-2.256-20.5,4.119-1.027,1.177,13,1.177-13.584,3.923-.978,1.128,13.009,1.128-13.572,4.169-1.039-2.3,21.638-5.051,1.259-1.054-9.889-1.005,10.4Z" transform="translate(-284.302 -378.495)" fill="#70112f"/><path d="M426.073,387.2V366.138l8.435-2.1v4.071l-4.144,1.033v4.095l3.972-.99v3.972l-3.972.99v4.831l4.414-1.1v4.1Z" transform="translate(-408.001 -361.966)" fill="#70112f"/><path d="M505.326,349.457l5.714-1.424q2.3-.575,3.347.293t1.042,3.418v.932q0,3.016-2.158,4.143a1.928,1.928,0,0,1,1.864,1.129,7.488,7.488,0,0,1,.539,3.176,11.89,11.89,0,0,1-1.005,5.339,5.207,5.207,0,0,1-3.629,2.633l-5.714,1.425Zm4.978,6.679a1.014,1.014,0,0,0,.736-.588,3.035,3.035,0,0,0,.2-1.189v-2.109q0-1.03-.907-.8l-.883.22v4.684Zm1.2,7.572v-2.624a2.555,2.555,0,0,0-.282-1.376q-.282-.42-.993-.243l-.785.2v6.106l.417-.079A1.9,1.9,0,0,0,511.505,363.708Z" transform="translate(-477.152 -347.804)" fill="#70112f"/></g><g transform="translate(2.294 0.255)"><path d="M287.558,406.674l-2.256-20.5,4.119-1.027,1.177,13,1.177-13.584,3.923-.978,1.128,13.009,1.128-13.572,4.169-1.039-2.3,21.638-5.051,1.259-1.054-9.889-1.005,10.4Z" transform="translate(-285.302 -377.495)" fill="#70112f"/><path d="M427.073,386.2V365.138l8.435-2.1v4.071l-4.144,1.033v4.1l3.972-.99v3.972l-3.972.99v4.831l4.414-1.1v4.1Z" transform="translate(-409.001 -360.966)" fill="#70112f"/><path d="M506.326,348.457l5.714-1.424q2.3-.575,3.347.293t1.042,3.418v.932q0,3.016-2.158,4.143a1.928,1.928,0,0,1,1.864,1.129,7.488,7.488,0,0,1,.539,3.176,11.89,11.89,0,0,1-1.005,5.339,5.207,5.207,0,0,1-3.629,2.633l-5.714,1.425Zm4.978,6.679a1.014,1.014,0,0,0,.736-.588,3.034,3.034,0,0,0,.2-1.189v-2.109q0-1.03-.907-.8l-.883.22v4.684Zm1.2,7.572v-2.624a2.555,2.555,0,0,0-.282-1.376q-.282-.42-.993-.243l-.785.2v6.106l.417-.079A1.9,1.9,0,0,0,512.505,362.708Z" transform="translate(-478.152 -346.804)" fill="#70112f"/></g><g transform="translate(2.422 0.127)"><path d="M288.558,405.674l-2.256-20.5,4.119-1.027,1.177,13,1.177-13.584,3.923-.978,1.128,13.009,1.128-13.572,4.169-1.039-2.3,21.638-5.051,1.259-1.054-9.889-1.005,10.4Z" transform="translate(-286.302 -376.495)" fill="#70112f"/><path d="M428.073,385.2V364.138l8.435-2.1v4.071l-4.144,1.033v4.1l3.972-.99v3.972l-3.972.99v4.831l4.414-1.1v4.1Z" transform="translate(-410.001 -359.966)" fill="#70112f"/><path d="M507.326,347.457l5.714-1.424q2.3-.575,3.347.293t1.042,3.418v.932q0,3.016-2.158,4.143a1.928,1.928,0,0,1,1.864,1.129,7.488,7.488,0,0,1,.539,3.176,11.89,11.89,0,0,1-1.005,5.339,5.207,5.207,0,0,1-3.629,2.633l-5.714,1.425Zm4.978,6.679a1.014,1.014,0,0,0,.736-.588,3.034,3.034,0,0,0,.2-1.189v-2.109q0-1.03-.907-.8l-.883.22v4.684Zm1.2,7.572v-2.624a2.555,2.555,0,0,0-.282-1.376q-.282-.42-.993-.243l-.785.2v6.106l.417-.079A1.9,1.9,0,0,0,513.505,361.708Z" transform="translate(-479.152 -345.804)" fill="#70112f"/></g><g transform="translate(2.549)"><path d="M289.558,404.674l-2.256-20.5,4.119-1.027,1.177,13,1.177-13.584,3.923-.978,1.128,13.009,1.128-13.572,4.169-1.039-2.3,21.638-5.051,1.259-1.054-9.889-1.005,10.4Z" transform="translate(-287.302 -375.495)" fill="#70112f"/><path d="M429.073,384.2V363.138l8.435-2.1v4.071l-4.144,1.033v4.1l3.972-.99v3.972l-3.972.99v4.831l4.414-1.1v4.1Z" transform="translate(-411.001 -358.966)" fill="#70112f"/><path d="M508.326,346.457l5.714-1.424q2.3-.575,3.347.293t1.042,3.418v.932q0,3.016-2.158,4.143a1.928,1.928,0,0,1,1.864,1.129,7.488,7.488,0,0,1,.539,3.176,11.89,11.89,0,0,1-1.005,5.339,5.207,5.207,0,0,1-3.629,2.633l-5.714,1.425Zm4.978,6.679a1.014,1.014,0,0,0,.736-.588,3.034,3.034,0,0,0,.2-1.189v-2.109q0-1.03-.907-.8l-.883.22v4.684Zm1.2,7.572v-2.624a2.555,2.555,0,0,0-.282-1.376q-.282-.42-.993-.243l-.785.2v6.106l.417-.079A1.9,1.9,0,0,0,514.505,360.708Z" transform="translate(-480.152 -344.804)" fill="#70112f"/></g></g><g transform="translate(2.688 0.127)"><g transform="translate(0 4.524)"><path d="M288.391,385.418l3.867-.964,1.164,12.849h.254l1.169-13.493,3.69-.92,1.115,12.86h.254l1.12-13.481,3.9-.973-2.276,21.368-4.823,1.2-1.039-9.743h-.254l-1,10.313-4.921,1.227Z" transform="translate(-288.391 -381.296)" fill="#fff"/></g><g transform="translate(18.06 2.105)"><path d="M430.073,364.354l8.18-2.04v3.808l-4.144,1.033v4.358l3.972-.99v3.71l-3.972.99v5.093l4.414-1.1v3.832l-8.45,2.107Z" transform="translate(-430.073 -362.315)" fill="#fff"/></g><g transform="translate(28.163)"><path d="M509.326,347.429l5.617-1.4a6.753,6.753,0,0,1,1.6-.225,2.485,2.485,0,0,1,1.63.493c.661.551,1,1.668,1,3.32v.932a4.145,4.145,0,0,1-2.089,4.03l.058.24a1.8,1.8,0,0,1,1.75,1.057,7.406,7.406,0,0,1,.527,3.12,11.824,11.824,0,0,1-.992,5.281,5.107,5.107,0,0,1-3.546,2.567l-5.555,1.385Zm5.161,9.728a1.735,1.735,0,0,0-.415.056l-.881.22v6.359l.568-.108a2.025,2.025,0,0,0,1.746-2.1v-2.624a2.643,2.643,0,0,0-.3-1.447A.806.806,0,0,0,514.487,357.158Zm.011-8.007a1.369,1.369,0,0,0-.328.044l-.979.244v4.946l1.016-.253a1.141,1.141,0,0,0,.822-.661,3.17,3.17,0,0,0,.207-1.24v-2.109C515.236,349.32,514.835,349.151,514.5,349.151Z" transform="translate(-509.326 -345.804)" fill="#fff"/></g></g><g transform="translate(2.966 0.382)"><g transform="translate(0 4.605)"><path d="M290.57,387.909l3.362-.838,1.137,12.552h.762l1.153-13.312,3.224-.8,1.089,12.563h.762l1.105-13.3,3.372-.841-2.219,20.829-4.366,1.089-1.008-9.452-.761,0L297.2,406.53l-4.463,1.113Z" transform="translate(-290.57 -383.928)" fill="#f77e0b"/></g><g transform="translate(18.037 2.176)"><path d="M432.073,366.787l7.671-1.912v3.282L435.6,369.19v4.883l3.972-.99v3.184l-3.972.99v5.619l4.414-1.1v3.307l-7.94,1.98Z" transform="translate(-432.073 -364.875)" fill="#f77e0b"/></g><g transform="translate(28.14)"><path d="M511.326,349.374l5.424-1.352a6.5,6.5,0,0,1,1.543-.217,2.241,2.241,0,0,1,1.467.434c.6.5.9,1.551.9,3.124v.932c0,1.874-.639,3.118-1.952,3.8l.173.721a1.543,1.543,0,0,1,1.523.913,7.168,7.168,0,0,1,.5,3.009,11.58,11.58,0,0,1-.964,5.166,4.8,4.8,0,0,1-3.38,2.436l-5.239,1.306Zm4.906,9.274a1.993,1.993,0,0,0-.477.064l-1.074.268v6.867l.881-.168.01,0a2.278,2.278,0,0,0,1.933-2.35V360.7a2.871,2.871,0,0,0-.347-1.589A1.055,1.055,0,0,0,516.232,358.648Zm.011-8.007a1.618,1.618,0,0,0-.39.052l-1.173.292v5.472l1.333-.332a1.4,1.4,0,0,0,.994-.807,3.371,3.371,0,0,0,.228-1.341v-2.109C517.236,350.761,516.542,350.641,516.243,350.641Z" transform="translate(-511.326 -347.804)" fill="#f77e0b"/></g></g></g><g transform="translate(133.697 92.924)"><g transform="translate(0 0.127)"><g transform="translate(0 1.275)"><path d="M224.749,283.807a3.325,3.325,0,0,0-1.063,2.5,2.15,2.15,0,0,0,.669,1.592,2.332,2.332,0,0,0,2.263.26,6.518,6.518,0,0,0,3.024-1.835,11.431,11.431,0,0,0,2.162-2.9l.623.963a10.11,10.11,0,0,1-6.578,5.653,4.87,4.87,0,0,1-3.537-.245,2.453,2.453,0,0,1-1.448-2.287,5.367,5.367,0,0,1,2.364-4.437,2.779,2.779,0,0,1-.788-2.076,4.848,4.848,0,0,1,1.475-3.3,6.859,6.859,0,0,1,3.418-2.08,3.638,3.638,0,0,1,3,.242,2.64,2.64,0,0,1,1.054,2.339l-1.741.434a1.5,1.5,0,0,0-.522-1.363,1.826,1.826,0,0,0-1.5-.129,3.369,3.369,0,0,0-1.732,1.128,2.964,2.964,0,0,0-.861,1.974,2.272,2.272,0,0,0,.55,1.6,5.286,5.286,0,0,1,2.785-.456.673.673,0,0,1,.587.724,1.17,1.17,0,0,1-.669,1,5.785,5.785,0,0,1-1.6.638A4.573,4.573,0,0,1,224.749,283.807Z" transform="translate(-220.864 -271.055)" fill="#70112f"/><path d="M291.593,266.888q0,.11-.495,4.063l2.694-.672v1.411l-2.877.717-.055.472A3.81,3.81,0,0,1,293,276.267a3.762,3.762,0,0,1-.852,2.613,4.007,4.007,0,0,1-2.043,1.242,1.855,1.855,0,0,1-1.741-.2,1.779,1.779,0,0,1-.55-1.393,3.066,3.066,0,0,1,.037-.449l.568-5.016-.073-.018-1.484.37q-.018-.178-.018-.591a2.456,2.456,0,0,1,.165-.857l1.576-.393.586-5.13a3.553,3.553,0,0,1,1.026-.4Q291.593,265.7,291.593,266.888Zm.183,9.667a2.864,2.864,0,0,0-1.1-2.218q-.33,2.813-.33,3.234,0,.824.532.692a1.055,1.055,0,0,0,.641-.517A2.3,2.3,0,0,0,291.776,276.555Z" transform="translate(-278.436 -262.807)" fill="#70112f"/><path d="M345.269,293.26a2.674,2.674,0,0,0,.559-1.45q0-.632-.339-.777a1.143,1.143,0,0,0-.742-.044,2.559,2.559,0,0,0-1.512,1.339,4.81,4.81,0,0,0-.65,2.453,2.2,2.2,0,0,0,.632,1.822,1.738,1.738,0,0,0,1.567.26,5.725,5.725,0,0,0,2.639-1.611,10.147,10.147,0,0,0,2.052-3,2.975,2.975,0,0,1,.733.77,11.048,11.048,0,0,1-2.144,3.228,9.024,9.024,0,0,1-1.823,1.5,7.413,7.413,0,0,1-2.171.944,3.193,3.193,0,0,1-2.9-.4,3.416,3.416,0,0,1-1.136-2.814,5.771,5.771,0,0,1,1.42-3.652,6.251,6.251,0,0,1,3.4-2.259,3.523,3.523,0,0,1,2.29.043,1.468,1.468,0,0,1,.9,1.435,3.616,3.616,0,0,1-1.127,2.571,9.376,9.376,0,0,1-3.088,2l-.256-1.017A4.012,4.012,0,0,0,345.269,293.26Z" transform="translate(-324.846 -283.257)" fill="#70112f"/><path d="M416.2,274.417q0-.806-.742-.621a1.872,1.872,0,0,0-1.182,1.248,3.294,3.294,0,0,1,1.979,3.007,3.493,3.493,0,0,1-.788,2.34,3.708,3.708,0,0,1-1.979,1.226,1.663,1.663,0,0,1-1.741-.308,2.5,2.5,0,0,1-.55-1.741q0-.348.018-.518l.641-5.749a5.5,5.5,0,0,1,1.338-.535q1.118-.279,1.118.546v.037a3.182,3.182,0,0,1,1.869-1.327,1.74,1.74,0,0,1,1.283.056.936.936,0,0,1,.458.885,1.641,1.641,0,0,1-.467,1.133,2.389,2.389,0,0,1-1.219.7l-.073.018A2.316,2.316,0,0,0,416.2,274.417Zm-2.236,1.987q-.33,2.721-.33,2.739,0,.77.623.614.806-.2.806-1.5A2.261,2.261,0,0,0,413.962,276.4Z" transform="translate(-386.933 -268.011)" fill="#70112f"/><path d="M471.485,261.791a2.673,2.673,0,0,0,.559-1.449q0-.632-.339-.777a1.144,1.144,0,0,0-.742-.044,2.559,2.559,0,0,0-1.512,1.339,4.811,4.811,0,0,0-.651,2.453,2.2,2.2,0,0,0,.632,1.822,1.739,1.739,0,0,0,1.567.26,5.726,5.726,0,0,0,2.639-1.611,10.149,10.149,0,0,0,2.052-3,2.973,2.973,0,0,1,.733.77,11.046,11.046,0,0,1-2.144,3.228,9.028,9.028,0,0,1-1.823,1.5,7.418,7.418,0,0,1-2.171.944,3.193,3.193,0,0,1-2.9-.4,3.416,3.416,0,0,1-1.136-2.814,5.77,5.77,0,0,1,1.42-3.653,6.252,6.252,0,0,1,3.4-2.259,3.524,3.524,0,0,1,2.291.043,1.469,1.469,0,0,1,.9,1.435,3.616,3.616,0,0,1-1.127,2.572,9.375,9.375,0,0,1-3.088,2l-.257-1.017A4.013,4.013,0,0,0,471.485,261.791Z" transform="translate(-434.973 -255.799)" fill="#70112f"/><path d="M537.418,241.326a3.284,3.284,0,0,1,2.813.38,2.707,2.707,0,0,1,1.127,2.358,6.5,6.5,0,0,1-1.383,4.129,6.058,6.058,0,0,1-3.344,2.254,3.62,3.62,0,0,1-3.106-.343,2.869,2.869,0,0,1-1.145-2.481,6.112,6.112,0,0,1,1.411-4.017A6.684,6.684,0,0,1,537.418,241.326Zm-.357,1.573a2.366,2.366,0,0,0-1.457,1.353,6.206,6.206,0,0,0-.641,2.652,2.756,2.756,0,0,0,.431,1.652,1.137,1.137,0,0,0,1.31.37,2.4,2.4,0,0,0,1.475-1.339,4.969,4.969,0,0,0,.6-2.366,3.386,3.386,0,0,0-.422-1.874A1.075,1.075,0,0,0,537.061,242.9Z" transform="translate(-492.67 -241.182)" fill="#70112f"/></g><g transform="translate(0.127 1.147)"><path d="M225.749,282.807a3.325,3.325,0,0,0-1.063,2.5,2.15,2.15,0,0,0,.669,1.592,2.332,2.332,0,0,0,2.263.26,6.518,6.518,0,0,0,3.024-1.835,11.431,11.431,0,0,0,2.162-2.9l.623.963a10.11,10.11,0,0,1-6.578,5.653,4.87,4.87,0,0,1-3.537-.245,2.453,2.453,0,0,1-1.448-2.287,5.367,5.367,0,0,1,2.364-4.437,2.779,2.779,0,0,1-.788-2.076,4.848,4.848,0,0,1,1.475-3.3,6.86,6.86,0,0,1,3.418-2.08,3.638,3.638,0,0,1,3,.242,2.64,2.64,0,0,1,1.054,2.339l-1.741.434a1.5,1.5,0,0,0-.522-1.363,1.825,1.825,0,0,0-1.5-.129,3.369,3.369,0,0,0-1.732,1.128,2.964,2.964,0,0,0-.861,1.974,2.272,2.272,0,0,0,.55,1.6,5.286,5.286,0,0,1,2.785-.456.673.673,0,0,1,.586.724,1.17,1.17,0,0,1-.669,1,5.784,5.784,0,0,1-1.6.638A4.573,4.573,0,0,1,225.749,282.807Z" transform="translate(-221.864 -270.055)" fill="#70112f"/><path d="M292.593,265.888q0,.11-.495,4.063l2.694-.672v1.411l-2.877.717-.055.472A3.81,3.81,0,0,1,294,275.267a3.762,3.762,0,0,1-.852,2.613,4.007,4.007,0,0,1-2.043,1.242,1.855,1.855,0,0,1-1.741-.2,1.779,1.779,0,0,1-.55-1.393,3.066,3.066,0,0,1,.037-.449l.568-5.016-.073-.018-1.484.37q-.018-.178-.018-.591a2.456,2.456,0,0,1,.165-.857l1.576-.393.586-5.13a3.553,3.553,0,0,1,1.026-.4Q292.593,264.7,292.593,265.888Zm.183,9.667a2.864,2.864,0,0,0-1.1-2.218q-.33,2.813-.33,3.234,0,.824.532.692a1.055,1.055,0,0,0,.641-.517A2.3,2.3,0,0,0,292.776,275.555Z" transform="translate(-279.436 -261.807)" fill="#70112f"/><path d="M346.269,292.26a2.674,2.674,0,0,0,.559-1.45q0-.632-.339-.777a1.143,1.143,0,0,0-.742-.044,2.559,2.559,0,0,0-1.512,1.339,4.81,4.81,0,0,0-.65,2.453,2.2,2.2,0,0,0,.632,1.822,1.738,1.738,0,0,0,1.567.26,5.725,5.725,0,0,0,2.639-1.611,10.147,10.147,0,0,0,2.052-3,2.975,2.975,0,0,1,.733.77,11.048,11.048,0,0,1-2.144,3.228,9.024,9.024,0,0,1-1.823,1.5,7.413,7.413,0,0,1-2.171.944,3.193,3.193,0,0,1-2.9-.4,3.416,3.416,0,0,1-1.136-2.814,5.771,5.771,0,0,1,1.42-3.652,6.251,6.251,0,0,1,3.4-2.259,3.523,3.523,0,0,1,2.29.043,1.468,1.468,0,0,1,.9,1.435,3.616,3.616,0,0,1-1.127,2.571,9.376,9.376,0,0,1-3.088,2l-.256-1.017A4.012,4.012,0,0,0,346.269,292.26Z" transform="translate(-325.846 -282.257)" fill="#70112f"/><path d="M417.2,273.417q0-.806-.742-.621a1.872,1.872,0,0,0-1.182,1.248,3.294,3.294,0,0,1,1.979,3.007,3.493,3.493,0,0,1-.788,2.34,3.707,3.707,0,0,1-1.979,1.226,1.663,1.663,0,0,1-1.741-.308,2.5,2.5,0,0,1-.55-1.741q0-.348.018-.518l.641-5.749a5.5,5.5,0,0,1,1.338-.535q1.118-.279,1.118.546v.037a3.182,3.182,0,0,1,1.869-1.327,1.74,1.74,0,0,1,1.283.056.936.936,0,0,1,.458.885,1.641,1.641,0,0,1-.467,1.133,2.389,2.389,0,0,1-1.219.7l-.073.018A2.316,2.316,0,0,0,417.2,273.417Zm-2.236,1.987q-.33,2.721-.33,2.739,0,.77.623.614.806-.2.806-1.5A2.261,2.261,0,0,0,414.962,275.4Z" transform="translate(-387.933 -267.011)" fill="#70112f"/><path d="M472.485,260.791a2.673,2.673,0,0,0,.559-1.449q0-.632-.339-.777a1.144,1.144,0,0,0-.742-.044,2.559,2.559,0,0,0-1.512,1.339,4.811,4.811,0,0,0-.651,2.453,2.2,2.2,0,0,0,.632,1.822,1.739,1.739,0,0,0,1.567.26,5.726,5.726,0,0,0,2.639-1.611,10.149,10.149,0,0,0,2.052-3,2.972,2.972,0,0,1,.733.77,11.045,11.045,0,0,1-2.144,3.228,9.028,9.028,0,0,1-1.823,1.5,7.418,7.418,0,0,1-2.171.944,3.193,3.193,0,0,1-2.9-.4,3.416,3.416,0,0,1-1.136-2.814,5.77,5.77,0,0,1,1.42-3.653,6.252,6.252,0,0,1,3.4-2.259,3.524,3.524,0,0,1,2.29.043,1.469,1.469,0,0,1,.9,1.435,3.616,3.616,0,0,1-1.127,2.572,9.375,9.375,0,0,1-3.088,2l-.257-1.017A4.013,4.013,0,0,0,472.485,260.791Z" transform="translate(-435.973 -254.799)" fill="#70112f"/><path d="M538.418,240.326a3.284,3.284,0,0,1,2.813.38,2.707,2.707,0,0,1,1.127,2.358,6.5,6.5,0,0,1-1.383,4.129,6.058,6.058,0,0,1-3.344,2.254,3.62,3.62,0,0,1-3.106-.343,2.869,2.869,0,0,1-1.145-2.481,6.112,6.112,0,0,1,1.411-4.017A6.684,6.684,0,0,1,538.418,240.326Zm-.357,1.574a2.366,2.366,0,0,0-1.457,1.353,6.206,6.206,0,0,0-.641,2.652,2.756,2.756,0,0,0,.431,1.652,1.137,1.137,0,0,0,1.31.37,2.4,2.4,0,0,0,1.475-1.339,4.969,4.969,0,0,0,.6-2.366,3.386,3.386,0,0,0-.422-1.874A1.075,1.075,0,0,0,538.061,241.9Z" transform="translate(-493.67 -240.182)" fill="#70112f"/></g><g transform="translate(0.255 1.02)"><path d="M226.749,281.807a3.325,3.325,0,0,0-1.063,2.5,2.15,2.15,0,0,0,.669,1.592,2.332,2.332,0,0,0,2.263.26,6.518,6.518,0,0,0,3.024-1.835,11.431,11.431,0,0,0,2.162-2.9l.623.963a10.11,10.11,0,0,1-6.579,5.653,4.871,4.871,0,0,1-3.537-.245,2.453,2.453,0,0,1-1.448-2.287,5.367,5.367,0,0,1,2.364-4.437,2.779,2.779,0,0,1-.788-2.076,4.848,4.848,0,0,1,1.475-3.3,6.86,6.86,0,0,1,3.418-2.08,3.638,3.638,0,0,1,3,.242,2.64,2.64,0,0,1,1.054,2.339l-1.741.434a1.5,1.5,0,0,0-.522-1.363,1.825,1.825,0,0,0-1.5-.129,3.369,3.369,0,0,0-1.732,1.128,2.964,2.964,0,0,0-.861,1.974,2.272,2.272,0,0,0,.55,1.6,5.286,5.286,0,0,1,2.785-.456.673.673,0,0,1,.586.724,1.17,1.17,0,0,1-.669,1,5.784,5.784,0,0,1-1.6.638A4.573,4.573,0,0,1,226.749,281.807Z" transform="translate(-222.864 -269.055)" fill="#70112f"/><path d="M293.593,264.888q0,.11-.495,4.063l2.694-.672v1.411l-2.877.717-.055.472A3.81,3.81,0,0,1,295,274.267a3.762,3.762,0,0,1-.852,2.613,4.007,4.007,0,0,1-2.043,1.242,1.855,1.855,0,0,1-1.741-.2,1.779,1.779,0,0,1-.55-1.393,3.066,3.066,0,0,1,.037-.449l.568-5.016-.073-.018-1.484.37q-.018-.178-.018-.591a2.456,2.456,0,0,1,.165-.857l1.576-.393.586-5.13a3.553,3.553,0,0,1,1.026-.4Q293.593,263.7,293.593,264.888Zm.183,9.667a2.864,2.864,0,0,0-1.1-2.218q-.33,2.813-.33,3.234,0,.824.532.692a1.055,1.055,0,0,0,.641-.517A2.3,2.3,0,0,0,293.776,274.555Z" transform="translate(-280.436 -260.807)" fill="#70112f"/><path d="M347.269,291.26a2.674,2.674,0,0,0,.559-1.45q0-.632-.339-.777a1.143,1.143,0,0,0-.742-.044,2.559,2.559,0,0,0-1.512,1.339,4.81,4.81,0,0,0-.65,2.453,2.2,2.2,0,0,0,.632,1.822,1.738,1.738,0,0,0,1.567.26,5.725,5.725,0,0,0,2.639-1.611,10.147,10.147,0,0,0,2.052-3,2.975,2.975,0,0,1,.733.77,11.048,11.048,0,0,1-2.144,3.228,9.024,9.024,0,0,1-1.823,1.5,7.413,7.413,0,0,1-2.171.944,3.193,3.193,0,0,1-2.9-.4,3.416,3.416,0,0,1-1.136-2.814,5.771,5.771,0,0,1,1.42-3.652,6.251,6.251,0,0,1,3.4-2.259,3.523,3.523,0,0,1,2.29.043,1.468,1.468,0,0,1,.9,1.435,3.616,3.616,0,0,1-1.127,2.571,9.375,9.375,0,0,1-3.088,2l-.256-1.017A4.012,4.012,0,0,0,347.269,291.26Z" transform="translate(-326.846 -281.257)" fill="#70112f"/><path d="M418.2,272.417q0-.806-.742-.621a1.872,1.872,0,0,0-1.182,1.248,3.294,3.294,0,0,1,1.979,3.007,3.493,3.493,0,0,1-.788,2.34,3.707,3.707,0,0,1-1.979,1.226,1.663,1.663,0,0,1-1.741-.308,2.5,2.5,0,0,1-.55-1.741q0-.348.018-.518l.641-5.749a5.5,5.5,0,0,1,1.338-.535q1.118-.279,1.118.546v.037a3.182,3.182,0,0,1,1.869-1.327,1.74,1.74,0,0,1,1.283.056.936.936,0,0,1,.458.885,1.641,1.641,0,0,1-.467,1.133,2.389,2.389,0,0,1-1.219.7l-.073.018A2.316,2.316,0,0,0,418.2,272.417Zm-2.236,1.987q-.33,2.721-.33,2.739,0,.77.623.614.806-.2.806-1.5A2.261,2.261,0,0,0,415.962,274.4Z" transform="translate(-388.933 -266.011)" fill="#70112f"/><path d="M473.485,259.791a2.673,2.673,0,0,0,.559-1.449q0-.632-.339-.777a1.144,1.144,0,0,0-.742-.044,2.559,2.559,0,0,0-1.512,1.339,4.811,4.811,0,0,0-.651,2.453,2.2,2.2,0,0,0,.632,1.822,1.739,1.739,0,0,0,1.567.26,5.726,5.726,0,0,0,2.639-1.611,10.149,10.149,0,0,0,2.052-3,2.971,2.971,0,0,1,.733.77,11.045,11.045,0,0,1-2.144,3.228,9.028,9.028,0,0,1-1.823,1.5,7.418,7.418,0,0,1-2.171.944,3.193,3.193,0,0,1-2.9-.4,3.416,3.416,0,0,1-1.136-2.814,5.77,5.77,0,0,1,1.42-3.653,6.251,6.251,0,0,1,3.4-2.259,3.524,3.524,0,0,1,2.291.043,1.469,1.469,0,0,1,.9,1.435,3.616,3.616,0,0,1-1.127,2.572,9.375,9.375,0,0,1-3.088,2l-.257-1.017A4.013,4.013,0,0,0,473.485,259.791Z" transform="translate(-436.973 -253.799)" fill="#70112f"/><path d="M539.418,239.326a3.284,3.284,0,0,1,2.813.38,2.707,2.707,0,0,1,1.127,2.358,6.5,6.5,0,0,1-1.383,4.129,6.058,6.058,0,0,1-3.344,2.254,3.62,3.62,0,0,1-3.106-.343,2.869,2.869,0,0,1-1.145-2.481,6.112,6.112,0,0,1,1.411-4.017A6.684,6.684,0,0,1,539.418,239.326Zm-.357,1.574a2.366,2.366,0,0,0-1.457,1.353,6.206,6.206,0,0,0-.641,2.652,2.756,2.756,0,0,0,.431,1.652,1.137,1.137,0,0,0,1.31.37,2.4,2.4,0,0,0,1.475-1.339,4.969,4.969,0,0,0,.6-2.366,3.386,3.386,0,0,0-.422-1.874A1.075,1.075,0,0,0,539.061,240.9Z" transform="translate(-494.67 -239.182)" fill="#70112f"/></g><g transform="translate(0.382 0.892)"><path d="M227.749,280.807a3.325,3.325,0,0,0-1.063,2.5,2.15,2.15,0,0,0,.669,1.592,2.332,2.332,0,0,0,2.263.26,6.518,6.518,0,0,0,3.024-1.835,11.431,11.431,0,0,0,2.162-2.9l.623.963a10.11,10.11,0,0,1-6.578,5.653,4.871,4.871,0,0,1-3.537-.245,2.453,2.453,0,0,1-1.448-2.287,5.367,5.367,0,0,1,2.364-4.437,2.779,2.779,0,0,1-.788-2.076,4.848,4.848,0,0,1,1.475-3.3,6.86,6.86,0,0,1,3.418-2.08,3.638,3.638,0,0,1,3,.242,2.64,2.64,0,0,1,1.054,2.339l-1.741.434a1.5,1.5,0,0,0-.522-1.363,1.825,1.825,0,0,0-1.5-.129,3.369,3.369,0,0,0-1.732,1.128,2.964,2.964,0,0,0-.861,1.974,2.272,2.272,0,0,0,.55,1.6,5.286,5.286,0,0,1,2.785-.456.673.673,0,0,1,.586.724,1.17,1.17,0,0,1-.669,1,5.784,5.784,0,0,1-1.6.638A4.573,4.573,0,0,1,227.749,280.807Z" transform="translate(-223.864 -268.055)" fill="#70112f"/><path d="M294.593,263.888q0,.11-.495,4.063l2.694-.672v1.411l-2.877.717-.055.472A3.81,3.81,0,0,1,296,273.267a3.762,3.762,0,0,1-.852,2.613,4.007,4.007,0,0,1-2.043,1.242,1.855,1.855,0,0,1-1.741-.2,1.779,1.779,0,0,1-.55-1.393,3.066,3.066,0,0,1,.037-.449l.568-5.016-.073-.018-1.484.37q-.018-.178-.018-.591a2.456,2.456,0,0,1,.165-.857l1.576-.393.586-5.13a3.554,3.554,0,0,1,1.026-.4Q294.593,262.7,294.593,263.888Zm.183,9.667a2.864,2.864,0,0,0-1.1-2.218q-.33,2.813-.33,3.234,0,.824.532.692a1.055,1.055,0,0,0,.641-.517A2.3,2.3,0,0,0,294.776,273.555Z" transform="translate(-281.436 -259.807)" fill="#70112f"/><path d="M348.269,290.26a2.674,2.674,0,0,0,.559-1.45q0-.632-.339-.777a1.143,1.143,0,0,0-.742-.044,2.559,2.559,0,0,0-1.512,1.339,4.81,4.81,0,0,0-.65,2.453,2.2,2.2,0,0,0,.632,1.822,1.738,1.738,0,0,0,1.567.26,5.725,5.725,0,0,0,2.639-1.611,10.147,10.147,0,0,0,2.052-3,2.972,2.972,0,0,1,.733.77,11.045,11.045,0,0,1-2.144,3.228,9.023,9.023,0,0,1-1.823,1.5,7.413,7.413,0,0,1-2.171.944,3.193,3.193,0,0,1-2.9-.4,3.416,3.416,0,0,1-1.136-2.814,5.771,5.771,0,0,1,1.42-3.652,6.251,6.251,0,0,1,3.4-2.259,3.523,3.523,0,0,1,2.29.043,1.469,1.469,0,0,1,.9,1.435,3.616,3.616,0,0,1-1.127,2.571,9.375,9.375,0,0,1-3.088,2l-.256-1.017A4.012,4.012,0,0,0,348.269,290.26Z" transform="translate(-327.846 -280.257)" fill="#70112f"/><path d="M419.2,271.417q0-.806-.742-.621a1.872,1.872,0,0,0-1.182,1.248,3.294,3.294,0,0,1,1.979,3.007,3.493,3.493,0,0,1-.788,2.34,3.707,3.707,0,0,1-1.979,1.226,1.663,1.663,0,0,1-1.741-.308,2.5,2.5,0,0,1-.55-1.741q0-.348.018-.518l.641-5.749a5.5,5.5,0,0,1,1.338-.535q1.118-.279,1.118.546v.037a3.181,3.181,0,0,1,1.869-1.327,1.74,1.74,0,0,1,1.283.056.936.936,0,0,1,.458.885,1.641,1.641,0,0,1-.467,1.133,2.389,2.389,0,0,1-1.219.7l-.073.018A2.316,2.316,0,0,0,419.2,271.417Zm-2.236,1.987q-.33,2.721-.33,2.739,0,.77.623.614.806-.2.806-1.5A2.261,2.261,0,0,0,416.962,273.4Z" transform="translate(-389.933 -265.011)" fill="#70112f"/><path d="M474.485,258.791a2.673,2.673,0,0,0,.559-1.449q0-.632-.339-.777a1.144,1.144,0,0,0-.742-.044,2.559,2.559,0,0,0-1.512,1.339,4.811,4.811,0,0,0-.651,2.453,2.2,2.2,0,0,0,.632,1.822,1.739,1.739,0,0,0,1.567.26,5.726,5.726,0,0,0,2.639-1.611,10.149,10.149,0,0,0,2.052-3,2.971,2.971,0,0,1,.733.77,11.045,11.045,0,0,1-2.144,3.228,9.028,9.028,0,0,1-1.823,1.5,7.418,7.418,0,0,1-2.171.944,3.193,3.193,0,0,1-2.9-.4,3.416,3.416,0,0,1-1.136-2.814,5.77,5.77,0,0,1,1.42-3.653,6.252,6.252,0,0,1,3.4-2.259,3.524,3.524,0,0,1,2.291.043,1.469,1.469,0,0,1,.9,1.435,3.616,3.616,0,0,1-1.127,2.572,9.376,9.376,0,0,1-3.088,2l-.257-1.017A4.013,4.013,0,0,0,474.485,258.791Z" transform="translate(-437.973 -252.799)" fill="#70112f"/><path d="M540.418,238.326a3.284,3.284,0,0,1,2.813.38,2.707,2.707,0,0,1,1.127,2.358,6.5,6.5,0,0,1-1.383,4.129,6.058,6.058,0,0,1-3.344,2.254,3.62,3.62,0,0,1-3.106-.343,2.869,2.869,0,0,1-1.145-2.481,6.112,6.112,0,0,1,1.411-4.017A6.684,6.684,0,0,1,540.418,238.326Zm-.357,1.574a2.366,2.366,0,0,0-1.457,1.353,6.206,6.206,0,0,0-.641,2.652,2.756,2.756,0,0,0,.431,1.652,1.137,1.137,0,0,0,1.31.37,2.4,2.4,0,0,0,1.475-1.339,4.969,4.969,0,0,0,.6-2.366,3.386,3.386,0,0,0-.422-1.874A1.075,1.075,0,0,0,540.061,239.9Z" transform="translate(-495.67 -238.182)" fill="#70112f"/></g><g transform="translate(0.51 0.765)"><path d="M228.749,279.807a3.325,3.325,0,0,0-1.063,2.5,2.15,2.15,0,0,0,.669,1.592,2.332,2.332,0,0,0,2.263.26,6.518,6.518,0,0,0,3.024-1.835,11.431,11.431,0,0,0,2.162-2.9l.623.963a10.11,10.11,0,0,1-6.578,5.653,4.871,4.871,0,0,1-3.537-.245,2.453,2.453,0,0,1-1.448-2.287,5.367,5.367,0,0,1,2.364-4.437,2.779,2.779,0,0,1-.788-2.076,4.848,4.848,0,0,1,1.475-3.3,6.859,6.859,0,0,1,3.418-2.08,3.638,3.638,0,0,1,3,.242,2.64,2.64,0,0,1,1.054,2.339l-1.741.434a1.5,1.5,0,0,0-.522-1.363,1.825,1.825,0,0,0-1.5-.129,3.369,3.369,0,0,0-1.732,1.128,2.964,2.964,0,0,0-.861,1.974,2.272,2.272,0,0,0,.55,1.6,5.286,5.286,0,0,1,2.785-.456.673.673,0,0,1,.586.724,1.17,1.17,0,0,1-.669,1,5.785,5.785,0,0,1-1.6.638A4.573,4.573,0,0,1,228.749,279.807Z" transform="translate(-224.864 -267.055)" fill="#70112f"/><path d="M295.593,262.888q0,.11-.495,4.063l2.694-.672v1.411l-2.877.717-.055.472A3.81,3.81,0,0,1,297,272.267a3.762,3.762,0,0,1-.852,2.613,4.007,4.007,0,0,1-2.043,1.242,1.855,1.855,0,0,1-1.741-.2,1.779,1.779,0,0,1-.55-1.393,3.066,3.066,0,0,1,.037-.449l.568-5.016-.073-.018-1.484.37q-.018-.178-.018-.591a2.456,2.456,0,0,1,.165-.857l1.576-.393.586-5.13a3.554,3.554,0,0,1,1.026-.4Q295.593,261.7,295.593,262.888Zm.183,9.667a2.864,2.864,0,0,0-1.1-2.218q-.33,2.813-.33,3.234,0,.824.532.692a1.055,1.055,0,0,0,.641-.517A2.3,2.3,0,0,0,295.776,272.555Z" transform="translate(-282.436 -258.807)" fill="#70112f"/><path d="M349.269,289.26a2.674,2.674,0,0,0,.559-1.45q0-.632-.339-.777a1.143,1.143,0,0,0-.742-.044,2.559,2.559,0,0,0-1.512,1.339,4.81,4.81,0,0,0-.65,2.453,2.2,2.2,0,0,0,.632,1.822,1.738,1.738,0,0,0,1.567.26,5.725,5.725,0,0,0,2.639-1.611,10.147,10.147,0,0,0,2.052-3,2.972,2.972,0,0,1,.733.77,11.045,11.045,0,0,1-2.144,3.228,9.024,9.024,0,0,1-1.823,1.5,7.413,7.413,0,0,1-2.171.944,3.193,3.193,0,0,1-2.9-.4,3.416,3.416,0,0,1-1.136-2.814,5.771,5.771,0,0,1,1.42-3.652,6.251,6.251,0,0,1,3.4-2.259,3.523,3.523,0,0,1,2.291.043,1.469,1.469,0,0,1,.9,1.435,3.616,3.616,0,0,1-1.127,2.571,9.375,9.375,0,0,1-3.088,2l-.256-1.017A4.012,4.012,0,0,0,349.269,289.26Z" transform="translate(-328.846 -279.257)" fill="#70112f"/><path d="M420.2,270.417q0-.806-.742-.621a1.872,1.872,0,0,0-1.182,1.248,3.294,3.294,0,0,1,1.979,3.007,3.493,3.493,0,0,1-.788,2.34,3.707,3.707,0,0,1-1.979,1.226,1.663,1.663,0,0,1-1.741-.308,2.5,2.5,0,0,1-.55-1.741q0-.348.018-.518l.641-5.749a5.5,5.5,0,0,1,1.338-.535q1.118-.279,1.118.546v.037a3.182,3.182,0,0,1,1.869-1.327,1.74,1.74,0,0,1,1.283.056.936.936,0,0,1,.458.885,1.641,1.641,0,0,1-.467,1.133,2.389,2.389,0,0,1-1.219.7l-.073.018A2.316,2.316,0,0,0,420.2,270.417Zm-2.236,1.987q-.33,2.721-.33,2.739,0,.77.623.614.806-.2.806-1.5A2.261,2.261,0,0,0,417.962,272.4Z" transform="translate(-390.933 -264.011)" fill="#70112f"/><path d="M475.485,257.791a2.673,2.673,0,0,0,.559-1.449q0-.632-.339-.777a1.144,1.144,0,0,0-.742-.044,2.559,2.559,0,0,0-1.512,1.339,4.811,4.811,0,0,0-.651,2.453,2.2,2.2,0,0,0,.632,1.822,1.739,1.739,0,0,0,1.567.26,5.726,5.726,0,0,0,2.639-1.611,10.149,10.149,0,0,0,2.052-3,2.971,2.971,0,0,1,.733.77,11.046,11.046,0,0,1-2.144,3.228,9.028,9.028,0,0,1-1.823,1.5,7.418,7.418,0,0,1-2.171.944,3.193,3.193,0,0,1-2.9-.4,3.416,3.416,0,0,1-1.136-2.814,5.77,5.77,0,0,1,1.42-3.653,6.252,6.252,0,0,1,3.4-2.259,3.524,3.524,0,0,1,2.291.043,1.469,1.469,0,0,1,.9,1.435,3.616,3.616,0,0,1-1.127,2.572,9.376,9.376,0,0,1-3.088,2l-.257-1.017A4.014,4.014,0,0,0,475.485,257.791Z" transform="translate(-438.973 -251.799)" fill="#70112f"/><path d="M541.418,237.326a3.284,3.284,0,0,1,2.813.38,2.707,2.707,0,0,1,1.127,2.358,6.5,6.5,0,0,1-1.383,4.129,6.058,6.058,0,0,1-3.344,2.254,3.62,3.62,0,0,1-3.106-.343,2.869,2.869,0,0,1-1.145-2.481,6.111,6.111,0,0,1,1.411-4.017A6.684,6.684,0,0,1,541.418,237.326Zm-.357,1.573a2.366,2.366,0,0,0-1.457,1.353,6.2,6.2,0,0,0-.641,2.652,2.756,2.756,0,0,0,.431,1.652,1.137,1.137,0,0,0,1.31.37,2.4,2.4,0,0,0,1.475-1.339,4.969,4.969,0,0,0,.6-2.366,3.386,3.386,0,0,0-.422-1.874A1.075,1.075,0,0,0,541.061,238.9Z" transform="translate(-496.67 -237.182)" fill="#70112f"/></g><g transform="translate(0.637 0.637)"><path d="M229.749,278.807a3.325,3.325,0,0,0-1.063,2.5,2.15,2.15,0,0,0,.669,1.592,2.332,2.332,0,0,0,2.263.26,6.518,6.518,0,0,0,3.024-1.835,11.43,11.43,0,0,0,2.162-2.9l.623.963a10.11,10.11,0,0,1-6.578,5.653,4.871,4.871,0,0,1-3.537-.245,2.453,2.453,0,0,1-1.448-2.287,5.367,5.367,0,0,1,2.364-4.437,2.779,2.779,0,0,1-.788-2.076,4.848,4.848,0,0,1,1.475-3.3,6.859,6.859,0,0,1,3.418-2.08,3.638,3.638,0,0,1,3,.242,2.64,2.64,0,0,1,1.054,2.339l-1.741.434a1.5,1.5,0,0,0-.522-1.363,1.825,1.825,0,0,0-1.5-.129,3.369,3.369,0,0,0-1.732,1.128,2.964,2.964,0,0,0-.861,1.974,2.272,2.272,0,0,0,.55,1.6,5.286,5.286,0,0,1,2.785-.456.673.673,0,0,1,.586.724,1.17,1.17,0,0,1-.669,1,5.785,5.785,0,0,1-1.6.638A4.573,4.573,0,0,1,229.749,278.807Z" transform="translate(-225.864 -266.055)" fill="#70112f"/><path d="M296.593,261.888q0,.11-.495,4.063l2.694-.672v1.411l-2.877.717-.055.472A3.81,3.81,0,0,1,298,271.267a3.762,3.762,0,0,1-.852,2.613,4.007,4.007,0,0,1-2.043,1.242,1.855,1.855,0,0,1-1.741-.2,1.779,1.779,0,0,1-.55-1.393,3.066,3.066,0,0,1,.037-.449l.568-5.016-.073-.018-1.484.37q-.018-.178-.018-.591a2.456,2.456,0,0,1,.165-.857l1.576-.393.586-5.13a3.554,3.554,0,0,1,1.026-.4Q296.593,260.7,296.593,261.888Zm.183,9.667a2.864,2.864,0,0,0-1.1-2.218q-.33,2.813-.33,3.234,0,.824.532.692a1.055,1.055,0,0,0,.641-.517A2.3,2.3,0,0,0,296.776,271.555Z" transform="translate(-283.436 -257.807)" fill="#70112f"/><path d="M350.269,288.26a2.674,2.674,0,0,0,.559-1.45q0-.632-.339-.777a1.143,1.143,0,0,0-.742-.044,2.559,2.559,0,0,0-1.512,1.339,4.81,4.81,0,0,0-.65,2.453,2.2,2.2,0,0,0,.632,1.822,1.738,1.738,0,0,0,1.567.26,5.725,5.725,0,0,0,2.639-1.611,10.147,10.147,0,0,0,2.052-3,2.972,2.972,0,0,1,.733.77,11.044,11.044,0,0,1-2.144,3.228,9.024,9.024,0,0,1-1.823,1.5,7.413,7.413,0,0,1-2.171.944,3.193,3.193,0,0,1-2.9-.4,3.416,3.416,0,0,1-1.136-2.814,5.771,5.771,0,0,1,1.42-3.652,6.251,6.251,0,0,1,3.4-2.259,3.523,3.523,0,0,1,2.291.043,1.468,1.468,0,0,1,.9,1.435,3.615,3.615,0,0,1-1.127,2.571,9.376,9.376,0,0,1-3.088,2l-.256-1.017A4.012,4.012,0,0,0,350.269,288.26Z" transform="translate(-329.846 -278.257)" fill="#70112f"/><path d="M421.2,269.417q0-.806-.742-.621a1.872,1.872,0,0,0-1.182,1.248,3.294,3.294,0,0,1,1.979,3.007,3.493,3.493,0,0,1-.788,2.34,3.707,3.707,0,0,1-1.979,1.226,1.663,1.663,0,0,1-1.741-.308,2.5,2.5,0,0,1-.55-1.741q0-.348.018-.518l.641-5.749a5.5,5.5,0,0,1,1.338-.535q1.118-.279,1.118.546v.037a3.182,3.182,0,0,1,1.869-1.327,1.74,1.74,0,0,1,1.283.056.936.936,0,0,1,.458.885,1.641,1.641,0,0,1-.467,1.133,2.389,2.389,0,0,1-1.219.7l-.073.018A2.316,2.316,0,0,0,421.2,269.417Zm-2.236,1.987q-.33,2.721-.33,2.739,0,.77.623.614.806-.2.806-1.5A2.261,2.261,0,0,0,418.962,271.4Z" transform="translate(-391.933 -263.011)" fill="#70112f"/><path d="M476.485,256.791a2.673,2.673,0,0,0,.559-1.449q0-.632-.339-.777a1.144,1.144,0,0,0-.742-.044,2.559,2.559,0,0,0-1.512,1.339,4.811,4.811,0,0,0-.651,2.453,2.2,2.2,0,0,0,.632,1.822,1.739,1.739,0,0,0,1.567.26,5.726,5.726,0,0,0,2.639-1.611,10.149,10.149,0,0,0,2.052-3,2.971,2.971,0,0,1,.733.77,11.047,11.047,0,0,1-2.144,3.228,9.028,9.028,0,0,1-1.823,1.5,7.418,7.418,0,0,1-2.171.944,3.193,3.193,0,0,1-2.9-.4,3.416,3.416,0,0,1-1.136-2.814,5.77,5.77,0,0,1,1.42-3.653,6.252,6.252,0,0,1,3.4-2.259,3.524,3.524,0,0,1,2.291.043,1.469,1.469,0,0,1,.9,1.435,3.616,3.616,0,0,1-1.127,2.572,9.376,9.376,0,0,1-3.088,2l-.257-1.017A4.013,4.013,0,0,0,476.485,256.791Z" transform="translate(-439.973 -250.799)" fill="#70112f"/><path d="M542.418,236.326a3.284,3.284,0,0,1,2.813.38,2.707,2.707,0,0,1,1.127,2.358,6.5,6.5,0,0,1-1.383,4.129,6.058,6.058,0,0,1-3.344,2.254,3.62,3.62,0,0,1-3.106-.343,2.869,2.869,0,0,1-1.145-2.481,6.111,6.111,0,0,1,1.411-4.017A6.684,6.684,0,0,1,542.418,236.326Zm-.357,1.573a2.366,2.366,0,0,0-1.457,1.353,6.2,6.2,0,0,0-.641,2.652,2.757,2.757,0,0,0,.431,1.652,1.137,1.137,0,0,0,1.31.37,2.4,2.4,0,0,0,1.475-1.339,4.969,4.969,0,0,0,.6-2.366,3.386,3.386,0,0,0-.422-1.874A1.075,1.075,0,0,0,542.061,237.9Z" transform="translate(-497.67 -236.182)" fill="#70112f"/></g><g transform="translate(0.765 0.51)"><path d="M230.749,277.807a3.325,3.325,0,0,0-1.063,2.5,2.15,2.15,0,0,0,.669,1.592,2.332,2.332,0,0,0,2.263.26,6.519,6.519,0,0,0,3.024-1.835,11.43,11.43,0,0,0,2.162-2.9l.623.963a10.11,10.11,0,0,1-6.578,5.653,4.871,4.871,0,0,1-3.537-.245,2.453,2.453,0,0,1-1.448-2.287,5.367,5.367,0,0,1,2.364-4.437,2.779,2.779,0,0,1-.788-2.076,4.848,4.848,0,0,1,1.475-3.3,6.859,6.859,0,0,1,3.418-2.08,3.638,3.638,0,0,1,3,.242,2.64,2.64,0,0,1,1.054,2.339l-1.741.434a1.5,1.5,0,0,0-.522-1.363,1.825,1.825,0,0,0-1.5-.129,3.369,3.369,0,0,0-1.732,1.128,2.964,2.964,0,0,0-.861,1.974,2.272,2.272,0,0,0,.55,1.6,5.286,5.286,0,0,1,2.785-.456.673.673,0,0,1,.586.724,1.17,1.17,0,0,1-.669,1,5.785,5.785,0,0,1-1.6.638A4.573,4.573,0,0,1,230.749,277.807Z" transform="translate(-226.864 -265.055)" fill="#70112f"/><path d="M297.593,260.888q0,.11-.495,4.063l2.694-.672v1.411l-2.877.717-.055.472A3.81,3.81,0,0,1,299,270.267a3.762,3.762,0,0,1-.852,2.613,4.007,4.007,0,0,1-2.043,1.242,1.855,1.855,0,0,1-1.741-.2,1.779,1.779,0,0,1-.55-1.393,3.066,3.066,0,0,1,.037-.449l.568-5.016-.073-.018-1.484.37q-.018-.178-.018-.591a2.456,2.456,0,0,1,.165-.857l1.576-.393.586-5.13a3.555,3.555,0,0,1,1.026-.4Q297.593,259.7,297.593,260.888Zm.183,9.667a2.864,2.864,0,0,0-1.1-2.218q-.33,2.813-.33,3.234,0,.824.532.692a1.055,1.055,0,0,0,.641-.517A2.3,2.3,0,0,0,297.776,270.555Z" transform="translate(-284.436 -256.807)" fill="#70112f"/><path d="M351.269,287.26a2.674,2.674,0,0,0,.559-1.45q0-.632-.339-.777a1.143,1.143,0,0,0-.742-.044,2.559,2.559,0,0,0-1.512,1.339,4.81,4.81,0,0,0-.65,2.453,2.2,2.2,0,0,0,.632,1.822,1.738,1.738,0,0,0,1.567.26,5.725,5.725,0,0,0,2.639-1.611,10.147,10.147,0,0,0,2.052-3,2.972,2.972,0,0,1,.733.77,11.047,11.047,0,0,1-2.144,3.228,9.024,9.024,0,0,1-1.823,1.5,7.413,7.413,0,0,1-2.171.944,3.193,3.193,0,0,1-2.9-.4,3.416,3.416,0,0,1-1.136-2.814,5.771,5.771,0,0,1,1.42-3.652,6.251,6.251,0,0,1,3.4-2.259,3.523,3.523,0,0,1,2.291.043,1.468,1.468,0,0,1,.9,1.435,3.616,3.616,0,0,1-1.127,2.571,9.376,9.376,0,0,1-3.088,2l-.256-1.017A4.012,4.012,0,0,0,351.269,287.26Z" transform="translate(-330.846 -277.257)" fill="#70112f"/><path d="M422.2,268.417q0-.806-.742-.621a1.872,1.872,0,0,0-1.182,1.248,3.294,3.294,0,0,1,1.979,3.007,3.493,3.493,0,0,1-.788,2.34,3.707,3.707,0,0,1-1.979,1.226,1.663,1.663,0,0,1-1.741-.308,2.5,2.5,0,0,1-.55-1.741q0-.348.018-.518l.641-5.749a5.5,5.5,0,0,1,1.338-.535q1.118-.279,1.118.546v.037a3.182,3.182,0,0,1,1.869-1.327,1.74,1.74,0,0,1,1.283.056.936.936,0,0,1,.458.885,1.641,1.641,0,0,1-.467,1.133,2.389,2.389,0,0,1-1.219.7l-.073.018A2.313,2.313,0,0,0,422.2,268.417Zm-2.236,1.987q-.33,2.721-.33,2.739,0,.77.623.614.806-.2.806-1.5A2.261,2.261,0,0,0,419.962,270.4Z" transform="translate(-392.933 -262.011)" fill="#70112f"/><path d="M477.485,255.791a2.672,2.672,0,0,0,.559-1.449q0-.632-.339-.777a1.144,1.144,0,0,0-.742-.044,2.559,2.559,0,0,0-1.512,1.339,4.811,4.811,0,0,0-.651,2.453,2.2,2.2,0,0,0,.632,1.822,1.739,1.739,0,0,0,1.567.26,5.726,5.726,0,0,0,2.639-1.611,10.149,10.149,0,0,0,2.052-3,2.971,2.971,0,0,1,.733.77,11.046,11.046,0,0,1-2.144,3.228,9.028,9.028,0,0,1-1.823,1.5,7.418,7.418,0,0,1-2.171.944,3.193,3.193,0,0,1-2.9-.4,3.416,3.416,0,0,1-1.136-2.814,5.77,5.77,0,0,1,1.42-3.653,6.252,6.252,0,0,1,3.4-2.259,3.524,3.524,0,0,1,2.291.043,1.469,1.469,0,0,1,.9,1.435,3.616,3.616,0,0,1-1.127,2.572,9.376,9.376,0,0,1-3.088,2l-.257-1.017A4.013,4.013,0,0,0,477.485,255.791Z" transform="translate(-440.973 -249.799)" fill="#70112f"/><path d="M543.418,235.326a3.284,3.284,0,0,1,2.813.38,2.707,2.707,0,0,1,1.127,2.358,6.5,6.5,0,0,1-1.383,4.129,6.058,6.058,0,0,1-3.344,2.254,3.62,3.62,0,0,1-3.106-.343,2.869,2.869,0,0,1-1.145-2.481,6.111,6.111,0,0,1,1.411-4.017A6.684,6.684,0,0,1,543.418,235.326Zm-.357,1.573a2.366,2.366,0,0,0-1.457,1.353,6.2,6.2,0,0,0-.641,2.652,2.757,2.757,0,0,0,.431,1.652,1.137,1.137,0,0,0,1.31.37,2.4,2.4,0,0,0,1.475-1.339,4.969,4.969,0,0,0,.6-2.366,3.386,3.386,0,0,0-.422-1.874A1.075,1.075,0,0,0,543.061,236.9Z" transform="translate(-498.67 -235.182)" fill="#70112f"/></g><g transform="translate(0.892 0.382)"><path d="M231.749,276.807a3.325,3.325,0,0,0-1.063,2.5,2.15,2.15,0,0,0,.669,1.592,2.332,2.332,0,0,0,2.263.26,6.518,6.518,0,0,0,3.024-1.835,11.432,11.432,0,0,0,2.162-2.9l.623.963a10.11,10.11,0,0,1-6.578,5.653,4.87,4.87,0,0,1-3.537-.245,2.453,2.453,0,0,1-1.448-2.287,5.367,5.367,0,0,1,2.364-4.437,2.779,2.779,0,0,1-.788-2.076,4.848,4.848,0,0,1,1.475-3.3,6.859,6.859,0,0,1,3.418-2.08,3.638,3.638,0,0,1,3,.242,2.64,2.64,0,0,1,1.054,2.339l-1.741.434a1.5,1.5,0,0,0-.522-1.363,1.826,1.826,0,0,0-1.5-.129,3.369,3.369,0,0,0-1.732,1.128,2.964,2.964,0,0,0-.861,1.974,2.272,2.272,0,0,0,.55,1.6,5.286,5.286,0,0,1,2.785-.456.673.673,0,0,1,.586.724,1.17,1.17,0,0,1-.669,1,5.786,5.786,0,0,1-1.6.638A4.573,4.573,0,0,1,231.749,276.807Z" transform="translate(-227.864 -264.055)" fill="#70112f"/><path d="M298.593,259.888q0,.11-.495,4.063l2.694-.672v1.411l-2.877.717-.055.472A3.81,3.81,0,0,1,300,269.267a3.762,3.762,0,0,1-.852,2.613,4.008,4.008,0,0,1-2.043,1.242,1.855,1.855,0,0,1-1.741-.2,1.779,1.779,0,0,1-.55-1.393,3.066,3.066,0,0,1,.037-.449l.568-5.016-.073-.018-1.484.37q-.018-.178-.018-.591a2.457,2.457,0,0,1,.165-.857l1.576-.393.586-5.13a3.555,3.555,0,0,1,1.026-.4Q298.593,258.7,298.593,259.888Zm.183,9.667a2.864,2.864,0,0,0-1.1-2.218q-.33,2.813-.33,3.234,0,.824.532.692a1.055,1.055,0,0,0,.641-.517A2.3,2.3,0,0,0,298.776,269.555Z" transform="translate(-285.436 -255.807)" fill="#70112f"/><path d="M352.269,286.26a2.674,2.674,0,0,0,.559-1.45q0-.632-.339-.777a1.143,1.143,0,0,0-.742-.044,2.559,2.559,0,0,0-1.512,1.339,4.81,4.81,0,0,0-.65,2.453,2.2,2.2,0,0,0,.632,1.822,1.738,1.738,0,0,0,1.567.26,5.725,5.725,0,0,0,2.639-1.611,10.148,10.148,0,0,0,2.052-3,2.972,2.972,0,0,1,.733.77,11.047,11.047,0,0,1-2.144,3.228,9.024,9.024,0,0,1-1.823,1.5,7.413,7.413,0,0,1-2.171.944,3.193,3.193,0,0,1-2.9-.4,3.416,3.416,0,0,1-1.136-2.814,5.771,5.771,0,0,1,1.42-3.652,6.251,6.251,0,0,1,3.4-2.259,3.524,3.524,0,0,1,2.291.043,1.468,1.468,0,0,1,.9,1.435,3.616,3.616,0,0,1-1.127,2.571,9.376,9.376,0,0,1-3.088,2l-.256-1.017A4.012,4.012,0,0,0,352.269,286.26Z" transform="translate(-331.846 -276.257)" fill="#70112f"/><path d="M423.2,267.417q0-.806-.742-.621a1.872,1.872,0,0,0-1.182,1.248,3.294,3.294,0,0,1,1.979,3.007,3.493,3.493,0,0,1-.788,2.34,3.707,3.707,0,0,1-1.979,1.226,1.663,1.663,0,0,1-1.741-.308,2.5,2.5,0,0,1-.55-1.741q0-.348.018-.518l.641-5.749a5.5,5.5,0,0,1,1.338-.535q1.118-.279,1.118.546v.037a3.182,3.182,0,0,1,1.869-1.327,1.74,1.74,0,0,1,1.283.056.936.936,0,0,1,.458.884,1.641,1.641,0,0,1-.467,1.133,2.389,2.389,0,0,1-1.219.7l-.073.018A2.313,2.313,0,0,0,423.2,267.417Zm-2.236,1.987q-.33,2.721-.33,2.739,0,.77.623.614.806-.2.806-1.5A2.261,2.261,0,0,0,420.962,269.4Z" transform="translate(-393.933 -261.011)" fill="#70112f"/><path d="M478.485,254.791a2.672,2.672,0,0,0,.559-1.449q0-.632-.339-.777a1.144,1.144,0,0,0-.742-.044,2.559,2.559,0,0,0-1.512,1.339,4.811,4.811,0,0,0-.651,2.453,2.2,2.2,0,0,0,.632,1.822,1.739,1.739,0,0,0,1.567.26,5.726,5.726,0,0,0,2.639-1.611,10.149,10.149,0,0,0,2.052-3,2.972,2.972,0,0,1,.733.77,11.046,11.046,0,0,1-2.144,3.228,9.028,9.028,0,0,1-1.823,1.5,7.418,7.418,0,0,1-2.171.944,3.193,3.193,0,0,1-2.9-.4,3.416,3.416,0,0,1-1.136-2.814,5.77,5.77,0,0,1,1.42-3.653,6.252,6.252,0,0,1,3.4-2.259,3.524,3.524,0,0,1,2.291.043,1.469,1.469,0,0,1,.9,1.435,3.616,3.616,0,0,1-1.127,2.572,9.376,9.376,0,0,1-3.088,2l-.257-1.017A4.013,4.013,0,0,0,478.485,254.791Z" transform="translate(-441.973 -248.799)" fill="#70112f"/><path d="M544.418,234.326a3.284,3.284,0,0,1,2.813.38,2.707,2.707,0,0,1,1.127,2.358,6.5,6.5,0,0,1-1.383,4.129,6.057,6.057,0,0,1-3.344,2.254,3.62,3.62,0,0,1-3.106-.343,2.869,2.869,0,0,1-1.145-2.481,6.112,6.112,0,0,1,1.411-4.017A6.684,6.684,0,0,1,544.418,234.326Zm-.357,1.573a2.366,2.366,0,0,0-1.457,1.353,6.2,6.2,0,0,0-.641,2.652,2.757,2.757,0,0,0,.431,1.652,1.137,1.137,0,0,0,1.31.37,2.4,2.4,0,0,0,1.475-1.339,4.969,4.969,0,0,0,.6-2.366,3.386,3.386,0,0,0-.422-1.874A1.075,1.075,0,0,0,544.061,235.9Z" transform="translate(-499.67 -234.182)" fill="#70112f"/></g><g transform="translate(1.02 0.255)"><path d="M232.749,275.807a3.325,3.325,0,0,0-1.063,2.5,2.15,2.15,0,0,0,.669,1.592,2.332,2.332,0,0,0,2.263.26,6.518,6.518,0,0,0,3.024-1.835,11.431,11.431,0,0,0,2.162-2.9l.623.963a10.11,10.11,0,0,1-6.578,5.653,4.87,4.87,0,0,1-3.537-.245,2.453,2.453,0,0,1-1.448-2.287,5.367,5.367,0,0,1,2.364-4.437,2.779,2.779,0,0,1-.788-2.076,4.848,4.848,0,0,1,1.475-3.3,6.859,6.859,0,0,1,3.418-2.08,3.638,3.638,0,0,1,3,.242,2.64,2.64,0,0,1,1.054,2.339l-1.741.434a1.5,1.5,0,0,0-.522-1.363,1.826,1.826,0,0,0-1.5-.129,3.369,3.369,0,0,0-1.732,1.128,2.964,2.964,0,0,0-.861,1.974,2.272,2.272,0,0,0,.55,1.6,5.286,5.286,0,0,1,2.785-.456.673.673,0,0,1,.586.724,1.17,1.17,0,0,1-.669,1,5.785,5.785,0,0,1-1.6.638A4.573,4.573,0,0,1,232.749,275.807Z" transform="translate(-228.864 -263.055)" fill="#70112f"/><path d="M299.593,258.888q0,.11-.495,4.063l2.694-.672v1.411l-2.877.717-.055.472A3.81,3.81,0,0,1,301,268.267a3.762,3.762,0,0,1-.852,2.613,4.008,4.008,0,0,1-2.043,1.242,1.855,1.855,0,0,1-1.741-.2,1.779,1.779,0,0,1-.55-1.393,3.067,3.067,0,0,1,.037-.449l.568-5.016-.073-.018-1.484.37q-.018-.178-.018-.591a2.457,2.457,0,0,1,.165-.857l1.576-.393.586-5.13a3.553,3.553,0,0,1,1.026-.4Q299.593,257.7,299.593,258.888Zm.183,9.667a2.864,2.864,0,0,0-1.1-2.218q-.33,2.813-.33,3.234,0,.824.532.692a1.055,1.055,0,0,0,.641-.517A2.3,2.3,0,0,0,299.776,268.555Z" transform="translate(-286.436 -254.807)" fill="#70112f"/><path d="M353.269,285.26a2.674,2.674,0,0,0,.559-1.45q0-.632-.339-.777a1.143,1.143,0,0,0-.742-.044,2.559,2.559,0,0,0-1.512,1.339,4.81,4.81,0,0,0-.65,2.453,2.2,2.2,0,0,0,.632,1.822,1.738,1.738,0,0,0,1.567.26,5.725,5.725,0,0,0,2.639-1.611,10.145,10.145,0,0,0,2.052-3,2.97,2.97,0,0,1,.733.77,11.048,11.048,0,0,1-2.144,3.228,9.024,9.024,0,0,1-1.823,1.5,7.413,7.413,0,0,1-2.171.944,3.193,3.193,0,0,1-2.9-.4,3.416,3.416,0,0,1-1.136-2.814,5.771,5.771,0,0,1,1.42-3.652,6.251,6.251,0,0,1,3.4-2.259,3.524,3.524,0,0,1,2.291.043,1.468,1.468,0,0,1,.9,1.435,3.616,3.616,0,0,1-1.127,2.571,9.376,9.376,0,0,1-3.088,2l-.256-1.017A4.012,4.012,0,0,0,353.269,285.26Z" transform="translate(-332.846 -275.257)" fill="#70112f"/><path d="M424.2,266.417q0-.806-.742-.621a1.872,1.872,0,0,0-1.182,1.248,3.294,3.294,0,0,1,1.979,3.007,3.493,3.493,0,0,1-.788,2.34,3.707,3.707,0,0,1-1.979,1.226,1.663,1.663,0,0,1-1.741-.308,2.5,2.5,0,0,1-.55-1.741q0-.348.018-.518l.641-5.749a5.5,5.5,0,0,1,1.338-.535q1.118-.279,1.118.546v.037a3.182,3.182,0,0,1,1.869-1.327,1.74,1.74,0,0,1,1.283.056.936.936,0,0,1,.458.885,1.641,1.641,0,0,1-.467,1.133,2.389,2.389,0,0,1-1.219.7l-.073.018A2.313,2.313,0,0,0,424.2,266.417Zm-2.236,1.987q-.33,2.721-.33,2.739,0,.77.623.614.806-.2.806-1.5A2.261,2.261,0,0,0,421.962,268.4Z" transform="translate(-394.933 -260.011)" fill="#70112f"/><path d="M479.485,253.791a2.672,2.672,0,0,0,.559-1.449q0-.632-.339-.777a1.144,1.144,0,0,0-.742-.044,2.559,2.559,0,0,0-1.512,1.339,4.811,4.811,0,0,0-.651,2.453,2.2,2.2,0,0,0,.632,1.822,1.739,1.739,0,0,0,1.567.26,5.726,5.726,0,0,0,2.639-1.611,10.15,10.15,0,0,0,2.052-3,2.972,2.972,0,0,1,.733.77,11.046,11.046,0,0,1-2.144,3.228,9.028,9.028,0,0,1-1.823,1.5,7.418,7.418,0,0,1-2.171.944,3.193,3.193,0,0,1-2.9-.4,3.416,3.416,0,0,1-1.136-2.814,5.77,5.77,0,0,1,1.42-3.653,6.252,6.252,0,0,1,3.4-2.259,3.524,3.524,0,0,1,2.291.043,1.469,1.469,0,0,1,.9,1.435,3.616,3.616,0,0,1-1.127,2.572,9.376,9.376,0,0,1-3.088,2l-.257-1.017A4.013,4.013,0,0,0,479.485,253.791Z" transform="translate(-442.973 -247.799)" fill="#70112f"/><path d="M545.418,233.326a3.284,3.284,0,0,1,2.813.38,2.707,2.707,0,0,1,1.127,2.358,6.5,6.5,0,0,1-1.383,4.129,6.057,6.057,0,0,1-3.344,2.254,3.62,3.62,0,0,1-3.106-.343,2.869,2.869,0,0,1-1.145-2.481,6.112,6.112,0,0,1,1.411-4.017A6.684,6.684,0,0,1,545.418,233.326Zm-.357,1.573a2.366,2.366,0,0,0-1.457,1.353,6.2,6.2,0,0,0-.641,2.652,2.757,2.757,0,0,0,.431,1.652,1.137,1.137,0,0,0,1.31.37,2.4,2.4,0,0,0,1.475-1.339,4.969,4.969,0,0,0,.6-2.366,3.386,3.386,0,0,0-.422-1.874A1.075,1.075,0,0,0,545.061,234.9Z" transform="translate(-500.67 -233.182)" fill="#70112f"/></g><g transform="translate(1.147 0.127)"><path d="M233.749,274.807a3.325,3.325,0,0,0-1.063,2.5,2.15,2.15,0,0,0,.669,1.592,2.332,2.332,0,0,0,2.263.26,6.518,6.518,0,0,0,3.024-1.835,11.431,11.431,0,0,0,2.162-2.9l.623.963a10.11,10.11,0,0,1-6.578,5.653,4.87,4.87,0,0,1-3.537-.245,2.453,2.453,0,0,1-1.448-2.287,5.367,5.367,0,0,1,2.364-4.437,2.779,2.779,0,0,1-.788-2.076,4.848,4.848,0,0,1,1.475-3.3,6.859,6.859,0,0,1,3.418-2.08,3.638,3.638,0,0,1,3,.242,2.64,2.64,0,0,1,1.054,2.339l-1.741.434a1.5,1.5,0,0,0-.522-1.363,1.826,1.826,0,0,0-1.5-.129,3.369,3.369,0,0,0-1.732,1.128,2.964,2.964,0,0,0-.861,1.974,2.272,2.272,0,0,0,.55,1.6,5.286,5.286,0,0,1,2.785-.456.673.673,0,0,1,.587.724,1.17,1.17,0,0,1-.669,1,5.786,5.786,0,0,1-1.6.638A4.573,4.573,0,0,1,233.749,274.807Z" transform="translate(-229.864 -262.055)" fill="#70112f"/><path d="M300.593,257.888q0,.11-.495,4.063l2.694-.672v1.411l-2.877.717-.055.472A3.81,3.81,0,0,1,302,267.267a3.762,3.762,0,0,1-.852,2.613,4.008,4.008,0,0,1-2.043,1.242,1.855,1.855,0,0,1-1.741-.2,1.779,1.779,0,0,1-.55-1.393,3.066,3.066,0,0,1,.037-.449l.568-5.016-.073-.018-1.484.37q-.018-.178-.018-.591a2.456,2.456,0,0,1,.165-.857l1.576-.393.586-5.13a3.553,3.553,0,0,1,1.026-.4Q300.593,256.7,300.593,257.888Zm.183,9.667a2.864,2.864,0,0,0-1.1-2.218q-.33,2.813-.33,3.234,0,.824.532.692a1.055,1.055,0,0,0,.641-.517A2.3,2.3,0,0,0,300.776,267.555Z" transform="translate(-287.436 -253.807)" fill="#70112f"/><path d="M354.269,284.26a2.674,2.674,0,0,0,.559-1.45q0-.632-.339-.777a1.143,1.143,0,0,0-.742-.044,2.559,2.559,0,0,0-1.512,1.339,4.81,4.81,0,0,0-.65,2.453,2.2,2.2,0,0,0,.632,1.822,1.738,1.738,0,0,0,1.567.26,5.725,5.725,0,0,0,2.639-1.611,10.145,10.145,0,0,0,2.052-3,2.97,2.97,0,0,1,.733.77,11.048,11.048,0,0,1-2.144,3.228,9.024,9.024,0,0,1-1.823,1.5,7.414,7.414,0,0,1-2.171.944,3.193,3.193,0,0,1-2.9-.4,3.416,3.416,0,0,1-1.136-2.814,5.771,5.771,0,0,1,1.42-3.652,6.251,6.251,0,0,1,3.4-2.259,3.523,3.523,0,0,1,2.291.043,1.468,1.468,0,0,1,.9,1.435,3.616,3.616,0,0,1-1.127,2.571,9.376,9.376,0,0,1-3.088,2l-.256-1.017A4.012,4.012,0,0,0,354.269,284.26Z" transform="translate(-333.846 -274.257)" fill="#70112f"/><path d="M425.2,265.417q0-.806-.742-.621a1.872,1.872,0,0,0-1.182,1.248,3.294,3.294,0,0,1,1.979,3.007,3.493,3.493,0,0,1-.788,2.34,3.708,3.708,0,0,1-1.979,1.226,1.663,1.663,0,0,1-1.741-.308,2.5,2.5,0,0,1-.55-1.741q0-.348.018-.518l.641-5.749a5.5,5.5,0,0,1,1.338-.535q1.118-.279,1.118.546v.037a3.182,3.182,0,0,1,1.869-1.327,1.74,1.74,0,0,1,1.283.056.936.936,0,0,1,.458.885,1.641,1.641,0,0,1-.467,1.133,2.389,2.389,0,0,1-1.219.7l-.073.018A2.313,2.313,0,0,0,425.2,265.417Zm-2.236,1.987q-.33,2.721-.33,2.739,0,.77.623.614.806-.2.806-1.5A2.261,2.261,0,0,0,422.962,267.4Z" transform="translate(-395.933 -259.011)" fill="#70112f"/><path d="M480.485,252.791a2.672,2.672,0,0,0,.559-1.449q0-.632-.339-.777a1.144,1.144,0,0,0-.742-.044,2.559,2.559,0,0,0-1.512,1.339,4.811,4.811,0,0,0-.651,2.453,2.2,2.2,0,0,0,.632,1.822,1.739,1.739,0,0,0,1.567.26,5.726,5.726,0,0,0,2.639-1.611,10.15,10.15,0,0,0,2.052-3,2.971,2.971,0,0,1,.733.77,11.047,11.047,0,0,1-2.144,3.228,9.028,9.028,0,0,1-1.823,1.5,7.418,7.418,0,0,1-2.171.944,3.194,3.194,0,0,1-2.9-.4,3.416,3.416,0,0,1-1.136-2.814,5.77,5.77,0,0,1,1.42-3.653,6.251,6.251,0,0,1,3.4-2.259,3.524,3.524,0,0,1,2.291.043,1.469,1.469,0,0,1,.9,1.435,3.616,3.616,0,0,1-1.127,2.572,9.376,9.376,0,0,1-3.088,2l-.257-1.017A4.013,4.013,0,0,0,480.485,252.791Z" transform="translate(-443.973 -246.799)" fill="#70112f"/><path d="M546.418,232.326a3.284,3.284,0,0,1,2.813.38,2.707,2.707,0,0,1,1.127,2.358,6.5,6.5,0,0,1-1.383,4.129,6.058,6.058,0,0,1-3.344,2.254,3.62,3.62,0,0,1-3.106-.343,2.869,2.869,0,0,1-1.145-2.481,6.112,6.112,0,0,1,1.411-4.017A6.684,6.684,0,0,1,546.418,232.326Zm-.357,1.573a2.366,2.366,0,0,0-1.457,1.353,6.206,6.206,0,0,0-.641,2.652,2.756,2.756,0,0,0,.431,1.652,1.137,1.137,0,0,0,1.31.37,2.4,2.4,0,0,0,1.475-1.339,4.969,4.969,0,0,0,.6-2.366,3.386,3.386,0,0,0-.422-1.874A1.075,1.075,0,0,0,546.061,233.9Z" transform="translate(-501.67 -232.182)" fill="#70112f"/></g><g transform="translate(1.275)"><path d="M234.749,273.807a3.325,3.325,0,0,0-1.063,2.5,2.15,2.15,0,0,0,.669,1.592,2.332,2.332,0,0,0,2.263.26,6.518,6.518,0,0,0,3.024-1.835,11.431,11.431,0,0,0,2.162-2.9l.623.963a10.11,10.11,0,0,1-6.578,5.653,4.87,4.87,0,0,1-3.537-.245,2.453,2.453,0,0,1-1.448-2.287,5.367,5.367,0,0,1,2.364-4.437,2.779,2.779,0,0,1-.788-2.076,4.848,4.848,0,0,1,1.475-3.3,6.859,6.859,0,0,1,3.418-2.08,3.638,3.638,0,0,1,3,.242,2.64,2.64,0,0,1,1.054,2.339l-1.741.434a1.5,1.5,0,0,0-.522-1.363,1.826,1.826,0,0,0-1.5-.129,3.369,3.369,0,0,0-1.732,1.128,2.964,2.964,0,0,0-.861,1.974,2.272,2.272,0,0,0,.55,1.6,5.286,5.286,0,0,1,2.785-.456.673.673,0,0,1,.587.724,1.17,1.17,0,0,1-.669,1,5.785,5.785,0,0,1-1.6.638A4.573,4.573,0,0,1,234.749,273.807Z" transform="translate(-230.864 -261.055)" fill="#70112f"/><path d="M301.593,256.888q0,.11-.495,4.063l2.694-.672v1.411l-2.877.717-.055.472A3.81,3.81,0,0,1,303,266.267a3.762,3.762,0,0,1-.852,2.613,4.007,4.007,0,0,1-2.043,1.242,1.855,1.855,0,0,1-1.741-.2,1.779,1.779,0,0,1-.55-1.393,3.066,3.066,0,0,1,.037-.449l.568-5.016-.073-.018-1.484.37q-.018-.178-.018-.591a2.456,2.456,0,0,1,.165-.857l1.576-.393.586-5.13a3.553,3.553,0,0,1,1.026-.4Q301.593,255.7,301.593,256.888Zm.183,9.667a2.864,2.864,0,0,0-1.1-2.218q-.33,2.813-.33,3.234,0,.824.532.692a1.055,1.055,0,0,0,.641-.517A2.3,2.3,0,0,0,301.776,266.555Z" transform="translate(-288.436 -252.807)" fill="#70112f"/><path d="M355.269,283.26a2.674,2.674,0,0,0,.559-1.45q0-.632-.339-.777a1.143,1.143,0,0,0-.742-.044,2.559,2.559,0,0,0-1.512,1.339,4.81,4.81,0,0,0-.65,2.453,2.2,2.2,0,0,0,.632,1.822,1.738,1.738,0,0,0,1.567.26,5.725,5.725,0,0,0,2.639-1.611,10.145,10.145,0,0,0,2.052-3,2.97,2.97,0,0,1,.733.77,11.048,11.048,0,0,1-2.144,3.228,9.024,9.024,0,0,1-1.823,1.5,7.413,7.413,0,0,1-2.171.944,3.193,3.193,0,0,1-2.9-.4,3.416,3.416,0,0,1-1.136-2.814,5.771,5.771,0,0,1,1.42-3.652,6.251,6.251,0,0,1,3.4-2.259,3.523,3.523,0,0,1,2.291.043,1.468,1.468,0,0,1,.9,1.435,3.616,3.616,0,0,1-1.127,2.571,9.376,9.376,0,0,1-3.088,2l-.256-1.017A4.012,4.012,0,0,0,355.269,283.26Z" transform="translate(-334.846 -273.257)" fill="#70112f"/><path d="M426.2,264.417q0-.806-.742-.621a1.872,1.872,0,0,0-1.182,1.248,3.294,3.294,0,0,1,1.979,3.007,3.493,3.493,0,0,1-.788,2.34,3.708,3.708,0,0,1-1.979,1.226,1.663,1.663,0,0,1-1.741-.308,2.5,2.5,0,0,1-.55-1.741q0-.348.018-.518l.641-5.749a5.5,5.5,0,0,1,1.338-.535q1.118-.279,1.118.546v.037a3.182,3.182,0,0,1,1.869-1.327,1.74,1.74,0,0,1,1.283.056.936.936,0,0,1,.458.885,1.641,1.641,0,0,1-.467,1.133,2.389,2.389,0,0,1-1.219.7l-.073.018A2.313,2.313,0,0,0,426.2,264.417Zm-2.236,1.987q-.33,2.721-.33,2.739,0,.77.623.614.806-.2.806-1.5A2.261,2.261,0,0,0,423.962,266.4Z" transform="translate(-396.933 -258.011)" fill="#70112f"/><path d="M481.485,251.791a2.672,2.672,0,0,0,.559-1.449q0-.632-.339-.777a1.144,1.144,0,0,0-.742-.044,2.559,2.559,0,0,0-1.512,1.339,4.811,4.811,0,0,0-.651,2.453,2.2,2.2,0,0,0,.632,1.822,1.739,1.739,0,0,0,1.567.26,5.726,5.726,0,0,0,2.639-1.611,10.15,10.15,0,0,0,2.052-3,2.971,2.971,0,0,1,.733.77,11.047,11.047,0,0,1-2.144,3.228,9.028,9.028,0,0,1-1.823,1.5,7.418,7.418,0,0,1-2.171.944,3.193,3.193,0,0,1-2.9-.4,3.416,3.416,0,0,1-1.136-2.814,5.77,5.77,0,0,1,1.42-3.653,6.251,6.251,0,0,1,3.4-2.259,3.524,3.524,0,0,1,2.291.043,1.469,1.469,0,0,1,.9,1.435,3.616,3.616,0,0,1-1.127,2.572,9.376,9.376,0,0,1-3.088,2l-.257-1.017A4.013,4.013,0,0,0,481.485,251.791Z" transform="translate(-444.973 -245.799)" fill="#70112f"/><path d="M547.418,231.326a3.284,3.284,0,0,1,2.813.38,2.707,2.707,0,0,1,1.127,2.358,6.5,6.5,0,0,1-1.383,4.129,6.058,6.058,0,0,1-3.344,2.254,3.62,3.62,0,0,1-3.106-.343,2.869,2.869,0,0,1-1.145-2.481,6.112,6.112,0,0,1,1.411-4.017A6.684,6.684,0,0,1,547.418,231.326Zm-.357,1.574a2.366,2.366,0,0,0-1.457,1.353,6.206,6.206,0,0,0-.641,2.652,2.756,2.756,0,0,0,.431,1.652,1.137,1.137,0,0,0,1.31.37,2.4,2.4,0,0,0,1.475-1.339,4.969,4.969,0,0,0,.6-2.366,3.386,3.386,0,0,0-.422-1.874A1.075,1.075,0,0,0,547.061,232.9Z" transform="translate(-502.67 -231.182)" fill="#70112f"/></g></g><g transform="translate(1.275 0.127)"><path d="M234.749,273.807a3.325,3.325,0,0,0-1.063,2.5,2.15,2.15,0,0,0,.669,1.592,2.332,2.332,0,0,0,2.263.26,6.518,6.518,0,0,0,3.024-1.835,11.431,11.431,0,0,0,2.162-2.9l.623.963a10.11,10.11,0,0,1-6.578,5.653,4.87,4.87,0,0,1-3.537-.245,2.453,2.453,0,0,1-1.448-2.287,5.367,5.367,0,0,1,2.364-4.437,2.779,2.779,0,0,1-.788-2.076,4.848,4.848,0,0,1,1.475-3.3,6.859,6.859,0,0,1,3.418-2.08,3.638,3.638,0,0,1,3,.242,2.64,2.64,0,0,1,1.054,2.339l-1.741.434a1.5,1.5,0,0,0-.522-1.363,1.826,1.826,0,0,0-1.5-.129,3.369,3.369,0,0,0-1.732,1.128,2.964,2.964,0,0,0-.861,1.974,2.272,2.272,0,0,0,.55,1.6,5.286,5.286,0,0,1,2.785-.456.673.673,0,0,1,.587.724,1.17,1.17,0,0,1-.669,1,5.785,5.785,0,0,1-1.6.638A4.573,4.573,0,0,1,234.749,273.807Z" transform="translate(-230.864 -261.055)" fill="#00182f"/><path d="M301.593,256.888q0,.11-.495,4.063l2.694-.672v1.411l-2.877.717-.055.472A3.81,3.81,0,0,1,303,266.267a3.762,3.762,0,0,1-.852,2.613,4.007,4.007,0,0,1-2.043,1.242,1.855,1.855,0,0,1-1.741-.2,1.779,1.779,0,0,1-.55-1.393,3.066,3.066,0,0,1,.037-.449l.568-5.016-.073-.018-1.484.37q-.018-.178-.018-.591a2.456,2.456,0,0,1,.165-.857l1.576-.393.586-5.13a3.553,3.553,0,0,1,1.026-.4Q301.593,255.7,301.593,256.888Zm.183,9.667a2.864,2.864,0,0,0-1.1-2.218q-.33,2.813-.33,3.234,0,.824.532.692a1.055,1.055,0,0,0,.641-.517A2.3,2.3,0,0,0,301.776,266.555Z" transform="translate(-288.436 -252.807)" fill="#00182f"/><path d="M355.269,283.26a2.674,2.674,0,0,0,.559-1.45q0-.632-.339-.777a1.143,1.143,0,0,0-.742-.044,2.559,2.559,0,0,0-1.512,1.339,4.81,4.81,0,0,0-.65,2.453,2.2,2.2,0,0,0,.632,1.822,1.738,1.738,0,0,0,1.567.26,5.725,5.725,0,0,0,2.639-1.611,10.145,10.145,0,0,0,2.052-3,2.97,2.97,0,0,1,.733.77,11.048,11.048,0,0,1-2.144,3.228,9.024,9.024,0,0,1-1.823,1.5,7.413,7.413,0,0,1-2.171.944,3.193,3.193,0,0,1-2.9-.4,3.416,3.416,0,0,1-1.136-2.814,5.771,5.771,0,0,1,1.42-3.652,6.251,6.251,0,0,1,3.4-2.259,3.523,3.523,0,0,1,2.291.043,1.468,1.468,0,0,1,.9,1.435,3.616,3.616,0,0,1-1.127,2.571,9.376,9.376,0,0,1-3.088,2l-.256-1.017A4.012,4.012,0,0,0,355.269,283.26Z" transform="translate(-334.846 -273.257)" fill="#00182f"/><path d="M426.2,264.417q0-.806-.742-.621a1.872,1.872,0,0,0-1.182,1.248,3.294,3.294,0,0,1,1.979,3.007,3.493,3.493,0,0,1-.788,2.34,3.708,3.708,0,0,1-1.979,1.226,1.663,1.663,0,0,1-1.741-.308,2.5,2.5,0,0,1-.55-1.741q0-.348.018-.518l.641-5.749a5.5,5.5,0,0,1,1.338-.535q1.118-.279,1.118.546v.037a3.182,3.182,0,0,1,1.869-1.327,1.74,1.74,0,0,1,1.283.056.936.936,0,0,1,.458.885,1.641,1.641,0,0,1-.467,1.133,2.389,2.389,0,0,1-1.219.7l-.073.018A2.313,2.313,0,0,0,426.2,264.417Zm-2.236,1.987q-.33,2.721-.33,2.739,0,.77.623.614.806-.2.806-1.5A2.261,2.261,0,0,0,423.962,266.4Z" transform="translate(-396.933 -258.011)" fill="#00182f"/><path d="M481.485,251.791a2.672,2.672,0,0,0,.559-1.449q0-.632-.339-.777a1.144,1.144,0,0,0-.742-.044,2.559,2.559,0,0,0-1.512,1.339,4.811,4.811,0,0,0-.651,2.453,2.2,2.2,0,0,0,.632,1.822,1.739,1.739,0,0,0,1.567.26,5.726,5.726,0,0,0,2.639-1.611,10.15,10.15,0,0,0,2.052-3,2.971,2.971,0,0,1,.733.77,11.047,11.047,0,0,1-2.144,3.228,9.028,9.028,0,0,1-1.823,1.5,7.418,7.418,0,0,1-2.171.944,3.193,3.193,0,0,1-2.9-.4,3.416,3.416,0,0,1-1.136-2.814,5.77,5.77,0,0,1,1.42-3.653,6.251,6.251,0,0,1,3.4-2.259,3.524,3.524,0,0,1,2.291.043,1.469,1.469,0,0,1,.9,1.435,3.616,3.616,0,0,1-1.127,2.572,9.376,9.376,0,0,1-3.088,2l-.257-1.017A4.013,4.013,0,0,0,481.485,251.791Z" transform="translate(-444.973 -245.799)" fill="#00182f"/><path d="M547.418,231.326a3.284,3.284,0,0,1,2.813.38,2.707,2.707,0,0,1,1.127,2.358,6.5,6.5,0,0,1-1.383,4.129,6.058,6.058,0,0,1-3.344,2.254,3.62,3.62,0,0,1-3.106-.343,2.869,2.869,0,0,1-1.145-2.481,6.112,6.112,0,0,1,1.411-4.017A6.684,6.684,0,0,1,547.418,231.326Zm-.357,1.574a2.366,2.366,0,0,0-1.457,1.353,6.206,6.206,0,0,0-.641,2.652,2.756,2.756,0,0,0,.431,1.652,1.137,1.137,0,0,0,1.31.37,2.4,2.4,0,0,0,1.475-1.339,4.969,4.969,0,0,0,.6-2.366,3.386,3.386,0,0,0-.422-1.874A1.075,1.075,0,0,0,547.061,232.9Z" transform="translate(-502.67 -231.182)" fill="#00182f"/></g><g transform="translate(1.147 0)"><g transform="translate(0 3.158)"><path d="M233.393,271.249a4.246,4.246,0,0,1-2.014-.469,2.583,2.583,0,0,1-1.515-2.4,5.474,5.474,0,0,1,2.3-4.452,2.95,2.95,0,0,1-.725-2.062,4.992,4.992,0,0,1,1.509-3.386,7.016,7.016,0,0,1,3.48-2.117,3.771,3.771,0,0,1,3.1.261,2.387,2.387,0,0,1,.837,1.01l.245-2.141.052-.033a3.7,3.7,0,0,1,1.063-.418,1.387,1.387,0,0,1,1.216.1,1.035,1.035,0,0,1,.335.864c0,.035,0,.114-.473,3.895l2.672-.666v1.674l-2.888.72-.035.3a4.105,4.105,0,0,1,1.25,6.153,4.15,4.15,0,0,1-2.107,1.281,1.977,1.977,0,0,1-1.857-.227,1.692,1.692,0,0,1-.437-.624,9.272,9.272,0,0,1-4.394,2.519A6.685,6.685,0,0,1,233.393,271.249Zm4.474-14.827a5.735,5.735,0,0,0-1.377.189,6.765,6.765,0,0,0-3.355,2.043,4.748,4.748,0,0,0-1.441,3.213,2.668,2.668,0,0,0,.75,1.985l.106.1-.118.089a5.268,5.268,0,0,0-2.313,4.336,2.317,2.317,0,0,0,1.38,2.174,4.768,4.768,0,0,0,3.446.234,9.045,9.045,0,0,0,4.417-2.6l.154-.162.061.215a1.469,1.469,0,0,0,.432.707,1.751,1.751,0,0,0,1.625.169,3.9,3.9,0,0,0,1.979-1.2,3.657,3.657,0,0,0,.819-2.528,3.706,3.706,0,0,0-2.081-3.277l-.072-.042.075-.642,2.866-.714v-1.148l-2.716.677.023-.184c.4-3.228.492-3.984.494-4.049a.8.8,0,0,0-.237-.662,1.184,1.184,0,0,0-1-.057,3.591,3.591,0,0,0-.938.355l-.385,3.365h0l-.2,1.791-1.6.4a2.3,2.3,0,0,0-.134.749c0,.176,0,.32.008.431l1.368-.341.212.053-.495,4.368-.025.03c-.235.275-.483.544-.738.8a6.672,6.672,0,0,1-3.083,1.869,2.452,2.452,0,0,1-2.383-.293,2.283,2.283,0,0,1-.707-1.683,3.463,3.463,0,0,1,1.1-2.593l.047-.045.064.011a4.468,4.468,0,0,0,1.871-.056,5.69,5.69,0,0,0,1.568-.623,1.043,1.043,0,0,0,.607-.892.549.549,0,0,0-.486-.6,5.2,5.2,0,0,0-2.714.451l-.08.03-.058-.063a2.4,2.4,0,0,1-.584-1.69,3.1,3.1,0,0,1,.894-2.059,3.506,3.506,0,0,1,1.8-1.167,1.952,1.952,0,0,1,1.605.148,1.534,1.534,0,0,1,.577,1.306l1.556-.388-.151-.693a2.241,2.241,0,0,0-.917-1.425A2.616,2.616,0,0,0,237.868,256.422Zm-3.949,8.4a3.212,3.212,0,0,0-.978,2.364,2.011,2.011,0,0,0,.631,1.5,2.234,2.234,0,0,0,2.143.228,6.422,6.422,0,0,0,2.964-1.8h0c.241-.242.476-.5.7-.756l.457-4.035-1.526.38-.015-.146c-.013-.124-.019-.321-.019-.6a2.6,2.6,0,0,1,.173-.9l.023-.063,1.555-.388.15-1.314-1.538.383,0-.166a1.394,1.394,0,0,0-.467-1.256,1.718,1.718,0,0,0-1.4-.111,3.26,3.26,0,0,0-1.666,1.088,2.857,2.857,0,0,0-.83,1.89,2.2,2.2,0,0,0,.46,1.454,5.222,5.222,0,0,1,2.776-.431.8.8,0,0,1,.685.848,1.293,1.293,0,0,1-.73,1.11,5.941,5.941,0,0,1-1.639.653A4.706,4.706,0,0,1,233.919,264.818Zm8.377,2.714a.443.443,0,0,1-.28-.092.905.905,0,0,1-.241-.746c0-.288.108-1.351.331-3.249l.028-.239.182.158a3,3,0,0,1,1.144,2.314,2.432,2.432,0,0,1-.275,1.257h0a1.183,1.183,0,0,1-.719.574A.693.693,0,0,1,242.3,267.531Zm.034-3.809c-.2,1.71-.3,2.71-.3,2.971,0,.358.078.494.143.545.019.015.079.061.23.023a.927.927,0,0,0,.563-.46,2.192,2.192,0,0,0,.238-1.125A2.681,2.681,0,0,0,242.33,263.722Z" transform="translate(-229.864 -254.96)" fill="#fff"/></g><g transform="translate(15.191 3.919)"><path d="M352.014,272.862a2.779,2.779,0,0,1-1.793-.582,3.552,3.552,0,0,1-1.184-2.913,5.921,5.921,0,0,1,1.448-3.732,6.4,6.4,0,0,1,3.468-2.3,3.66,3.66,0,0,1,2.374.05,1.593,1.593,0,0,1,.973,1.549,3.756,3.756,0,0,1-1.163,2.663,9.545,9.545,0,0,1-3.129,2.026l-.137.059-.319-1.265.1-.044a3.907,3.907,0,0,0,1.643-1.3,2.566,2.566,0,0,0,.537-1.378c0-.363-.088-.585-.262-.66A1.011,1.011,0,0,0,353.9,265a2.452,2.452,0,0,0-1.432,1.279,4.706,4.706,0,0,0-.633,2.389,2.1,2.1,0,0,0,.583,1.721,1.605,1.605,0,0,0,1.458.237,5.626,5.626,0,0,0,2.579-1.577,9.955,9.955,0,0,0,1.862-2.624l.454-4.07.058-.032a5.658,5.658,0,0,1,1.369-.547,1.193,1.193,0,0,1,1.033.073.6.6,0,0,1,.2.306,3.253,3.253,0,0,1,1.75-1.124,1.865,1.865,0,0,1,1.377.069h0a1.059,1.059,0,0,1,.522,1,1.771,1.771,0,0,1-.5,1.22,2.526,2.526,0,0,1-1.282.735l-.263.065.033-.192a2.2,2.2,0,0,0,.035-.372.577.577,0,0,0-.146-.466.511.511,0,0,0-.437-.032,1.692,1.692,0,0,0-1.05,1.068,3.392,3.392,0,0,1,1.944,3.062,3.632,3.632,0,0,1-.818,2.423,3.849,3.849,0,0,1-2.046,1.268,1.784,1.784,0,0,1-1.866-.346,2.347,2.347,0,0,1-.552-1.332c-.256.337-.542.68-.853,1.023a9.191,9.191,0,0,1-1.85,1.522,7.576,7.576,0,0,1-2.209.96A5.035,5.035,0,0,1,352.014,272.862Zm3.18-9.444a4.924,4.924,0,0,0-1.18.161,6.154,6.154,0,0,0-3.331,2.215,5.673,5.673,0,0,0-1.392,3.572,3.311,3.311,0,0,0,1.089,2.715,3.087,3.087,0,0,0,2.784.371,7.318,7.318,0,0,0,2.134-.928,8.943,8.943,0,0,0,1.8-1.478,15.029,15.029,0,0,0,1.039-1.277l.219-.3.012.373a2.3,2.3,0,0,0,.512,1.515,1.557,1.557,0,0,0,1.616.27,3.6,3.6,0,0,0,1.913-1.185,3.385,3.385,0,0,0,.758-2.258,3.15,3.15,0,0,0-1.912-2.894l-.1-.055.044-.106a2,2,0,0,1,1.269-1.322.74.74,0,0,1,.656.078.8.8,0,0,1,.245.667c0,.071,0,.145-.012.222a2.237,2.237,0,0,0,1.046-.63,1.505,1.505,0,0,0,.434-1.047.811.811,0,0,0-.394-.774,1.634,1.634,0,0,0-1.189-.043,3.072,3.072,0,0,0-1.8,1.277l-.232.33v-.44a.47.47,0,0,0-.146-.4,1.012,1.012,0,0,0-.814-.027,5.367,5.367,0,0,0-1.249.491l-.444,3.984-.01.02a10.218,10.218,0,0,1-1.92,2.712,5.875,5.875,0,0,1-2.7,1.645,1.866,1.866,0,0,1-1.676-.283,2.322,2.322,0,0,1-.681-1.922,4.958,4.958,0,0,1,.668-2.517,2.689,2.689,0,0,1,1.591-1.4,1.271,1.271,0,0,1,.823.05c.276.118.417.419.417.894a2.805,2.805,0,0,1-.581,1.521,4.092,4.092,0,0,1-1.651,1.338l.194.77a9.152,9.152,0,0,0,2.909-1.91,3.509,3.509,0,0,0,1.091-2.483,1.339,1.339,0,0,0-.823-1.318A2.5,2.5,0,0,0,355.195,263.418Zm5.909,5.625a.512.512,0,0,1-.325-.1.794.794,0,0,1-.234-.665c0-.013,0-.027.331-2.755l.026-.214.175.125a2.391,2.391,0,0,1,1.153,1.955c0,.929-.3,1.476-.9,1.626A.924.924,0,0,1,361.1,269.043Zm0-3.271c-.257,2.12-.3,2.487-.3,2.513a.583.583,0,0,0,.137.454.381.381,0,0,0,.328.027c.478-.119.71-.57.71-1.378A2.059,2.059,0,0,0,361.1,265.772Z" transform="translate(-349.037 -260.936)" fill="#fff"/></g><g transform="translate(31.28)"><path d="M478.23,242.023a2.778,2.778,0,0,1-1.794-.582,3.551,3.551,0,0,1-1.184-2.913A5.919,5.919,0,0,1,476.7,234.8a6.4,6.4,0,0,1,3.468-2.3,3.66,3.66,0,0,1,2.374.05,1.593,1.593,0,0,1,.973,1.549,3.756,3.756,0,0,1-1.163,2.663,9.543,9.543,0,0,1-3.129,2.026l-.137.059-.319-1.265.1-.044a3.908,3.908,0,0,0,1.643-1.295,2.565,2.565,0,0,0,.537-1.378c0-.364-.088-.585-.262-.66a1.01,1.01,0,0,0-.661-.038,2.452,2.452,0,0,0-1.432,1.279,4.706,4.706,0,0,0-.634,2.389,2.1,2.1,0,0,0,.583,1.721,1.605,1.605,0,0,0,1.457.237,5.629,5.629,0,0,0,2.579-1.577A9.6,9.6,0,0,0,483.69,237c-.005-.091-.008-.17-.008-.248a6.264,6.264,0,0,1,1.44-4.1,6.838,6.838,0,0,1,3.7-2.322,3.419,3.419,0,0,1,2.918.4h0a2.839,2.839,0,0,1,1.181,2.462,6.652,6.652,0,0,1-1.411,4.208,6.209,6.209,0,0,1-3.414,2.3,3.754,3.754,0,0,1-3.212-.364,2.8,2.8,0,0,1-.712-.746c-.207.26-.431.524-.667.784a9.189,9.189,0,0,1-1.85,1.521,7.576,7.576,0,0,1-2.209.96A5.029,5.029,0,0,1,478.23,242.023Zm3.181-9.444a4.922,4.922,0,0,0-1.18.161,6.155,6.155,0,0,0-3.331,2.215,5.672,5.672,0,0,0-1.392,3.573,3.311,3.311,0,0,0,1.089,2.715,3.09,3.09,0,0,0,2.784.371,7.326,7.326,0,0,0,2.134-.929,8.939,8.939,0,0,0,1.8-1.478c.275-.3.534-.612.768-.915l.119-.153.094.17a2.522,2.522,0,0,0,.736.826,3.517,3.517,0,0,0,3,.323,5.961,5.961,0,0,0,3.275-2.209,6.4,6.4,0,0,0,1.356-4.05,2.566,2.566,0,0,0-1.073-2.254h0a3.178,3.178,0,0,0-2.708-.36,6.587,6.587,0,0,0-3.561,2.237,6.014,6.014,0,0,0-1.382,3.936c0,.084,0,.172.01.277l0,.045-.026.037a9.873,9.873,0,0,1-1.068,1.275,5.876,5.876,0,0,1-2.7,1.644,1.867,1.867,0,0,1-1.676-.283,2.322,2.322,0,0,1-.681-1.922,4.958,4.958,0,0,1,.668-2.517,2.689,2.689,0,0,1,1.591-1.4,1.271,1.271,0,0,1,.823.05c.276.118.417.419.417.894a2.8,2.8,0,0,1-.581,1.521,4.092,4.092,0,0,1-1.651,1.338l.194.77a9.154,9.154,0,0,0,2.91-1.91,3.51,3.51,0,0,0,1.091-2.483,1.339,1.339,0,0,0-.823-1.318A2.5,2.5,0,0,0,481.411,232.579Zm6.277,5.668a1.135,1.135,0,0,1-.967-.482,2.89,2.89,0,0,1-.455-1.727,6.365,6.365,0,0,1,.656-2.711,2.5,2.5,0,0,1,1.539-1.418,1.2,1.2,0,0,1,1.43.5,3.52,3.52,0,0,1,.441,1.942,5.118,5.118,0,0,1-.61,2.426,2.53,2.53,0,0,1-1.557,1.4A1.977,1.977,0,0,1,487.688,238.247Zm1.2-6.139a1.531,1.531,0,0,0-.369.049,2.258,2.258,0,0,0-1.375,1.288,6.111,6.111,0,0,0-.627,2.6,2.643,2.643,0,0,0,.406,1.572,1.013,1.013,0,0,0,1.176.321,2.291,2.291,0,0,0,1.393-1.275,4.863,4.863,0,0,0,.581-2.306,3.284,3.284,0,0,0-.4-1.8A.88.88,0,0,0,488.891,232.108Z" transform="translate(-475.253 -230.189)" fill="#fff"/></g></g></g></g></svg>