<svg width="217" height="62" viewBox="0 0 217 62" fill="none" xmlns="http://www.w3.org/2000/svg">
<path d="M31 62C48.1208 62 62 48.1208 62 31C62 13.8792 48.1208 0 31 0C13.8792 0 0 13.8792 0 31C0 48.1208 13.8792 62 31 62Z" fill="#FFD05B"/>
<path d="M41.447 19.723C41.547 21.623 40.617 23.531 39.299 25.532C40.373 19.039 38.225 11.765 29.584 8.39697C30.316 11.131 28.559 14.497 26.85 18.161C25.7642 16.919 24.5539 15.7918 23.238 14.797C23.921 23.877 4.00297 32.958 20.162 48.482C21.1063 49.0364 22.104 49.4943 23.14 49.849L22.994 49.703C19.528 45.944 17.624 38.182 24.214 33.056C24.2428 34.4339 24.7425 35.7605 25.63 36.815C24.947 32.615 26.313 27.881 31.93 25.684C31.442 27.441 32.613 29.638 33.687 32.03C34.3717 31.2004 35.159 30.4611 36.03 29.83C35.688 34.663 44.671 39.643 41.449 47.014C42.1134 46.5145 42.734 45.9591 43.304 45.354C48.623 39.597 51.553 27.632 41.447 19.723Z" fill="#FF7058"/>
<path d="M95.6 40V22.5H91.45L86.85 29.9L82.25 22.5H78.1V40H81.875V28.65L86.75 36.05H86.85L91.775 28.575V40H95.6Z" fill="#FF7058"/>
<path d="M117.629 31.25V31.2C117.629 26.225 113.754 22.2 108.354 22.2C102.954 22.2 99.0291 26.275 99.0291 31.25V31.3C99.0291 36.275 102.904 40.3 108.304 40.3C113.704 40.3 117.629 36.225 117.629 31.25ZM113.604 31.3C113.604 34.3 111.454 36.75 108.354 36.75C105.254 36.75 103.054 34.25 103.054 31.25V31.2C103.054 28.2 105.204 25.75 108.304 25.75C111.404 25.75 113.604 28.25 113.604 31.25V31.3Z" fill="#FF7058"/>
<path d="M133.538 26.05V22.5H119.038V26.05H124.363V40H128.213V26.05H133.538Z" fill="#FF7058"/>
<path d="M153.567 31.25V31.2C153.567 26.225 149.692 22.2 144.292 22.2C138.892 22.2 134.967 26.275 134.967 31.25V31.3C134.967 36.275 138.842 40.3 144.242 40.3C149.642 40.3 153.567 36.225 153.567 31.25ZM149.542 31.3C149.542 34.3 147.392 36.75 144.292 36.75C141.192 36.75 138.992 34.25 138.992 31.25V31.2C138.992 28.2 141.142 25.75 144.242 25.75C147.342 25.75 149.542 28.25 149.542 31.25V31.3Z" fill="#FF7058"/>
<path d="M180.495 37.525V29.925H172.895V33.25H176.77V35.75C175.795 36.45 174.545 36.8 173.145 36.8C170.045 36.8 167.845 34.45 167.845 31.25V31.2C167.845 28.225 170.07 25.75 172.87 25.75C174.895 25.75 176.095 26.4 177.445 27.525L179.87 24.6C178.045 23.05 176.145 22.2 172.995 22.2C167.695 22.2 163.82 26.275 163.82 31.25V31.3C163.82 36.475 167.57 40.3 173.02 40.3C176.22 40.3 178.695 39.05 180.495 37.525Z" fill="#FFD05B"/>
<path d="M201.25 40L193.75 22.375H190.2L182.7 40H186.625L188.225 36.075H195.625L197.225 40H201.25ZM194.25 32.675H189.6L191.925 27L194.25 32.675Z" fill="#FFD05B"/>
<path d="M216.356 34.825V34.775C216.356 31.725 214.356 30.45 210.806 29.525C207.781 28.75 207.031 28.375 207.031 27.225V27.175C207.031 26.325 207.806 25.65 209.281 25.65C210.756 25.65 212.281 26.3 213.831 27.375L215.831 24.475C214.056 23.05 211.881 22.25 209.331 22.25C205.756 22.25 203.206 24.35 203.206 27.525V27.575C203.206 31.05 205.481 32.025 209.006 32.925C211.931 33.675 212.531 34.175 212.531 35.15V35.2C212.531 36.225 211.581 36.85 210.006 36.85C208.006 36.85 206.356 36.025 204.781 34.725L202.506 37.45C204.606 39.325 207.281 40.25 209.931 40.25C213.706 40.25 216.356 38.3 216.356 34.825Z" fill="#FFD05B"/>
</svg>
